<?xml version="1.0" encoding="utf-8"?>
<!-- Generator: Adobe Illustrator 22.0.0, SVG Export Plug-In . SVG Version: 6.00 Build 0)  -->
<svg version="1.1" id="Layer_1" xmlns="http://www.w3.org/2000/svg" xmlns:xlink="http://www.w3.org/1999/xlink" x="0px" y="0px"
	 viewBox="0 0 577 478" style="enable-background:new 0 0 577 478;" xml:space="preserve">
<style type="text/css">
	.st0{fill:#E1E1E1;}
	.st1{fill:#ECECEC;}
	.st2{fill:#F5F5F5;}
	.st3{fill:#1A2E35;}
	.st4{fill:#375A64;}
	.st5{opacity:0.3;}
	.st6{fill:#FF735D;}
	.st7{opacity:0.6;}
	.st8{fill:#FFFFFF;}
	.st9{fill:#FFD1AA;}
	.st10{fill:#DB8A76;}
	.st11{fill:#9A5D53;}
</style>
<g>
	<g>
		<g>
			<g>
				<g>
					<g>
						<g>
							<g>
								<path class="st0" d="M452.7,165.1c-10-3.2-19-9.4-25.7-18.5c-8.2-11.1-11.6-24.8-9.6-38.5c2-13.7,9.3-25.8,20.4-34
									c23-17,55.5-12.1,72.5,10.8l0,0c8.2,11.1,11.6,24.8,9.6,38.5c-2,13.7-9.3,25.8-20.4,34C485.5,167.7,468.1,170,452.7,165.1z
									 M483.5,69.8c-14.3-4.6-30.6-2.5-43.6,7.1c-10.4,7.7-17.1,18.9-19.1,31.7c-1.9,12.8,1.3,25.5,8.9,35.9
									c7.7,10.4,18.9,17.1,31.7,19.1c12.8,1.9,25.5-1.3,35.9-8.9c10.4-7.7,17.1-18.9,19.1-31.7c1.9-12.8-1.3-25.5-8.9-35.9
									C501.3,78.6,492.8,72.8,483.5,69.8z"/>
							</g>
						</g>
					</g>
				</g>
			</g>
			<g>
				<g>
					<g>
						<g>
							<g>
								<path class="st0" d="M546.9,209.5L546.9,209.5c-2.8,2.3-6.8,1.8-9.1-0.9l-40.9-49.9c-0.4-0.5-0.3-1.2,0.2-1.6l6.6-5.4
									c0.5-0.4,1.1-0.3,1.5,0.1l42.4,48.4C550,203.1,549.7,207.2,546.9,209.5z"/>
							</g>
						</g>
					</g>
				</g>
			</g>
		</g>
		<g>
			<g>
				<g>
					<g>
						<g>
							<g>
								<path class="st1" d="M453.6,162.3c-10-3.2-19-9.4-25.7-18.5c-8.2-11.1-11.6-24.8-9.6-38.5c2-13.7,9.3-25.8,20.4-34
									c23-17,55.5-12.1,72.5,10.8l0,0c8.2,11.1,11.6,24.8,9.6,38.5c-2,13.7-9.3,25.8-20.4,34C486.4,165,469,167.2,453.6,162.3z
									 M484.4,67c-14.3-4.6-30.6-2.5-43.6,7.1c-10.4,7.7-17.1,18.9-19.1,31.7c-1.9,12.8,1.3,25.5,8.9,35.9
									c7.7,10.4,18.9,17.1,31.7,19.1c12.8,1.9,25.5-1.3,35.9-8.9c10.4-7.7,17.1-18.9,19.1-31.7c1.9-12.8-1.3-25.5-8.9-35.9
									C502.1,75.9,493.7,70,484.4,67z"/>
							</g>
						</g>
					</g>
				</g>
			</g>
			<g>
				<g>
					<g>
						<g>
							<g>
								<path class="st1" d="M548.3,208.3l-0.9,0.7c-2,1.7-5,1.4-6.7-0.7l-43.6-53.3l8.3-6.8l43.6,53.3
									C550.7,203.7,550.4,206.7,548.3,208.3z"/>
							</g>
						</g>
					</g>
				</g>
			</g>
		</g>
	</g>
	<g>
		<g>
			<g>
				<g>
					<g>
						<path class="st0" d="M429.6,106c0,0,0-0.6,0.1-1.6c0-0.5,0.1-1.2,0.2-1.9c0.1-0.7,0.2-1.6,0.5-2.5c0.1-0.5,0.2-0.9,0.4-1.4
							c0.1-0.5,0.3-1,0.5-1.5c0.3-1.1,0.8-2.1,1.3-3.3c1-2.3,2.4-4.6,4.1-7c1.7-2.3,3.6-4.3,5.5-5.9c1-0.8,1.9-1.6,2.8-2.2
							c0.5-0.3,0.9-0.6,1.3-0.9c0.4-0.3,0.9-0.5,1.3-0.8c0.8-0.5,1.6-0.8,2.2-1.2c0.7-0.3,1.3-0.6,1.7-0.8c1-0.4,1.5-0.6,1.5-0.5
							c0,0-0.5,0.3-1.5,0.7c-0.5,0.2-1.1,0.5-1.7,0.8c-0.6,0.4-1.4,0.7-2.2,1.2c-0.4,0.2-0.8,0.5-1.2,0.8c-0.4,0.3-0.8,0.6-1.3,0.9
							c-0.9,0.6-1.8,1.4-2.7,2.2c-1.8,1.6-3.7,3.6-5.4,5.9c-1.7,2.3-3,4.6-4.1,6.9c-0.5,1.1-1,2.2-1.3,3.2c-0.2,0.5-0.4,1-0.5,1.5
							c-0.1,0.5-0.3,1-0.4,1.4c-0.3,0.9-0.4,1.7-0.6,2.4c-0.2,0.7-0.3,1.4-0.3,1.9C429.7,105.4,429.6,106,429.6,106z"/>
					</g>
				</g>
			</g>
		</g>
	</g>
</g>
<g>
	<g>
		<polygon class="st0" points="210.9,205.2 135.4,205.2 102.4,164.9 103.1,164.4 135.8,204.3 210.9,204.3 		"/>
	</g>
	<g>
		<path class="st0" d="M213.4,204.7c0,1.6-1.3,2.8-2.8,2.8s-2.8-1.3-2.8-2.8s1.3-2.8,2.8-2.8S213.4,203.1,213.4,204.7z"/>
	</g>
	<g>
		<g>
			<g>
				<path class="st2" d="M36.9,134.1c-0.4-23.8,18.6-43.6,42.4-43.9c23.7-0.4,43.4,18.7,43.7,42.6c0.4,23.8-18.6,43.6-42.4,43.9
					C56.9,177,37.3,158,36.9,134.1z M100.6,133.1c-0.2-11.4-9.6-20.5-20.9-20.3c-11.3,0.2-20.4,9.6-20.3,21
					c0.2,11.4,9.6,20.5,20.9,20.3C91.7,153.9,100.8,144.5,100.6,133.1z"/>
			</g>
		</g>
		<g>
			<g>
				<path class="st0" d="M36.9,134.1c-0.4-23.8,18.6-43.6,42.4-43.9l0.4,22.6c-11.3,0.2-20.4,9.6-20.3,21
					c0.2,11.4,9.6,20.5,20.9,20.3l0.4,22.6C56.9,177,37.3,158,36.9,134.1z"/>
			</g>
		</g>
		<g>
			<g>
				<path class="st1" d="M75.4,86.7c27.8-0.4,49.9,21.1,50.4,49l-26.3,0.4c-0.2-13.3-10.4-21.7-23.6-21.5L75.4,86.7z"/>
			</g>
		</g>
	</g>
</g>
<g>
	<g>
		<g>
			<g>
				<path class="st2" d="M211.4,75.5c2,13.9-7.6,26.8-21.6,28.8c-13.9,2-26.9-7.6-28.9-21.5c-2-13.9,7.6-26.8,21.6-28.8
					C196.4,52,209.3,61.6,211.4,75.5z"/>
			</g>
		</g>
		<g>
			<g>
				<path class="st1" d="M205.3,76.4c1.5,10.6-5.8,20.4-16.4,22c-10.6,1.5-20.5-5.8-22-16.4c-1.5-10.6,5.8-20.4,16.4-22
					C193.9,58.5,203.8,65.8,205.3,76.4z"/>
			</g>
		</g>
		<g>
			<g>
				<g>
					<path class="st0" d="M205.3,75.8c-0.1,0-0.3-0.8-0.8-2.2c-0.5-1.4-1.4-3.5-3.1-5.6c-0.8-1.1-1.8-2.1-3.1-3.1
						c-1.2-1-2.6-1.9-4.2-2.6c-0.8-0.4-1.6-0.7-2.5-0.9c-0.9-0.3-1.8-0.5-2.8-0.6c-0.9-0.1-1.9-0.2-2.9-0.2c-1,0-2,0.1-3,0.3
						c-1,0.2-2,0.4-2.9,0.8c-0.9,0.3-1.8,0.7-2.7,1.2c-0.9,0.4-1.6,1-2.4,1.5c-0.7,0.5-1.4,1.1-2.1,1.8c-1.3,1.2-2.3,2.6-3.1,3.9
						c-0.8,1.4-1.4,2.7-1.8,4c-0.8,2.6-1,4.8-1,6.3c0,1.5,0.1,2.4,0,2.4c-0.1,0-0.4-0.8-0.6-2.4c-0.2-1.5-0.2-3.9,0.5-6.6
						c0.4-1.4,0.9-2.8,1.7-4.3c0.8-1.5,1.9-2.9,3.2-4.3c0.7-0.7,1.4-1.3,2.2-1.9c0.8-0.6,1.6-1.2,2.5-1.6c0.9-0.5,1.9-0.9,2.9-1.3
						c1-0.3,2.1-0.6,3.1-0.8c1.1-0.2,2.2-0.3,3.2-0.3c1.1,0,2.1,0.1,3.1,0.2c1,0.1,2,0.4,3,0.7c0.9,0.3,1.9,0.6,2.7,1.1
						c1.7,0.8,3.2,1.8,4.5,2.9c1.3,1.1,2.3,2.3,3.1,3.4c1.6,2.3,2.4,4.5,2.8,6C205.3,74.9,205.3,75.8,205.3,75.8z"/>
				</g>
			</g>
		</g>
	</g>
	<g>
		<g>
			<g>
				<g>
					<path class="st0" d="M190,90.4l0.5,3.3l-3,0.5l-0.5-3.3c-3,0.3-6-0.2-7.8-1.2l1.1-3.9c1.7,0.9,3.9,1.3,6.1,1.2l-0.8-5
						c-3.4-0.3-7.3-0.8-8-5.1c-0.5-3.2,1.4-6.2,6-7.5l-0.5-3.3l3-0.5l0.5,3.3c2.3-0.2,4.5,0.1,6.3,0.8l-0.9,3.9
						c-1.7-0.6-3.3-0.9-4.8-0.8l0.8,5.1c3.4,0.2,7.3,0.8,7.9,5C196.4,86,194.6,89,190,90.4z M184.9,77.6l-0.7-4.2
						c-1.5,0.6-2,1.6-1.9,2.6C182.5,77,183.5,77.4,184.9,77.6z M191.1,84c-0.2-1-1.1-1.5-2.5-1.7l0.7,4.1
						C190.8,85.8,191.3,85,191.1,84z"/>
				</g>
			</g>
		</g>
	</g>
</g>
<g>
	<g>
		<g>
			<g>
				<path class="st2" d="M38.1,246.9c-5.7,8.4-17.2,10.5-25.6,4.8c-8.4-5.7-10.6-17.2-4.8-25.6c5.7-8.4,17.2-10.5,25.6-4.8
					C41.7,227,43.9,238.5,38.1,246.9z"/>
			</g>
		</g>
		<g>
			<g>
				<path class="st1" d="M34.5,244.4c-4.4,6.4-13.1,8-19.5,3.6c-6.4-4.4-8.1-13.1-3.7-19.5c4.4-6.4,13.1-8,19.5-3.6
					C37.2,229.3,38.9,238,34.5,244.4z"/>
			</g>
		</g>
		<g>
			<g>
				<g>
					<path class="st0" d="M34.7,244c-0.1,0,0.2-0.6,0.6-1.6c0.4-1,0.9-2.5,1.1-4.5c0.1-1,0.1-2-0.1-3.2c-0.2-1.1-0.5-2.3-1-3.5
						c-0.2-0.6-0.5-1.2-0.9-1.7c-0.3-0.6-0.7-1.1-1.2-1.7c-0.4-0.5-0.9-1-1.5-1.5c-0.5-0.5-1.1-0.9-1.7-1.3c-0.6-0.4-1.3-0.7-1.9-1
						c-0.7-0.3-1.3-0.5-2-0.7c-0.7-0.2-1.3-0.3-2-0.4c-0.7-0.1-1.3-0.1-2-0.1c-1.3,0-2.5,0.3-3.6,0.6c-1.1,0.3-2.1,0.8-2.9,1.2
						c-1.7,1-2.8,2.1-3.6,2.9c-0.7,0.8-1.1,1.3-1.2,1.3c-0.1,0,0.2-0.6,0.9-1.5c0.7-0.9,1.8-2.2,3.5-3.3c0.9-0.5,1.9-1.1,3-1.4
						c1.1-0.4,2.4-0.7,3.8-0.7c0.7,0,1.4,0,2.1,0c0.7,0.1,1.4,0.2,2.2,0.4c0.7,0.2,1.4,0.4,2.2,0.7c0.7,0.3,1.4,0.7,2.1,1.1
						c0.7,0.4,1.3,0.9,1.9,1.4c0.6,0.5,1.1,1.1,1.6,1.6c0.5,0.6,0.9,1.2,1.2,1.8c0.4,0.6,0.7,1.3,0.9,1.9c0.5,1.3,0.8,2.5,0.9,3.7
						c0.1,1.2,0.1,2.3,0,3.4c-0.3,2-0.9,3.6-1.5,4.6C35.2,243.6,34.8,244.1,34.7,244z"/>
				</g>
			</g>
		</g>
	</g>
	<g>
		<g>
			<g>
				<g>
					<path class="st0" d="M19.5,244.3l-1.4,2l-1.8-1.2l1.3-2c-1.7-1.3-3.1-3-3.6-4.5l2.5-1.6c0.5,1.3,1.5,2.6,2.7,3.6l2-3
						c-1.7-1.8-3.5-4-1.8-6.6c1.3-1.9,3.8-2.7,6.9-1.1l1.3-2l1.8,1.2l-1.3,2c1.3,1,2.4,2.3,3,3.6l-2.4,1.6c-0.6-1.1-1.3-2.1-2.2-2.8
						l-2.1,3.1c1.7,1.8,3.5,4,1.8,6.5C25,245.1,22.6,245.9,19.5,244.3z M23,235l1.7-2.6c-1.1-0.4-1.8-0.1-2.2,0.5
						C22,233.5,22.4,234.3,23,235z M23.2,241.5c0.4-0.6,0.1-1.3-0.5-2.1l-1.7,2.5C22.1,242.3,22.8,242.1,23.2,241.5z"/>
				</g>
			</g>
		</g>
	</g>
</g>
<g>
	<g>
		<g>
			<g>
				<path class="st2" d="M357.5,97c0.9,10.1-6.6,19-16.8,19.9c-10.1,0.9-19.1-6.6-20-16.7c-0.9-10.1,6.6-19,16.8-19.9
					C347.6,79.4,356.6,86.9,357.5,97z"/>
			</g>
		</g>
		<g>
			<g>
				<path class="st1" d="M353.1,97.4c0.7,7.7-5.1,14.5-12.8,15.2c-7.7,0.7-14.5-5-15.2-12.7c-0.7-7.7,5.1-14.5,12.8-15.2
					C345.6,84,352.4,89.7,353.1,97.4z"/>
			</g>
		</g>
		<g>
			<g>
				<g>
					<path class="st0" d="M353,96.9c-0.1,0-0.2-0.6-0.5-1.7c-0.3-1-0.9-2.6-2-4.2c-0.6-0.8-1.2-1.6-2.1-2.4c-0.8-0.8-1.8-1.5-3-2.1
						c-0.6-0.3-1.2-0.6-1.8-0.8c-0.6-0.2-1.3-0.4-2-0.5c-0.7-0.1-1.4-0.2-2.1-0.2c-0.7,0-1.4,0-2.2,0.1c-0.7,0.1-1.4,0.2-2.1,0.4
						c-0.7,0.2-1.3,0.4-2,0.7c-0.6,0.3-1.2,0.6-1.8,1c-0.6,0.4-1.1,0.8-1.6,1.2c-1,0.8-1.7,1.8-2.4,2.7c-0.6,0.9-1.1,1.9-1.5,2.8
						c-0.7,1.8-0.9,3.4-1,4.5c-0.1,1.1,0,1.7-0.1,1.7c-0.1,0-0.2-0.6-0.3-1.7c-0.1-1.1,0-2.8,0.7-4.8c0.3-1,0.8-2,1.4-3
						c0.6-1,1.5-2,2.5-3c0.5-0.5,1.1-0.9,1.6-1.3c0.6-0.4,1.2-0.8,1.9-1.1c0.7-0.3,1.4-0.6,2.1-0.8c0.7-0.2,1.5-0.4,2.3-0.5
						c0.8-0.1,1.6-0.1,2.3-0.1c0.8,0,1.5,0.1,2.3,0.3c0.7,0.1,1.4,0.4,2.1,0.6c0.7,0.2,1.3,0.5,1.9,0.9c1.2,0.7,2.2,1.5,3.1,2.3
						c0.9,0.8,1.6,1.7,2.1,2.6c1.1,1.7,1.6,3.4,1.8,4.5C353.1,96.3,353.1,96.9,353,96.9z"/>
				</g>
			</g>
		</g>
	</g>
	<g>
		<g>
			<g>
				<g>
					<path class="st0" d="M341.4,106.8l0.2,2.4l-2.2,0.2l-0.2-2.4c-2.2,0.1-4.3-0.4-5.6-1.2l0.9-2.8c1.2,0.7,2.8,1.1,4.4,1.1
						l-0.4-3.6c-2.5-0.3-5.3-0.9-5.6-4c-0.2-2.3,1.2-4.5,4.6-5.2l-0.2-2.4l2.2-0.2l0.2,2.4c1.6,0,3.3,0.2,4.5,0.9l-0.8,2.8
						c-1.2-0.5-2.3-0.8-3.4-0.8l0.4,3.7c2.5,0.3,5.2,0.9,5.5,3.9C346.2,103.9,344.8,106,341.4,106.8z M338.2,97.4l-0.3-3.1
						c-1.1,0.4-1.5,1.1-1.4,1.8C336.6,96.9,337.3,97.2,338.2,97.4z M342.5,102.3c-0.1-0.8-0.7-1.1-1.7-1.3l0.3,3
						C342.2,103.6,342.6,103,342.5,102.3z"/>
				</g>
			</g>
		</g>
	</g>
</g>
<g>
	<g>
		<g>
			<g>
				<path class="st2" d="M569.8,262.2c-5.5,12-19.8,17.3-31.8,11.8c-12.1-5.5-17.4-19.8-11.9-31.8c5.5-12,19.8-17.3,31.8-11.8
					C570,235.9,575.3,250.2,569.8,262.2z"/>
			</g>
		</g>
		<g>
			<g>
				<path class="st1" d="M564.6,259.8c-4.2,9.2-15.1,13.2-24.3,9c-9.2-4.2-13.2-15.1-9-24.2c4.2-9.2,15.1-13.2,24.3-9
					C564.8,239.8,568.8,250.7,564.6,259.8z"/>
			</g>
		</g>
		<g>
			<g>
				<g>
					<path class="st0" d="M564.9,259.3c-0.1,0,0.2-0.8,0.5-2.2c0.3-1.4,0.6-3.5,0.4-6c-0.1-1.3-0.4-2.6-0.8-4
						c-0.5-1.4-1.1-2.9-2-4.3c-0.4-0.7-1-1.4-1.5-2c-0.6-0.7-1.2-1.3-1.9-1.9c-0.7-0.6-1.4-1.1-2.2-1.6c-0.8-0.5-1.6-0.9-2.5-1.3
						c-0.9-0.4-1.8-0.7-2.7-0.9c-0.9-0.2-1.8-0.4-2.7-0.4c-0.9-0.1-1.8-0.1-2.7,0c-0.9,0-1.7,0.2-2.5,0.3c-1.6,0.3-3.1,0.9-4.4,1.5
						c-1.3,0.7-2.5,1.4-3.5,2.2c-2,1.6-3.2,3.3-4,4.5c-0.8,1.2-1.1,1.9-1.2,1.9c-0.1,0,0.1-0.8,0.8-2.2c0.7-1.3,1.8-3.2,3.8-5
						c1-0.9,2.2-1.8,3.6-2.5c1.4-0.7,3-1.4,4.7-1.8c0.9-0.2,1.8-0.3,2.7-0.4c0.9-0.1,1.9-0.1,2.9,0c1,0.1,2,0.2,2.9,0.5
						c1,0.2,1.9,0.6,2.9,1c0.9,0.4,1.9,0.9,2.7,1.4c0.9,0.5,1.6,1.1,2.4,1.8c0.7,0.6,1.4,1.3,2,2c0.6,0.7,1.1,1.5,1.6,2.2
						c0.9,1.5,1.6,3.1,2,4.6c0.4,1.5,0.6,3,0.7,4.3c0.1,2.7-0.4,4.8-0.9,6.2C565.4,258.7,564.9,259.3,564.9,259.3z"/>
				</g>
			</g>
		</g>
	</g>
	<g>
		<g>
			<g>
				<g>
					<path class="st0" d="M545.3,263l-1.3,2.9l-2.6-1.1l1.3-2.8c-2.5-1.3-4.6-3.2-5.6-4.9l2.8-2.5c0.9,1.5,2.4,3.1,4.2,4.1l1.9-4.4
						c-2.6-2-5.4-4.4-3.7-8.1c1.2-2.8,4.3-4.2,8.6-2.9l1.3-2.9l2.6,1.1l-1.3,2.8c1.9,1,3.6,2.4,4.6,3.9l-2.7,2.6
						c-1-1.3-2.2-2.4-3.4-3.1l-2,4.4c2.6,2,5.3,4.3,3.7,8C552.6,262.8,549.6,264.3,545.3,263z M547.8,250.3l1.6-3.7
						c-1.5-0.3-2.4,0.2-2.8,1.1C546.2,248.6,546.8,249.5,547.8,250.3z M549.5,258.6c0.4-0.9-0.1-1.7-1.1-2.6l-1.6,3.6
						C548.2,259.8,549.1,259.4,549.5,258.6z"/>
				</g>
			</g>
		</g>
	</g>
</g>
<g>
	<g>
		<g>
			<g>
				<g>
					<g>
						<rect x="225.1" y="310.1" class="st1" width="23.6" height="115.6"/>
					</g>
				</g>
			</g>
			<g>
				<g>
					<g>
						<rect x="524.6" y="310.3" class="st1" width="23.6" height="115.6"/>
					</g>
				</g>
			</g>
			<g>
				<g>
					<g>
						<rect x="27.6" y="293.3" class="st1" width="23.6" height="132.4"/>
					</g>
				</g>
			</g>
			<g>
				<g>
					<g>
						<rect x="77" y="234.5" class="st1" width="23.6" height="191.2"/>
					</g>
				</g>
			</g>
			<g>
				<g>
					<g>
						<rect x="126.4" y="274.5" class="st1" width="23.6" height="151.2"/>
					</g>
				</g>
			</g>
			<g>
				<g>
					<g>
						<rect x="175.8" y="223.3" class="st1" width="23.6" height="202.3"/>
					</g>
				</g>
			</g>
			<g>
				<g>
					<g>
						<rect x="274.5" y="224.3" class="st1" width="23.6" height="201.4"/>
					</g>
				</g>
			</g>
			<g>
				<g>
					<g>
						<rect x="323.9" y="290.5" class="st1" width="23.6" height="135.2"/>
					</g>
				</g>
			</g>
			<g>
				<g>
					<g>
						<rect x="373.3" y="233.2" class="st1" width="23.6" height="192.5"/>
					</g>
				</g>
			</g>
			<g>
				<g>
					<g>
						<rect x="422.7" y="189.8" class="st1" width="23.6" height="235.8"/>
					</g>
				</g>
			</g>
			<g>
				<g>
					<g>
						<rect x="472.1" y="232.2" class="st1" width="23.6" height="193.5"/>
					</g>
				</g>
			</g>
		</g>
	</g>
</g>
<g>
	<g>
		<path class="st3" d="M570.5,425c0,0.1-126.9,0.2-283.4,0.2c-156.5,0-283.4-0.1-283.4-0.2s126.9-0.2,283.4-0.2
			C443.6,424.8,570.5,424.9,570.5,425z"/>
	</g>
</g>
<g>
	<g>
		<rect x="215.4" y="250.4" class="st4" width="104.8" height="174.6"/>
	</g>
	<g class="st5">
		<rect x="215.4" y="250.4" width="104.8" height="174.6"/>
	</g>
	<g>
		<rect x="237.2" y="250.4" class="st4" width="104.8" height="174.6"/>
	</g>
	<g>
		<g>
			<path class="st4" d="M236.8,336c0.1,0.1-4.6,3.9-10.5,8.4c-5.8,4.6-10.7,8.2-10.7,8.1c-0.1-0.1,4.6-3.9,10.5-8.4
				C232,339.5,236.8,335.9,236.8,336z"/>
		</g>
	</g>
	<g>
		<g>
			<path class="st4" d="M236.8,326.1c0.1,0.1-4.6,3.9-10.5,8.4c-5.8,4.6-10.7,8.2-10.7,8.1c-0.1-0.1,4.6-3.9,10.5-8.4
				C232,329.6,236.8,326,236.8,326.1z"/>
		</g>
	</g>
	<g>
		<g>
			<path class="st4" d="M236.8,316.3c0.1,0.1-4.6,3.9-10.5,8.4c-5.8,4.6-10.7,8.2-10.7,8.1c-0.1-0.1,4.6-3.9,10.5-8.4
				C232,319.8,236.8,316.2,236.8,316.3z"/>
		</g>
	</g>
	<g>
		<g>
			<path class="st4" d="M236.8,306.5c0.1,0.1-4.6,3.9-10.5,8.4c-5.8,4.6-10.7,8.2-10.7,8.1c-0.1-0.1,4.6-3.9,10.5-8.4
				C232,310,236.8,306.4,236.8,306.5z"/>
		</g>
	</g>
	<g>
		<g>
			<path class="st4" d="M236.8,296.6c0.1,0.1-4.6,3.9-10.5,8.4c-5.8,4.6-10.7,8.2-10.7,8.1c-0.1-0.1,4.6-3.9,10.5-8.4
				C232,300.1,236.8,296.5,236.8,296.6z"/>
		</g>
	</g>
	<g>
		<g>
			<path class="st4" d="M236.8,286.8c0.1,0.1-4.6,3.9-10.5,8.4c-5.8,4.6-10.7,8.2-10.7,8.1c-0.1-0.1,4.6-3.9,10.5-8.4
				C232,290.3,236.8,286.7,236.8,286.8z"/>
		</g>
	</g>
	<g>
		<g>
			<path class="st4" d="M236.8,276.9c0.1,0.1-4.6,3.9-10.5,8.4c-5.8,4.6-10.7,8.2-10.7,8.1c-0.1-0.1,4.6-3.9,10.5-8.4
				C232,280.4,236.8,276.8,236.8,276.9z"/>
		</g>
	</g>
	<g>
		<g>
			<path class="st4" d="M236.8,267.1c0.1,0.1-4.6,3.9-10.5,8.4c-5.8,4.6-10.7,8.2-10.7,8.1c-0.1-0.1,4.6-3.9,10.5-8.4
				C232,270.6,236.8,267,236.8,267.1z"/>
		</g>
	</g>
	<g>
		<g>
			<path class="st4" d="M236.8,257.2c0.1,0.1-4.6,3.9-10.5,8.4c-5.8,4.6-10.7,8.2-10.7,8.1c-0.1-0.1,4.6-3.9,10.5-8.4
				C232,260.8,236.8,257.2,236.8,257.2z"/>
		</g>
	</g>
	<g>
		<g>
			<path class="st4" d="M232.5,250.8c0.1,0.1-3.6,3.1-8.3,6.7c-4.7,3.6-8.5,6.5-8.6,6.4c-0.1-0.1,3.6-3.1,8.3-6.7
				C228.6,253.5,232.5,250.7,232.5,250.8z"/>
		</g>
	</g>
	<g>
		<g>
			<path class="st4" d="M220.1,250.6c0.1,0.1-0.9,1-2.1,1.9c-1.2,1-2.3,1.7-2.4,1.6c-0.1-0.1,0.9-1,2.1-1.9
				C219,251.2,220,250.5,220.1,250.6z"/>
		</g>
	</g>
	<g>
		<g>
			<path class="st4" d="M215.6,364.9c-0.1-0.1,4.6-3.9,10.5-8.4c5.8-4.6,10.7-8.2,10.7-8.1c0.1,0.1-4.6,3.9-10.5,8.4
				C220.5,361.4,215.7,365,215.6,364.9z"/>
		</g>
	</g>
	<g>
		<g>
			<path class="st4" d="M216.3,377.4c-0.1-0.1,4.6-3.9,10.5-8.4c5.8-4.6,10.7-8.2,10.7-8.1c0.1,0.1-4.6,3.9-10.5,8.4
				C221.1,373.9,216.3,377.5,216.3,377.4z"/>
		</g>
	</g>
	<g>
		<g>
			<path class="st4" d="M215.7,388.8c-0.1-0.1,4.6-3.9,10.5-8.4c5.8-4.6,10.7-8.2,10.7-8.1c0.1,0.1-4.6,3.9-10.5,8.4
				C220.5,385.3,215.7,388.9,215.7,388.8z"/>
		</g>
	</g>
	<g>
		<g>
			<path class="st4" d="M215.7,398.6c-0.1-0.1,4.6-3.9,10.5-8.4c5.8-4.6,10.7-8.2,10.7-8.1c0.1,0.1-4.6,3.9-10.5,8.4
				C220.5,395.1,215.7,398.7,215.7,398.6z"/>
		</g>
	</g>
	<g>
		<g>
			<path class="st4" d="M215.7,408.5c-0.1-0.1,4.6-3.9,10.5-8.4c5.8-4.6,10.7-8.2,10.7-8.1c0.1,0.1-4.6,3.9-10.5,8.4
				C220.5,405,215.7,408.6,215.7,408.5z"/>
		</g>
	</g>
	<g>
		<g>
			<path class="st4" d="M215.7,418.3c-0.1-0.1,4.6-3.9,10.5-8.4c5.8-4.6,10.7-8.2,10.7-8.1c0.1,0.1-4.6,3.9-10.5,8.4
				C220.5,414.8,215.7,418.4,215.7,418.3z"/>
		</g>
	</g>
	<g>
		<g>
			<path class="st4" d="M220,424.8c-0.1-0.1,3.6-3.1,8.3-6.7c4.7-3.6,8.5-6.5,8.6-6.4c0.1,0.1-3.6,3.1-8.3,6.7
				C223.9,422.1,220,424.9,220,424.8z"/>
		</g>
	</g>
	<g>
		<g>
			<path class="st4" d="M232.4,425c-0.1-0.1,0.9-1,2.1-1.9c1.2-1,2.3-1.7,2.4-1.6c0.1,0.1-0.9,1-2.1,1.9
				C233.5,424.4,232.5,425.1,232.4,425z"/>
		</g>
	</g>
</g>
<g>
	<g>
		<rect x="372.8" y="301.5" class="st4" width="92.3" height="123.4"/>
	</g>
	<g class="st5">
		<rect x="372.8" y="301.5" width="92.3" height="123.4"/>
	</g>
	<g>
		<rect x="391.3" y="301.5" class="st4" width="92.3" height="123.4"/>
	</g>
	<g>
		<g>
			<path class="st4" d="M391.3,376.7c0.1,0.1-4,3.4-9.1,7.4c-5.1,4-9.3,7.1-9.4,7c-0.1-0.1,4-3.4,9.1-7.4
				C387,379.8,391.2,376.6,391.3,376.7z"/>
		</g>
	</g>
	<g>
		<g>
			<path class="st4" d="M391.3,368.1c0.1,0.1-4,3.4-9.1,7.4c-5.1,4-9.3,7.1-9.4,7c-0.1-0.1,4-3.4,9.1-7.4
				C387,371.2,391.2,368,391.3,368.1z"/>
		</g>
	</g>
	<g>
		<g>
			<path class="st4" d="M391.3,359.5c0.1,0.1-4,3.4-9.1,7.4c-5.1,4-9.3,7.1-9.4,7c-0.1-0.1,4-3.4,9.1-7.4
				C387,362.6,391.2,359.4,391.3,359.5z"/>
		</g>
	</g>
	<g>
		<g>
			<path class="st4" d="M391.3,350.9c0.1,0.1-4,3.4-9.1,7.4c-5.1,4-9.3,7.1-9.4,7c-0.1-0.1,4-3.4,9.1-7.4
				C387,354,391.2,350.8,391.3,350.9z"/>
		</g>
	</g>
	<g>
		<g>
			<path class="st4" d="M391.3,342.3c0.1,0.1-4,3.4-9.1,7.4c-5.1,4-9.3,7.1-9.4,7c-0.1-0.1,4-3.4,9.1-7.4
				C387,345.3,391.2,342.2,391.3,342.3z"/>
		</g>
	</g>
	<g>
		<g>
			<path class="st4" d="M391.3,333.7c0.1,0.1-4,3.4-9.1,7.4c-5.1,4-9.3,7.1-9.4,7c-0.1-0.1,4-3.4,9.1-7.4
				C387,336.7,391.2,333.6,391.3,333.7z"/>
		</g>
	</g>
	<g>
		<g>
			<path class="st4" d="M391.3,325.1c0.1,0.1-4,3.4-9.1,7.4c-5.1,4-9.3,7.1-9.4,7c-0.1-0.1,4-3.4,9.1-7.4
				C387,328.1,391.2,325,391.3,325.1z"/>
		</g>
	</g>
	<g>
		<g>
			<path class="st4" d="M391.3,316.4c0.1,0.1-4,3.4-9.1,7.4c-5.1,4-9.3,7.1-9.4,7c-0.1-0.1,4-3.4,9.1-7.4
				C387,319.5,391.2,316.4,391.3,316.4z"/>
		</g>
	</g>
	<g>
		<g>
			<path class="st4" d="M391.3,307.8c0.1,0.1-4,3.4-9.1,7.4c-5.1,4-9.3,7.1-9.4,7c-0.1-0.1,4-3.4,9.1-7.4
				C387,310.9,391.2,307.7,391.3,307.8z"/>
		</g>
	</g>
	<g>
		<g>
			<path class="st4" d="M387.5,302.1c0.1,0.1-3.2,2.8-7.2,5.9c-4.1,3.2-7.5,5.7-7.5,5.6c-0.1-0.1,3.2-2.8,7.2-5.9
				C384.1,304.5,387.4,302.1,387.5,302.1z"/>
		</g>
	</g>
	<g>
		<g>
			<path class="st4" d="M376.7,302c0.1,0.1-0.7,0.9-1.8,1.7c-1.1,0.8-2,1.4-2.1,1.3c-0.1-0.1,0.7-0.9,1.8-1.7
				C375.6,302.5,376.6,301.9,376.7,302z"/>
		</g>
	</g>
	<g>
		<g>
			<path class="st4" d="M391.3,410.6c0.1,0.1-4,3.4-9.1,7.4c-5.1,4-9.3,7.1-9.4,7c-0.1-0.1,4-3.4,9.1-7.4
				C387,413.6,391.2,410.5,391.3,410.6z"/>
		</g>
	</g>
	<g>
		<g>
			<path class="st4" d="M391.3,402c0.1,0.1-4,3.4-9.1,7.4c-5.1,4-9.3,7.1-9.4,7c-0.1-0.1,4-3.4,9.1-7.4
				C387,405,391.2,401.9,391.3,402z"/>
		</g>
	</g>
	<g>
		<g>
			<path class="st4" d="M391.3,393.4c0.1,0.1-4,3.4-9.1,7.4c-5.1,4-9.3,7.1-9.4,7c-0.1-0.1,4-3.4,9.1-7.4
				C387,396.4,391.2,393.3,391.3,393.4z"/>
		</g>
	</g>
	<g>
		<g>
			<path class="st4" d="M391.3,384.8c0.1,0.1-4,3.4-9.1,7.4c-5.1,4-9.3,7.1-9.4,7c-0.1-0.1,4-3.4,9.1-7.4
				C387,387.8,391.2,384.7,391.3,384.8z"/>
		</g>
	</g>
</g>
<g>
	<g>
		<rect x="76.2" y="341" class="st4" width="98.9" height="84"/>
	</g>
	<g class="st5">
		<rect x="76.2" y="341" width="98.9" height="84"/>
	</g>
	<g>
		<rect x="94" y="341" class="st4" width="98.9" height="84"/>
	</g>
	<g>
		<g>
			<g>
				<path class="st4" d="M93.6,411.4c0.1,0.1-3.8,3.2-8.6,7c-4.8,3.8-8.8,6.7-8.9,6.6c-0.1-0.1,3.8-3.2,8.6-7
					C89.6,414.3,93.6,411.3,93.6,411.4z"/>
			</g>
		</g>
		<g>
			<g>
				<path class="st4" d="M93.6,403.3c0.1,0.1-3.8,3.2-8.6,7c-4.8,3.8-8.8,6.7-8.9,6.6c-0.1-0.1,3.8-3.2,8.6-7
					C89.6,406.2,93.6,403.2,93.6,403.3z"/>
			</g>
		</g>
		<g>
			<g>
				<path class="st4" d="M93.6,395.2c0.1,0.1-3.8,3.2-8.6,7c-4.8,3.8-8.8,6.7-8.9,6.6c-0.1-0.1,3.8-3.2,8.6-7
					C89.6,398,93.6,395.1,93.6,395.2z"/>
			</g>
		</g>
		<g>
			<g>
				<path class="st4" d="M93.6,387.1c0.1,0.1-3.8,3.2-8.6,7c-4.8,3.8-8.8,6.7-8.9,6.6c-0.1-0.1,3.8-3.2,8.6-7
					C89.6,389.9,93.6,387,93.6,387.1z"/>
			</g>
		</g>
		<g>
			<g>
				<path class="st4" d="M93.6,378.9c0.1,0.1-3.8,3.2-8.6,7c-4.8,3.8-8.8,6.7-8.9,6.6c-0.1-0.1,3.8-3.2,8.6-7
					C89.6,381.8,93.6,378.8,93.6,378.9z"/>
			</g>
		</g>
		<g>
			<g>
				<path class="st4" d="M93.6,370.8c0.1,0.1-3.8,3.2-8.6,7c-4.8,3.8-8.8,6.7-8.9,6.6c-0.1-0.1,3.8-3.2,8.6-7
					C89.6,373.7,93.6,370.7,93.6,370.8z"/>
			</g>
		</g>
		<g>
			<g>
				<path class="st4" d="M93.6,362.7c0.1,0.1-3.8,3.2-8.6,7c-4.8,3.8-8.8,6.7-8.9,6.6c-0.1-0.1,3.8-3.2,8.6-7
					C89.6,365.6,93.6,362.6,93.6,362.7z"/>
			</g>
		</g>
		<g>
			<g>
				<path class="st4" d="M93.6,354.6c0.1,0.1-3.8,3.2-8.6,7c-4.8,3.8-8.8,6.7-8.9,6.6c-0.1-0.1,3.8-3.2,8.6-7
					C89.6,357.5,93.6,354.5,93.6,354.6z"/>
			</g>
		</g>
		<g>
			<g>
				<path class="st4" d="M93.6,346.5c0.1,0.1-3.8,3.2-8.6,7c-4.8,3.8-8.8,6.7-8.9,6.6c-0.1-0.1,3.8-3.2,8.6-7
					C89.6,349.3,93.6,346.4,93.6,346.5z"/>
			</g>
		</g>
		<g>
			<g>
				<path class="st4" d="M90.1,341.1c0.1,0.1-3,2.6-6.8,5.6c-3.8,3-7,5.3-7.1,5.2c-0.1-0.1,3-2.6,6.8-5.6
					C86.8,343.4,90,341,90.1,341.1z"/>
			</g>
		</g>
		<g>
			<g>
				<path class="st4" d="M79.8,341c0.1,0.1-0.7,0.8-1.7,1.6c-1,0.8-1.9,1.4-2,1.3c-0.1-0.1,0.7-0.8,1.7-1.6
					C78.9,341.4,79.8,340.9,79.8,341z"/>
			</g>
		</g>
	</g>
</g>
<g>
	<g class="st5">
		<g>
			<path d="M325,243c-0.8-0.3-1.7-0.2-2.6-0.1c-26.6,2.9-56.1,5-82.7,7.9v0.3c17,4.9,34.9,7,52.6,6.1c1.7-0.1,3.6-0.1,4.7,1.1
				c1.2,1.3,0.9,3.4,0.5,5.2c-3.7,16.3-7.5,32.5-11.2,48.8c-0.6,2.6-1,5.7,1,7.4c2.8,2.3,6.8-0.4,9.2-3.2
				c15.8-18.8,23-43.2,29.8-66.8C327,247.3,327.3,243.9,325,243z"/>
		</g>
	</g>
	<g>
		<g>
			<g>
				<path class="st6" d="M358.9,235.1c-2.7-2.4-6.4-3.5-10-3.3l-6.1,19.5c4.5,0.2,9,2.5,13.3,1.3c3.5-1,6.1-4.2,6.6-7.8
					C363.2,241.2,361.6,237.5,358.9,235.1z"/>
			</g>
		</g>
		<g>
			<g>
				<g>
					<path class="st0" d="M349,231.3c0-0.2,0.7-0.3,1.9-0.3c1.2,0,2.9,0.2,5,0.9c2.1,0.8,4.4,2.3,6.1,4.7c0.9,1.2,1.6,2.6,2,4.2
						c0.4,1.6,0.5,3.4,0.2,5.1c-0.4,1.7-1.1,3.4-2.2,4.7c-1.1,1.3-2.5,2.2-4,2.7c-2.9,1.1-5.6,0.9-7.7,0.5c-2.1-0.4-3.7-1-4.8-1.5
						c-1.1-0.5-1.6-0.8-1.6-1c0-0.2,0.7-0.1,1.9,0.1c1.1,0.2,2.8,0.5,4.8,0.7c2,0.2,4.4,0.1,6.7-0.9c1.1-0.5,2.2-1.2,3-2.2
						c0.8-1,1.4-2.3,1.7-3.6c0.6-2.8-0.3-5.5-1.7-7.6c-1.4-2.1-3.3-3.6-5-4.5c-1.8-0.9-3.4-1.3-4.5-1.6
						C349.6,231.6,349,231.5,349,231.3z"/>
				</g>
			</g>
		</g>
		<g>
			<g>
				<g>
					<g>
						<g>
							<g>
								<g>
									<g>
										<g>
											<g>
												<g>
													<g>
														<path class="st6" d="M293.5,302.9l-12.4,34.6l43,15.6c1.2-4.2-18-20.5-18-20.5l8.8-21.9L293.5,302.9z"/>
													</g>
												</g>
											</g>
										</g>
									</g>
								</g>
							</g>
						</g>
					</g>
				</g>
				<g class="st7">
					<g>
						<g>
							<g>
								<g>
									<g>
										<g>
											<g>
												<g>
													<g>
														<g>
															<path class="st8" d="M293.5,325.9c-0.9-0.1-1.8,0.7-1.9,1.6s0.6,1.8,1.5,1.9c0.9,0.1,2-0.7,2-1.7
																c0-0.9-0.9-2-1.8-1.8"/>
														</g>
													</g>
												</g>
											</g>
										</g>
									</g>
								</g>
							</g>
						</g>
					</g>
				</g>
				<g>
					<g>
						<g>
							<g>
								<g>
									<g>
										<g>
											<g>
												<g>
													<g>
														<path class="st2" d="M281.1,337.5l1.2-3.5l40.8,16.3c0,0,1.6,1.5,0.9,2.8L281.1,337.5z"/>
													</g>
												</g>
											</g>
										</g>
									</g>
								</g>
							</g>
						</g>
					</g>
				</g>
				<g>
					<g>
						<g>
							<g>
								<g>
									<g>
										<g>
											<g>
												<g>
													<g>
														<g>
															<path class="st3" d="M306.9,332.6c-0.1,0.2-1.2-0.1-2.4,0.2c-1.3,0.3-2.1,1-2.3,0.8c-0.2-0.1,0.6-1.3,2.1-1.6
																C305.8,331.8,307,332.5,306.9,332.6z"/>
														</g>
													</g>
												</g>
											</g>
										</g>
									</g>
								</g>
							</g>
						</g>
					</g>
				</g>
				<g>
					<g>
						<g>
							<g>
								<g>
									<g>
										<g>
											<g>
												<g>
													<g>
														<g>
															<path class="st3" d="M310.7,336.1c0,0.2-1.1,0.2-2.1,0.9c-1.1,0.6-1.6,1.5-1.8,1.4c-0.2,0,0.1-1.3,1.4-2.1
																C309.5,335.6,310.8,335.9,310.7,336.1z"/>
														</g>
													</g>
												</g>
											</g>
										</g>
									</g>
								</g>
							</g>
						</g>
					</g>
				</g>
				<g>
					<g>
						<g>
							<g>
								<g>
									<g>
										<g>
											<g>
												<g>
													<g>
														<g>
															<path class="st3" d="M311.3,342.5c-0.2,0-0.1-1.2,0.8-2.1c0.9-1,2.1-1.1,2.1-0.8c0.1,0.2-0.8,0.6-1.6,1.4
																C311.9,341.7,311.5,342.5,311.3,342.5z"/>
														</g>
													</g>
												</g>
											</g>
										</g>
									</g>
								</g>
							</g>
						</g>
					</g>
				</g>
				<g>
					<g>
						<g>
							<g>
								<g>
									<g>
										<g>
											<g>
												<g>
													<g>
														<g>
															<path class="st3" d="M308.3,327.4c-0.2,0.2-1-0.5-2.2-0.8c-1.2-0.4-2.3-0.3-2.3-0.5c-0.1-0.2,1.1-0.6,2.5-0.2
																C307.8,326.3,308.5,327.3,308.3,327.4z"/>
														</g>
													</g>
												</g>
											</g>
										</g>
									</g>
								</g>
							</g>
						</g>
					</g>
				</g>
				<g>
					<g>
						<g>
							<g>
								<g>
									<g>
										<g>
											<g>
												<g>
													<g>
														<g>
															<path class="st3" d="M309.2,322c0,0.1-0.9-0.1-2.1-0.8c-0.6-0.4-1.3-0.9-2-1.5c-0.3-0.3-0.7-0.7-1-1.1
																c-0.2-0.2-0.3-0.4-0.5-0.7c-0.2-0.3-0.1-0.9,0.3-1.2c0.3-0.3,0.8-0.3,1.1-0.1c0.3,0.1,0.6,0.3,0.8,0.4
																c0.4,0.3,0.8,0.6,1.2,0.9c0.7,0.7,1.2,1.4,1.5,2c0.7,1.3,0.7,2.2,0.6,2.2c-0.1,0-0.4-0.8-1.1-1.9
																c-0.4-0.6-0.9-1.2-1.5-1.8c-0.3-0.3-0.7-0.6-1.1-0.8c-0.4-0.3-0.8-0.4-1-0.3c-0.1,0.1-0.1,0.1,0,0.3
																c0.1,0.2,0.2,0.3,0.3,0.5c0.3,0.4,0.6,0.7,0.9,1.1c0.6,0.6,1.2,1.2,1.8,1.6C308.4,321.5,309.2,321.9,309.2,322z"/>
														</g>
													</g>
												</g>
											</g>
										</g>
									</g>
								</g>
							</g>
						</g>
					</g>
				</g>
				<g>
					<g>
						<g>
							<g>
								<g>
									<g>
										<g>
											<g>
												<g>
													<g>
														<g>
															<path class="st3" d="M308.8,322.2c-0.1,0-0.2-0.9,0.2-2.3c0.2-0.7,0.6-1.5,1.1-2.3c0.3-0.4,0.6-0.8,1-1.1
																c0.4-0.3,0.9-0.8,1.8-0.6c0.4,0.1,0.7,0.6,0.7,0.9c0,0.3,0,0.6-0.1,0.9c-0.1,0.5-0.3,1-0.5,1.5
																c-0.5,0.9-1.1,1.5-1.7,1.9c-1.2,0.8-2.2,0.7-2.2,0.7c0-0.1,0.8-0.3,1.9-1.1c0.5-0.4,1-1,1.4-1.8
																c0.2-0.4,0.3-0.8,0.4-1.3c0.1-0.5,0.1-0.9-0.1-0.9c-0.2-0.1-0.7,0.1-1,0.4c-0.4,0.3-0.7,0.6-1,1
																c-0.6,0.7-0.9,1.4-1.2,2C309,321.3,308.9,322.2,308.8,322.2z"/>
														</g>
													</g>
												</g>
											</g>
										</g>
									</g>
								</g>
							</g>
						</g>
					</g>
				</g>
			</g>
		</g>
		<g>
			<g>
				<path class="st3" d="M247.2,204.6c-7,0.2-13.7,1.2-18.6,6.3c-6.4,6.8-14.4,16.4-14.8,23.1c-0.7,10,5.4,13,9.8,15.4
					c1.9,1.1,4.2,1.6,6.4,1.5l81.4-0.6l2.6-13.8l-52.6-13l2.2-19.8L247.2,204.6z"/>
			</g>
		</g>
		<g>
			<g>
				<path class="st3" d="M263.5,203.7l25.6-1.2c0,0,44.2,2.5,53.6,11.1c9.4,8.6,8.3,18.5,5.1,27.9c-3.1,9.4-30.8,69.7-30.8,69.7
					s2.2,3.8,1,7.7c-2,5.9-7.2,6.9-7.2,6.9l-24.6-9c0,0-3.3-1.2-1-4.3c2.4-3.1,3.9-3.7,3.9-3.7v-6.3c0,0,8.6-15.7,9.4-17.9
					c0.8-2.2,9.1-34.1,9.1-34.1l5.5-9.5c0,0-13.3-6.3-24.8-10.8l-26.9-6.6L263.5,203.7z"/>
			</g>
		</g>
		<g>
			<g>
				<g>
					<path class="st4" d="M305,315.6c0,0.1-0.8-0.6-2.2-1.4c-1.3-0.9-3.3-1.9-5.5-2.8c-2.3-0.9-4.4-1.3-6-1.6
						c-1.6-0.2-2.6-0.3-2.6-0.4c0-0.1,1-0.1,2.6,0c1.6,0.2,3.8,0.6,6.1,1.5c2.3,0.9,4.2,2,5.5,3C304.3,314.8,305,315.5,305,315.6z"
						/>
				</g>
			</g>
		</g>
		<g>
			<g>
				<g>
					<path class="st4" d="M317.3,311.3c0,0-0.6-0.5-1.4-1.5c-0.8-1-1.9-2.4-3.1-3.9c-1.2-1.6-2.1-3-2.8-4.1c-0.7-1.1-1.1-1.8-1-1.8
						c0.1,0,0.5,0.6,1.3,1.6c0.9,1.2,1.8,2.5,2.9,4c1.1,1.5,2.1,2.8,3,4C316.9,310.6,317.3,311.2,317.3,311.3z"/>
				</g>
			</g>
		</g>
		<g>
			<g>
				<g>
					<path class="st4" d="M326.3,232.3c0,0.1-0.9,0.3-2.3,0.7c-1.4,0.5-3.4,1.3-5.3,2.5c-1.9,1.2-3.5,2.6-4.6,3.7
						c-1.1,1.1-1.6,1.8-1.7,1.8c0,0,0.4-0.8,1.4-2c1-1.2,2.6-2.6,4.6-3.8c2-1.2,4-2,5.4-2.4C325.3,232.3,326.3,232.2,326.3,232.3z"
						/>
				</g>
			</g>
		</g>
		<g>
			<g>
				<g>
					<path class="st4" d="M301.1,275c0,0,0-0.2,0.1-0.5c0.1-0.4,0.2-0.9,0.4-1.5c0.4-1.4,0.9-3.2,1.5-5.5c1.3-4.7,3.1-11,5-18.1
						c1-3.5,1.9-6.9,2.9-9.9c1.1-3,3-5.3,4.6-7.1c1.7-1.7,3.3-2.9,4.4-3.6c0.6-0.4,1-0.6,1.3-0.8c0.3-0.2,0.5-0.3,0.5-0.2
						c0,0-0.6,0.4-1.7,1.2c-1.1,0.8-2.6,2-4.3,3.7c-1.6,1.7-3.4,4-4.5,7c-0.9,3-1.8,6.4-2.8,9.9c-2,7-3.8,13.4-5.2,18
						c-0.7,2.3-1.2,4.1-1.6,5.4c-0.2,0.6-0.3,1.1-0.5,1.5C301.2,274.8,301.1,275,301.1,275z"/>
				</g>
			</g>
		</g>
		<g>
			<g>
				<g>
					<path class="st4" d="M278.5,228.9c-0.1,0-0.7-4.8-1.2-10.7c-0.5-5.9-0.9-10.7-0.7-10.7c0.1,0,0.7,4.8,1.2,10.7
						C278.3,224.1,278.6,228.9,278.5,228.9z"/>
				</g>
			</g>
		</g>
		<g>
			<g>
				<g>
					<path class="st4" d="M235.9,241.7c-0.1,0-0.5-0.7-1.3-1.9c-0.8-1.1-2.1-2.6-3.7-3.9c-1.7-1.3-3.4-2.2-4.7-2.7
						c-1.3-0.5-2.1-0.7-2.1-0.8c0,0,0.9,0,2.2,0.5c1.3,0.4,3.2,1.3,4.9,2.6c1.7,1.3,3,2.9,3.7,4.1
						C235.6,240.8,235.9,241.6,235.9,241.7z"/>
				</g>
			</g>
		</g>
		<g>
			<g>
				<g>
					<path class="st4" d="M251.6,224.3c0,0.1-1.1-0.6-3-1.5c-1.9-0.9-4.6-1.8-7.7-2.3c-3.1-0.4-6-0.3-8,0c-2,0.3-3.3,0.7-3.3,0.6
						c0,0,0.3-0.1,0.8-0.3c0.6-0.2,1.4-0.4,2.4-0.6c2.1-0.4,5-0.6,8.1-0.1c3.2,0.5,5.9,1.5,7.8,2.4c0.9,0.5,1.7,0.9,2.1,1.2
						C251.3,224.1,251.6,224.3,251.6,224.3z"/>
				</g>
			</g>
		</g>
		<g>
			<g>
				<g>
					<path class="st4" d="M312.8,236.4c0,0-0.2,0-0.6-0.1c-0.5-0.1-1.1-0.2-1.8-0.4c-1.6-0.4-3.9-0.9-6.6-1.5
						c-5.6-1.3-13.3-2.9-21.9-4.6c-8.6-1.7-16.4-3.1-22-4.1c-2.8-0.5-5.1-0.9-6.7-1.1c-0.8-0.1-1.4-0.2-1.8-0.3
						c-0.4-0.1-0.6-0.1-0.6-0.1c0,0,0.2,0,0.6,0.1c0.5,0.1,1.1,0.1,1.8,0.2c1.6,0.2,3.9,0.6,6.7,1c5.7,0.9,13.5,2.2,22.1,3.9
						c8.6,1.7,16.3,3.4,21.9,4.8c2.8,0.7,5,1.2,6.6,1.6c0.7,0.2,1.3,0.4,1.8,0.5C312.6,236.3,312.8,236.4,312.8,236.4z"/>
				</g>
			</g>
		</g>
		<g>
			<g>
				<g>
					<path class="st4" d="M261.3,225.8c-0.1,0-0.3-1.1-1.1-2.6c-0.4-0.8-1-1.6-1.9-2.4c-0.8-0.8-1.8-1.6-2.8-2.5
						c-2.1-1.6-4.3-2.8-5.8-3.6c-1.6-0.8-2.5-1.4-2.5-1.4c0-0.1,1,0.4,2.6,1.1c1.6,0.8,3.8,1.9,6,3.5c1.1,0.8,2.1,1.7,2.9,2.5
						c0.8,0.9,1.4,1.7,1.8,2.6c0.4,0.8,0.6,1.5,0.7,2C261.3,225.5,261.3,225.8,261.3,225.8z"/>
				</g>
			</g>
		</g>
		<g>
			<g>
				<g>
					<path class="st3" d="M351.9,238.1c0.1,0.1-1.3,1.5-2.3,3.6c-1.1,2.1-1.4,4-1.5,4c-0.1,0,0-2,1.1-4.2
						C350.3,239.3,351.8,238,351.9,238.1z"/>
				</g>
			</g>
		</g>
	</g>
	<g>
		<g>
			<g>
				<path class="st3" d="M417.7,120.4c0,0,0,0-0.1,0.1c-0.1,0.1-0.1,0.2-0.2,0.3c-0.2,0.3-0.6,0.8-1,1.3c-0.9,1.2-2.1,2.8-3.7,5
					c-3.2,4.3-7.8,10.4-13.2,17.6l-0.1,0.2l-0.2-0.1c-3.5-2.5-7.4-5.2-11.5-8.1l0.3,0c-2.7,3.7-5.7,7.6-8.7,11.7
					c-3.3,4.4-6.4,8.7-9.4,12.7l-0.1,0.2l-0.2-0.1c-5.1-3-9.8-5.8-14.1-8.3l0.2,0c-5.1,6.3-9.2,11.5-12.2,15.2
					c-1.5,1.8-2.6,3.2-3.4,4.2c-0.4,0.5-0.7,0.8-0.9,1.1c-0.2,0.2-0.3,0.4-0.3,0.4c0,0,0.1-0.1,0.3-0.4c0.2-0.3,0.5-0.7,0.9-1.1
					c0.8-1,1.9-2.5,3.3-4.3c2.9-3.7,7.1-9,12.1-15.3l0.1-0.1l0.1,0.1c4.3,2.5,9.1,5.3,14.2,8.2l-0.3,0.1c3-4,6.1-8.3,9.4-12.7
					c3-4.1,5.9-8,8.7-11.7l0.1-0.2l0.2,0.1c4.1,2.9,8,5.7,11.5,8.2l-0.3,0c5.5-7.2,10.1-13.3,13.3-17.5c1.6-2.1,2.9-3.7,3.8-4.9
					c0.4-0.5,0.8-1,1-1.3c0.1-0.1,0.2-0.2,0.3-0.3C417.7,120.5,417.7,120.4,417.7,120.4z"/>
			</g>
		</g>
		<g>
			<g>
				<path class="st3" d="M416.5,133.3c0,0,0-0.4,0-1c0.1-0.7,0.1-1.7,0.2-2.8c0.2-2.3,0.5-5.5,0.8-9.1l0-0.1l0.3,0.2
					c-3.3,1.2-6.4,2.3-8.6,3c-1,0.3-1.9,0.6-2.6,0.9c-0.6,0.2-1,0.3-1,0.3c0,0,0.3-0.2,0.9-0.4c0.7-0.3,1.6-0.6,2.6-1
					c2.2-0.8,5.2-1.9,8.5-3.1l0.3-0.1l0,0.4l0,0.1c-0.3,3.5-0.7,6.8-0.9,9.1c-0.1,1.1-0.2,2-0.3,2.7
					C416.6,133,416.5,133.3,416.5,133.3z"/>
			</g>
		</g>
	</g>
	<g>
		<g>
			<g>
				<g>
					<g>
						<path class="st9" d="M316.6,171.2c-0.4-2.7-8.4-11.5-8.4-11.5s-6.9-16.9-8.1-21.6c-0.3-1.2-2.5-7.4-3.3-8.7
							c-2.8-4.7-4.2-4.8-8.9-7.5l-9.2-4.1l-1.1-2.5c-1-2.2-2.7-3.9-4.8-5l-23.2-11.9l-7.2,12.7c0,0-13.8,6.5-14.6,7.5
							c-2.8,3.6-0.9,61.5-0.9,61.5s-1.4,22.5-2.9,28.9c-1.5,6.3-2.4,11-2.4,11l6.9-7.9c4-5.1,12.9-7.4,19.2-7.3l54.3,0.2l-3.3-16.2
							l45.1,9.5c0,0,7.6-14.7,8.2-15C352.7,182.9,316.6,171.2,316.6,171.2z"/>
					</g>
				</g>
				<g>
					<g>
						<path class="st8" d="M248.5,115.9c-0.4-0.4,4.3,10.9,7.4,23.1c1.9,7.6,2.3,20.1,2.3,26.9l1.2,19.3v16.9l26.1-1.8l-3.9-28.3
							c0,0-3.2-18.3-4.1-25.2c-0.8-6.4-4.7-31.9-4.7-31.9S259.4,127,248.5,115.9z"/>
					</g>
				</g>
				<g>
					<g>
						<g>
							<path class="st3" d="M306.3,181.9c0,0,0-0.2,0-0.7c0-0.4,0.1-1,0.3-1.8c0.4-1.4,1.3-3.4,3-5.1c1.6-1.7,3.6-2.6,5.1-3
								c0.7-0.2,1.3-0.3,1.8-0.3c0.4,0,0.7,0,0.7,0c0,0.1-0.9,0.2-2.3,0.7c-1.4,0.5-3.2,1.4-4.8,3c-1.6,1.6-2.5,3.4-3,4.8
								C306.5,180.9,306.4,181.9,306.3,181.9z"/>
						</g>
					</g>
				</g>
				<g>
					<g>
						<g>
							<path class="st3" d="M307.7,171.5c-0.1-0.1,1.7-1,4-1.2c2.3-0.2,4.2,0.4,4.1,0.5c0,0.1-1.8-0.2-4.1,0
								C309.5,171,307.7,171.7,307.7,171.5z"/>
						</g>
					</g>
				</g>
				<g>
					<g>
						<path class="st9" d="M228.6,118c0,0-11.3,4.1-14.7,17.7c-2.4,9.9-12.9,50.6-10.7,56.7c2.1,6.1,43.9,12,43.9,12l4.9-20.9
							l-21.2-5.8c0,0,0.3-19.3,0.5-27.4C231.7,142.3,228.6,118,228.6,118z"/>
					</g>
				</g>
				<g>
					<g>
						<polygon class="st8" points="251.5,186.4 259,188.3 254.6,204.4 247.3,204.1 						"/>
					</g>
				</g>
				<g>
					<g>
						<g>
							<path class="st10" d="M302.7,200.4l-6.7-7.1l-13.8-3.5c0,0-12.6,3.8-12.9,3.8c-0.3,0-11-2.9-11-2.9l-3.7,13.7l19.3,1.3
								l22-0.9c0,0,1.1-1.1,0.5-1.8c-0.7-0.7,3.7,1.2,4.2,1.3c0.5,0,1.5,0.4,2.2-0.4C303.1,203.2,303.7,201.4,302.7,200.4z"/>
						</g>
					</g>
					<g>
						<g>
							<g>
								<path class="st11" d="M296.3,202.9c0,0.1-0.9-0.2-2.2-0.6c-1.3-0.4-3.2-1-5.3-1.5c-2.1-0.5-4-0.9-5.3-1.2
									c-1.4-0.3-2.2-0.4-2.2-0.5c0-0.1,0.9,0,2.3,0.2c1.4,0.2,3.3,0.5,5.4,1.1c2.1,0.5,3.9,1.2,5.2,1.7
									C295.5,202.5,296.3,202.9,296.3,202.9z"/>
							</g>
						</g>
					</g>
					<g>
						<g>
							<g>
								<path class="st11" d="M302.7,200.4c0,0.1-1.2-0.4-3.1-1c-1.9-0.6-4.5-1.4-7.4-2.2c-2.9-0.9-5.5-1.7-7.5-1.8
									c-2-0.2-3.2,0.2-3.2,0.1c0,0,0.3-0.1,0.8-0.3c0.5-0.1,1.4-0.2,2.4-0.2c2,0,4.7,0.9,7.6,1.7c2.9,0.8,5.5,1.6,7.4,2.4
									c0.9,0.4,1.7,0.7,2.2,0.9C302.4,200.2,302.7,200.3,302.7,200.4z"/>
							</g>
						</g>
					</g>
				</g>
				<g>
					<g>
						<g>
							<path class="st3" d="M203.1,190.2c0,0,0,0.3,0.1,1c0.1,0.6,0.5,1.5,1.5,2.4c1.8,1.7,5.3,3.1,9.7,3.9l0,0l0,0
								c2,0.7,4.3,1.2,6.7,1.7c2.5,0.5,5.1,1.1,7.9,1.7c5.6,1.1,11.7,2.3,18.2,3.6l-0.3,0.2c0.5-1.9,1-4,1.5-6.1
								c1.2-4.8,2.3-9.4,3.4-13.8l0.2,0.3c-7-2-13.4-3.8-18.9-5.4l0,0l0,0c-2.9-1.2-5.7-1.6-8.2-1.4c-2.5,0.1-4.6,0.8-6.2,1.5
								c-1.6,0.7-2.8,1.5-3.6,2c-0.4,0.3-0.6,0.5-0.9,0.6c-0.2,0.1-0.3,0.2-0.3,0.2c0,0,0.1-0.1,0.3-0.2c0.2-0.2,0.5-0.4,0.8-0.7
								c0.8-0.6,1.9-1.3,3.5-2.1c1.6-0.7,3.7-1.4,6.3-1.6c2.5-0.2,5.4,0.2,8.4,1.4l0,0c5.4,1.5,11.9,3.3,18.9,5.3l0.2,0.1l-0.1,0.2
								c-1.1,4.4-2.2,9-3.4,13.8c-0.5,2.1-1,4.1-1.5,6.1l-0.1,0.2l-0.2,0c-6.5-1.2-12.7-2.4-18.2-3.6c-2.8-0.6-5.4-1.2-7.9-1.7
								c-2.5-0.6-4.7-1.1-6.8-1.8l0,0c-4.4-0.8-7.9-2.3-9.8-4.1c-0.9-0.9-1.3-1.8-1.4-2.5C203,190.5,203.1,190.2,203.1,190.2z"/>
						</g>
					</g>
				</g>
				<g>
					<g>
						<g>
							<path class="st3" d="M232,179c-0.1,0.1-0.8-0.6-2-1.4c-1.3-0.9-3.2-1.9-5.4-2.5c-2.2-0.6-4.4-0.8-5.9-0.8
								c-1.5,0-2.5,0.2-2.5,0.1c0,0,0.9-0.3,2.5-0.5c1.6-0.1,3.8,0,6.1,0.6c2.3,0.7,4.2,1.8,5.5,2.7C231.4,178.3,232.1,179,232,179z
								"/>
						</g>
					</g>
				</g>
				<g>
					<g>
						<g>
							<path class="st3" d="M234.8,145c0,0,0,0.5,0,1.3c0,0.8-0.1,2-0.2,3.5c-0.2,2.9-0.7,6.9-1.4,11.4c-0.7,4.4-1.7,8.4-2.6,11.1
								c-0.2,0.7-0.5,1.3-0.7,1.9c-0.2,0.5-0.4,1-0.6,1.4c-0.4,0.7-0.6,1.1-0.7,1.1c0,0,0.1-0.4,0.5-1.2c0.2-0.4,0.3-0.9,0.5-1.4
								c0.2-0.6,0.4-1.2,0.6-1.9c0.8-2.8,1.7-6.7,2.5-11.1c0.8-4.4,1.2-8.4,1.6-11.3c0.1-1.4,0.3-2.5,0.4-3.4
								C234.7,145.5,234.8,145,234.8,145z"/>
						</g>
					</g>
				</g>
				<g>
					<g>
						<g>
							<path class="st3" d="M254,135.2c0,0-0.1-0.2-0.3-0.7c-0.2-0.4-0.6-1-1.4-1.5c-0.7-0.5-1.8-0.8-2.9-0.4
								c-1.1,0.4-2.2,1.4-2.5,2.8l-0.1,0.6l-0.3-0.6c-1-2.1-1.9-4.4-2.8-7c-1.5-4.7-2.2-9.1-2-12.4c0-0.8,0.1-1.5,0.2-2.2
								c0.1-0.6,0.2-1.2,0.3-1.6c0.2-0.9,0.4-1.3,0.4-1.3c0.1,0-0.5,1.9-0.5,5.1c-0.1,3.2,0.6,7.6,2.2,12.2c0.8,2.6,1.8,4.9,2.7,7
								l-0.4,0c0.3-1.6,1.6-2.7,2.8-3.1c1.3-0.4,2.5,0,3.2,0.6c0.8,0.5,1.1,1.2,1.3,1.6c0.1,0.2,0.1,0.4,0.2,0.5
								C254,135.1,254,135.2,254,135.2z"/>
						</g>
					</g>
				</g>
				<g>
					<g>
						<g>
							<path class="st3" d="M276.5,137.2c0,0-0.1-0.4-0.2-1.1c-0.1-0.7-0.3-1.7-0.2-3c0.2-1.3,0.8-2.9,2.1-4c0.7-0.6,1.5-1,2.5-0.9
								c0.9,0,2,0.4,2.6,1.2l-0.4,0.2c-0.3-0.7-0.5-1.4-0.8-2.2c-1.6-4.3-3-8.2-4-11c-0.5-1.3-0.9-2.5-1.2-3.3
								c-0.3-0.8-0.4-1.2-0.4-1.2c0,0,0.2,0.4,0.5,1.2c0.3,0.9,0.8,2,1.3,3.3c1.1,2.8,2.6,6.6,4.2,10.9c0.3,0.7,0.6,1.5,0.8,2.2
								l0.5,1.4l-0.9-1.2c-0.6-0.7-1.4-1.1-2.3-1.1c-0.8,0-1.6,0.3-2.2,0.8c-1.2,1-1.8,2.5-2,3.7c-0.2,1.2,0,2.3,0,3
								C276.5,136.8,276.5,137.2,276.5,137.2z"/>
						</g>
					</g>
				</g>
				<g>
					<g>
						<g>
							<path class="st3" d="M291.9,139.5c0.1,0,2.1,12.7,4.3,28.4c2.3,15.7,4,28.4,3.9,28.4c-0.1,0-2.1-12.7-4.3-28.4
								C293.5,152.2,291.8,139.5,291.9,139.5z"/>
						</g>
					</g>
				</g>
				<g class="st5">
					<g>
						<g>
							<path d="M243.9,128.6c0.1,3.5,0.9,7,2.3,10.2c1-1.2,2.1-2.5,3.6-2.9c1.9-0.4,3.8,0.7,5.1,2.1c-0.3-1.4-0.8-2.8-1.6-3.9
								c-0.9-1.1-2.2-1.9-3.6-1.9c-1.4,0-2.8,1.1-3,2.5l-2.6-6.1"/>
						</g>
					</g>
				</g>
				<g>
					<g>
						<g>
							<path class="st3" d="M234.7,134.1c-0.1,0-0.1-1-0.3-2.4c-0.3-1.5-0.9-3.5-2.2-5.4c-0.6-0.9-1.4-1.8-2.1-2.5
								c-0.7-0.7-1.4-1.2-2.1-1.6c-1.3-0.8-2.2-1.1-2.1-1.2c0,0,0.2,0,0.7,0.2c0.2,0.1,0.5,0.2,0.7,0.3c0.3,0.1,0.6,0.3,0.9,0.5
								c0.7,0.4,1.4,0.9,2.2,1.6c0.8,0.7,1.5,1.5,2.2,2.5c1.3,2,2,4.1,2.1,5.6c0.1,0.8,0.1,1.4,0.1,1.8
								C234.8,133.9,234.8,134.1,234.7,134.1z"/>
						</g>
					</g>
				</g>
			</g>
		</g>
		<g class="st5">
			<g>
				<g>
					<path d="M292.7,145.1l5.8,41l0.3,0.7C300.2,172.7,298.1,158.3,292.7,145.1z"/>
				</g>
			</g>
		</g>
		<g>
			<g>
				<g>
					<path class="st0" d="M325,168.7l-18.9,33.1l-46.7,1l-0.1,2.1l45.2-0.3l1.4,0l47.7,0.1l9.6-16.6l12.3-17.6
						c0.8-1.2,0-2.7-1.4-2.7l-47.6,0.2C325.9,167.8,325.3,168.2,325,168.7z"/>
				</g>
			</g>
			<g>
				<g>
					<g>
						<path class="st10" d="M363.3,188c0,0,2.5,2.2,2.1,4.2c-0.4,1.9-0.3,3.3-2.1,3.5c0,0,0.1,2.5-2.5,2.8c0,0,0.6,3-2.9,3.5
							c0,0-1.1,3.2-3.3,2.4s-3.6-1.7-3.6-1.7l-0.6-1.2c0,0-3.2-1.2-2.4-3c0.5-1.1,2.2-1.4,2.2-1.4s-0.7-1.6,0.2-2.8
							c0.8-1,3.3-0.2,3.3-0.2s-0.1-1.3,0.8-2.5c0.9-1,4.9,1.7,4.9,1.7l2.2-2.6L363.3,188z"/>
					</g>
				</g>
				<g>
					<g>
						<g>
							<path class="st11" d="M357.9,202c-0.1,0.1-1.9-0.9-4-2.2c-2.2-1.3-3.8-2.5-3.8-2.6c0.1-0.1,1.9,0.9,4,2.2
								C356.3,200.7,357.9,201.9,357.9,202z"/>
						</g>
					</g>
				</g>
				<g>
					<g>
						<g>
							<path class="st11" d="M360.8,198.5c-0.1,0.1-1.7-0.8-3.7-2c-2-1.2-3.6-2.3-3.5-2.4c0.1-0.1,1.7,0.8,3.7,2
								C359.3,197.3,360.9,198.4,360.8,198.5z"/>
						</g>
					</g>
				</g>
				<g>
					<g>
						<g>
							<path class="st11" d="M356.8,191.9c0.1-0.1,1.6,0.7,3.3,1.8c1.7,1.1,3.1,2,3.1,2.1c-0.1,0.2-1.6-0.6-3.4-1.7
								C358.1,193,356.8,192,356.8,191.9z"/>
						</g>
					</g>
				</g>
			</g>
			<g>
				<g>
					<g>
						<path class="st3" d="M375.6,168.9c0,0-0.1,0-0.2,0c-0.2,0-0.4,0-0.7,0c-0.6,0-1.5,0-2.6,0c-2.3,0-5.5,0-9.5,0.1
							c-8,0-19.1,0-31.3,0.1c-0.8,0-1.5,0-2.3,0c-0.7-0.1-1.4,0.3-1.7,0.8c-0.7,1.3-1.4,2.6-2.1,3.8c-1.4,2.5-2.7,4.9-4,7.3
							c-2.6,4.6-4.9,8.8-6.8,12.3c-1.9,3.5-3.5,6.3-4.6,8.3c-0.5,0.9-1,1.7-1.3,2.2c-0.1,0.2-0.3,0.4-0.3,0.6
							c-0.1,0.1-0.1,0.2-0.1,0.2c0,0,0-0.1,0.1-0.2c0.1-0.2,0.2-0.4,0.3-0.6c0.3-0.6,0.7-1.3,1.2-2.3c1.1-2,2.6-4.8,4.5-8.3
							c1.9-3.5,4.2-7.7,6.7-12.3c1.3-2.3,2.6-4.8,4-7.3c0.7-1.3,1.4-2.6,2.1-3.9c0.4-0.7,1.3-1.1,2.1-1c0.8,0,1.5,0,2.3,0
							c12.2,0,23.2,0.1,31.3,0.1c4,0,7.2,0.1,9.5,0.1c1.1,0,1.9,0,2.6,0c0.3,0,0.5,0,0.7,0C375.5,168.9,375.6,168.9,375.6,168.9z"/>
					</g>
				</g>
			</g>
			<g>
				<g>
					<path class="st8" d="M342,185.5c-0.8,0.9-0.9,2.3,0,3c0.8,0.7,2.2,0.6,3-0.4c0.8-0.9,0.9-2.3,0-3
						C344.2,184.5,342.9,184.6,342,185.5z"/>
				</g>
			</g>
		</g>
	</g>
	<g>
		<g>
			<g>
				<g>
					<g>
						<path class="st10" d="M273.3,113.2l-0.3-7.5c0,0,10-2.2,9.5-12.3c-0.2-4.9-1.5-14.9-2.8-23.9c-1.4-9.7-10-16.7-19.8-16.1
							l-1,0.1c-10.4,1.3-15.2,10.8-13.7,21.2l2.4,39.7c0.4,6.9,6.3,12.2,13.2,12l0,0C268,126.2,273.6,120.3,273.3,113.2z"/>
					</g>
				</g>
				<g>
					<g>
						<g>
							<g>
								<path class="st11" d="M273,105.7c0,0-6.3,0.8-13.4-3.1c0,0,3.4,7.1,13.4,5.6L273,105.7z"/>
							</g>
						</g>
					</g>
				</g>
				<g>
					<g>
						<g>
							<g>
								<g>
									<g>
										<g>
											<path class="st3" d="M278.4,79c0.1,0.8-0.5,1.4-1.3,1.5c-0.8,0.1-1.5-0.4-1.6-1.2c-0.1-0.8,0.5-1.4,1.3-1.5
												C277.7,77.7,278.4,78.3,278.4,79z"/>
										</g>
									</g>
								</g>
							</g>
						</g>
					</g>
				</g>
				<g>
					<g>
						<g>
							<g>
								<g>
									<g>
										<g>
											<g>
												<path class="st3" d="M277.8,74.6c-0.2,0.2-1.3-0.5-2.9-0.4c-1.5,0.1-2.6,0.9-2.8,0.8c-0.1-0.1,0.1-0.4,0.5-0.8
													c0.5-0.4,1.3-0.8,2.2-0.8c1-0.1,1.8,0.3,2.3,0.6C277.7,74.2,277.9,74.5,277.8,74.6z"/>
											</g>
										</g>
									</g>
								</g>
							</g>
						</g>
					</g>
				</g>
				<g>
					<g>
						<g>
							<g>
								<g>
									<g>
										<g>
											<path class="st3" d="M263.3,79.6c0.1,0.8-0.5,1.4-1.3,1.5c-0.8,0.1-1.5-0.4-1.6-1.2c-0.1-0.8,0.5-1.4,1.3-1.5
												C262.6,78.3,263.3,78.9,263.3,79.6z"/>
										</g>
									</g>
								</g>
							</g>
						</g>
					</g>
				</g>
				<g>
					<g>
						<g>
							<g>
								<g>
									<g>
										<g>
											<g>
												<path class="st3" d="M262.6,75.8c-0.2,0.2-1.3-0.5-2.9-0.4c-1.5,0.1-2.6,0.9-2.8,0.8c-0.1-0.1,0.1-0.4,0.5-0.8
													c0.5-0.4,1.3-0.8,2.2-0.8c1-0.1,1.8,0.3,2.3,0.6C262.5,75.4,262.7,75.7,262.6,75.8z"/>
											</g>
										</g>
									</g>
								</g>
							</g>
						</g>
					</g>
				</g>
				<g>
					<g>
						<g>
							<g>
								<g>
									<g>
										<g>
											<path class="st3" d="M269,87c0-0.1,0.9-0.3,2.5-0.6c0.4-0.1,0.8-0.2,0.8-0.4c0.1-0.3-0.1-0.7-0.3-1.2
												c-0.4-0.9-0.9-1.9-1.4-2.9c-1.9-4.2-3.3-7.6-3.1-7.7c0.2-0.1,1.8,3.3,3.7,7.4c0.5,1,0.9,2,1.3,3c0.2,0.4,0.5,0.9,0.3,1.5
												c-0.1,0.3-0.4,0.5-0.6,0.6c-0.2,0.1-0.5,0.1-0.7,0.1C269.9,87,269,87.1,269,87z"/>
										</g>
									</g>
								</g>
							</g>
						</g>
					</g>
				</g>
				<g>
					<g>
						<g>
							<g>
								<g>
									<g>
										<g>
											<path class="st3" d="M264.5,88.3c0.3,0,0.4,1.6,1.9,2.8c1.5,1.1,3.3,0.8,3.3,1c0,0.1-0.4,0.4-1.1,0.4
												c-0.7,0.1-1.8-0.1-2.8-0.8c-0.9-0.7-1.4-1.6-1.5-2.3C264.2,88.7,264.4,88.3,264.5,88.3z"/>
										</g>
									</g>
								</g>
							</g>
						</g>
					</g>
				</g>
				<g>
					<g>
						<g>
							<path class="st3" d="M262.7,69.7c-0.1,0.4-1.7,0.3-3.5,0.7c-1.8,0.3-3.2,0.9-3.5,0.6c-0.1-0.2,0.1-0.6,0.7-1
								c0.6-0.4,1.5-0.9,2.6-1.1c1.1-0.2,2.1-0.1,2.8,0.2C262.4,69.2,262.7,69.5,262.7,69.7z"/>
						</g>
					</g>
				</g>
				<g>
					<g>
						<g>
							<path class="st3" d="M277,70.2c-0.3,0.4-1.3,0.1-2.6,0.1c-1.3,0-2.4,0.4-2.6,0c-0.1-0.2,0-0.5,0.5-0.9
								c0.4-0.4,1.2-0.7,2.1-0.7c0.9,0,1.7,0.2,2.1,0.6C276.9,69.6,277.1,70,277,70.2z"/>
						</g>
					</g>
				</g>
				<g>
					<g>
						<path class="st3" d="M278.4,65c0,0-3-6.1-6.2-7.4c-3.8-1.6-5.1,2.6-8.7,1.8c-3.6-0.8-7.2-2.3-10.6,0.7
							c-3.7,3.2-1.8,5.2-1.7,9.7c0.1,18.2-2.9,23.5-4.3,15c-0.2-0.9-2.8-1.5-3.4-5.4c-0.8-5.1-1.4-11.3-0.5-15
							c0.8-3.1,2.4-5.3,5.4-7.9c4.7-4,11.5-4.5,16.1-4.3C269.1,52.3,278.4,57.1,278.4,65z"/>
					</g>
				</g>
				<g>
					<g>
						<path class="st10" d="M247.5,84.4c-0.2-1.6-1.6-2.7-3.1-2.5c-1.9,0.3-3.9,1.5-3.5,5.4c0.6,6.9,7.4,4.8,7.4,4.6
							C248.3,91.8,247.8,87.3,247.5,84.4z"/>
					</g>
				</g>
				<g>
					<g>
						<path class="st11" d="M246.5,89.5c0,0-0.1,0.1-0.3,0.2c-0.2,0.1-0.5,0.2-0.9,0.1c-0.8-0.2-1.5-1.3-1.6-2.5
							c-0.1-0.6,0-1.2,0.2-1.7c0.2-0.5,0.5-0.9,0.8-1c0.4-0.1,0.6,0.1,0.7,0.3c0.1,0.2,0.1,0.3,0.1,0.3c0,0,0.1-0.1,0.1-0.4
							c0-0.1-0.1-0.3-0.3-0.4c-0.2-0.1-0.4-0.2-0.7-0.1c-0.5,0.1-1,0.6-1.2,1.2c-0.2,0.6-0.3,1.3-0.2,2c0.2,1.4,1,2.6,2,2.8
							c0.5,0.1,0.9-0.1,1.1-0.3C246.5,89.7,246.6,89.5,246.5,89.5z"/>
					</g>
				</g>
			</g>
			<g>
				<path class="st3" d="M246.8,71.1c0.9,0.6,1.9,1.1,3,1.2c1.1,0,2.3-0.7,2.4-1.7c0.1-0.5-0.1-1,0.2-1.4c0.3-0.5,1.1-0.4,1.6-0.3
					c2,0.1,4-1.5,4.4-3.4c0.6,0.7,1.7,0.6,2.5,0.1c0.7-0.5,1.2-1.4,1.8-2.1c0.6-0.7,1.4-1.4,2.3-1.3c0.5,0,1,0.3,1.5,0.2
					c0.9-0.1,1.3-1.2,1.4-2.1c0.1-0.9,0.1-2,0.9-2.5c0.7-0.5,1.6-0.3,2.5-0.2c0.8,0.1,1.9-0.2,2.1-1c0.1-0.4-0.1-0.9-0.4-1.2
					c-1.2-1.6-3.6-2.2-5.4-1.4c-0.8-2.2-3.1-3.9-5.4-4c-2.4-0.1-4.7,1.3-5.8,3.5c-1.5-1.2-3.7-1.7-5.6-1.1c-1.9,0.6-3.5,2.1-4.1,3.9
					c-1.7-0.3-3.6,0.4-4.5,1.9c-1,1.4-1,3.5-0.1,4.9c-1.2,0.8-2.2,2.1-2.1,3.5c0.1,1.4,1.5,2.8,2.9,2.3c-0.5,1.1,0.1,2.6,1.2,3.2
					c1.1,0.6,2.6,0.1,3.2-1"/>
			</g>
			<g>
				<g>
					<path class="st4" d="M268.1,55.7c0,0,0,0,0,0.1c0,0.1,0,0.2,0,0.4c0,0.3-0.1,0.8-0.4,1.4c-0.3,0.5-0.7,1.2-1.4,1.7
						c-0.7,0.5-1.7,1-2.8,1l0.1-0.2c0.2,0.6,0.2,1.3,0,1.9c-0.2,0.6-0.6,1.2-1.1,1.8c-0.2,0.3-0.4,0.6-0.7,0.8
						c-0.3,0.2-0.7,0.4-1.1,0.5c-0.8,0.1-1.7,0-2.3-0.7l0.3-0.1c-0.1,1.4-0.8,2.8-2,3.7c-0.6,0.5-1.4,0.9-2.2,0.9
						c-0.8,0-1.6-0.1-2.3-0.4l0.2-0.1c-0.3,0.9-0.8,1.6-1.5,2.2c-0.6,0.6-1.5,1-2.4,0.8c-1.6-0.2-2.8-1.5-3.1-2.8l0.2,0.1
						c-0.8,0.5-1.6,0.6-2.3,0.5c-0.7-0.1-1.3-0.4-1.7-0.6c-0.4-0.3-0.7-0.6-0.8-0.8c-0.1-0.2-0.2-0.3-0.2-0.3c0,0,0.3,0.5,1.1,1
						c0.4,0.3,1,0.5,1.7,0.6c0.7,0.1,1.5,0,2.2-0.5l0.1-0.1l0,0.1c0.3,1.2,1.4,2.4,2.9,2.6c0.8,0.1,1.5-0.2,2.1-0.8
						c0.6-0.5,1.1-1.3,1.4-2.1l0-0.1l0.1,0c0.7,0.2,1.4,0.4,2.2,0.3c0.7,0,1.4-0.3,2-0.8c1.1-0.9,1.8-2.2,1.9-3.5l0-0.3l0.2,0.2
						c0.5,0.5,1.3,0.7,2,0.6c0.3-0.1,0.7-0.2,0.9-0.4c0.3-0.2,0.5-0.5,0.7-0.8c0.4-0.6,0.8-1.1,1.1-1.7c0.2-0.6,0.3-1.2,0-1.7
						l-0.1-0.2l0.2,0c1.1,0,2-0.4,2.7-0.9c0.7-0.5,1.1-1.1,1.4-1.6C268.1,56.4,268,55.7,268.1,55.7z"/>
				</g>
			</g>
		</g>
		<g>
			<g>
				<path class="st3" d="M271.5,80.2c0,0-0.3-0.6-0.5-1.6c-0.2-1-0.2-2.7,0.7-4.4c0.5-0.8,1.1-1.7,2-2.3c0.9-0.6,2.1-1.1,3.3-1.2
					c0.6-0.1,1.3,0,1.9,0.1c0.6,0.1,1.3,0.4,1.9,0.7c1.2,0.7,2.2,1.7,2.8,3c0.6,1.3,0.8,2.8,0.5,4.1c-0.1,0.7-0.4,1.3-0.7,1.9
					c-0.3,0.6-0.7,1.1-1.2,1.5c-0.9,0.9-2,1.5-3.1,1.7c-1.1,0.3-2.2,0.3-3.1,0.1c-1.9-0.4-3.1-1.5-3.8-2.3
					C271.8,80.8,271.5,80.2,271.5,80.2c0,0,0.1,0.1,0.2,0.4c0.1,0.1,0.1,0.3,0.3,0.5c0.1,0.2,0.2,0.4,0.4,0.6c0.7,0.9,1.9,2,3.8,2.4
					c1,0.2,2.1,0.3,3.2,0c1.1-0.3,2.3-0.9,3.2-1.8c0.5-0.4,0.9-1,1.2-1.6c0.3-0.6,0.6-1.3,0.7-2c0.3-1.4,0.1-2.9-0.5-4.3
					c-0.6-1.4-1.7-2.5-2.9-3.2c-0.6-0.3-1.3-0.6-2-0.7c-0.7-0.1-1.3-0.2-2-0.1c-1.3,0.1-2.5,0.6-3.4,1.3c-0.9,0.7-1.6,1.5-2.1,2.4
					c-0.9,1.8-0.9,3.5-0.7,4.5c0,0.3,0.1,0.5,0.2,0.7c0.1,0.2,0.1,0.4,0.2,0.5C271.4,80.1,271.5,80.2,271.5,80.2z"/>
			</g>
		</g>
		<g>
			<g>
				<path class="st3" d="M253.8,81.3c0,0-0.3-0.6-0.5-1.6c-0.2-1-0.2-2.7,0.7-4.4c0.5-0.8,1.1-1.7,2-2.3c0.9-0.6,2.1-1.1,3.3-1.2
					c0.6-0.1,1.3,0,1.9,0.1c0.6,0.1,1.3,0.4,1.9,0.7c1.2,0.7,2.2,1.7,2.8,3c0.6,1.3,0.8,2.8,0.5,4.1c-0.1,0.7-0.4,1.3-0.7,1.9
					c-0.3,0.6-0.7,1.1-1.2,1.5c-0.9,0.9-2,1.5-3.1,1.7c-1.1,0.3-2.2,0.3-3.1,0.1c-1.9-0.4-3.1-1.5-3.8-2.3
					C254,81.8,253.8,81.3,253.8,81.3c0,0,0.1,0.1,0.2,0.4c0.1,0.1,0.1,0.3,0.3,0.5c0.1,0.2,0.2,0.4,0.4,0.6c0.7,0.9,1.9,2,3.8,2.4
					c1,0.2,2.1,0.3,3.2,0c1.1-0.3,2.3-0.9,3.2-1.8c0.5-0.5,0.9-1,1.2-1.6c0.3-0.6,0.6-1.3,0.7-2c0.3-1.4,0.1-2.9-0.5-4.3
					c-0.6-1.4-1.7-2.5-2.9-3.2c-0.6-0.3-1.3-0.6-2-0.7c-0.7-0.1-1.3-0.2-2-0.1c-1.3,0.1-2.5,0.6-3.4,1.3c-0.9,0.7-1.6,1.5-2.1,2.4
					c-0.9,1.8-0.9,3.5-0.7,4.5c0,0.3,0.1,0.5,0.2,0.7c0.1,0.2,0.1,0.4,0.2,0.5C253.7,81.1,253.7,81.3,253.8,81.3z"/>
			</g>
		</g>
		<g>
			<g>
				<path class="st3" d="M266.7,76.9c0,0.1,0.9-0.6,2.1-0.6c1.2-0.1,2.1,0.5,2.1,0.4c0,0-0.2-0.2-0.6-0.4c-0.4-0.2-1-0.3-1.6-0.3
					c-0.6,0-1.2,0.2-1.6,0.4C266.9,76.7,266.7,76.9,266.7,76.9z"/>
			</g>
		</g>
		<g>
			<g>
				<path class="st3" d="M246.9,82.6c0,0.1,1.5-0.6,3.2-1.5c1.7-0.9,3.1-1.7,3.1-1.7c0-0.1-1.5,0.6-3.2,1.5
					C248.2,81.8,246.8,82.5,246.9,82.6z"/>
			</g>
		</g>
	</g>
</g>
<g>
	<g>
		<g>
			<g>
				<g>
					<path class="st6" d="M148.5,359.7c-5.9,14.5-22.5,21.4-37,15.4C97,369.3,90.1,352.7,96,338.3c5.9-14.5,22.5-21.4,37-15.4
						C147.4,328.7,154.4,345.3,148.5,359.7z"/>
				</g>
			</g>
			<g>
				<g>
					<path class="st6" d="M142.2,357.2c-4.5,11-17.1,16.3-28.2,11.8c-11-4.5-16.3-17.1-11.8-28.1c4.5-11,17.1-16.3,28.2-11.8
						C141.4,333.6,146.7,346.2,142.2,357.2z"/>
				</g>
			</g>
		</g>
		<g>
			<g>
				<g>
					<path class="st3" d="M142.2,357.2c0,0,0-0.1,0.1-0.3c0.1-0.2,0.2-0.6,0.3-1c0.1-0.2,0.2-0.5,0.2-0.7c0.1-0.3,0.1-0.6,0.2-0.9
						c0.1-0.6,0.3-1.4,0.4-2.2c0.3-1.7,0.3-3.8-0.1-6.2c-0.4-2.4-1.2-5.1-2.8-7.7c-1.6-2.6-3.8-5.2-6.8-7.1c-3-1.9-6.7-3.3-10.7-3.4
						c-1-0.1-2,0-3,0.1c-0.5,0.1-1,0.2-1.5,0.2c-0.5,0.1-1,0.2-1.5,0.3c-1,0.2-2,0.6-3,1c-1,0.5-2,0.9-2.9,1.5
						c-1.8,1.1-3.6,2.5-5.1,4.3c-1.5,1.7-2.7,3.7-3.6,5.8c-0.8,2.2-1.4,4.4-1.5,6.7c-0.2,2.3,0.1,4.5,0.6,6.6c0.2,1.1,0.6,2.1,1,3.1
						c0.5,1,0.9,1.9,1.5,2.8c0.5,0.9,1.2,1.7,1.8,2.5c0.7,0.8,1.3,1.5,2.1,2.2c2.9,2.7,6.6,4.3,10,5.1c3.5,0.8,6.9,0.5,9.9-0.3
						c2.9-0.8,5.4-2.1,7.4-3.5c1.9-1.5,3.4-3,4.4-4.4c0.5-0.7,0.9-1.3,1.3-1.9c0.2-0.3,0.3-0.5,0.5-0.8c0.1-0.2,0.2-0.5,0.3-0.7
						c0.2-0.4,0.3-0.7,0.5-0.9C142.2,357.3,142.2,357.2,142.2,357.2c0,0,0,0.1-0.1,0.3c-0.1,0.2-0.2,0.5-0.4,0.9
						c-0.1,0.2-0.2,0.4-0.3,0.7c-0.1,0.2-0.3,0.5-0.5,0.8c-0.3,0.6-0.7,1.2-1.2,1.9c-1,1.4-2.4,3-4.4,4.5c-1.9,1.5-4.4,2.8-7.4,3.6
						c-3,0.8-6.4,1.1-10,0.3c-3.5-0.8-7.2-2.4-10.2-5.2c-0.8-0.7-1.5-1.4-2.2-2.2c-0.6-0.8-1.3-1.7-1.8-2.6c-0.6-0.9-1-1.9-1.5-2.9
						c-0.4-1-0.8-2.1-1-3.1c-0.5-2.2-0.8-4.4-0.6-6.7c0.2-2.3,0.7-4.6,1.6-6.8c0.9-2.2,2.2-4.2,3.7-5.9c1.5-1.8,3.3-3.2,5.2-4.4
						c0.9-0.6,2-1.1,2.9-1.5c1-0.4,2-0.8,3.1-1c0.5-0.1,1-0.3,1.6-0.3c0.5-0.1,1-0.2,1.6-0.2c1-0.1,2.1-0.2,3.1-0.1
						c4.1,0.1,7.9,1.6,10.9,3.5c3.1,2,5.3,4.6,6.9,7.2c1.6,2.7,2.4,5.4,2.7,7.8c0.3,2.4,0.3,4.6,0,6.3c-0.1,0.9-0.3,1.6-0.5,2.2
						c-0.1,0.3-0.1,0.6-0.2,0.9c-0.1,0.3-0.2,0.5-0.3,0.7c-0.2,0.4-0.3,0.7-0.4,1C142.3,357.1,142.2,357.2,142.2,357.2z"/>
				</g>
			</g>
		</g>
	</g>
	<g class="st5">
		<g>
			<path d="M142,357.3c-0.1,0,0.2-1,0.5-2.6c0.3-1.7,0.6-4.1,0.2-7.1c-0.2-1.5-0.5-3.1-1.1-4.7c-0.6-1.6-1.4-3.3-2.5-4.9
				c-0.6-0.8-1.2-1.6-1.9-2.3c-0.7-0.7-1.4-1.5-2.3-2.1c-0.8-0.6-1.7-1.3-2.7-1.8c-0.9-0.5-1.9-1-3-1.4c-1-0.4-2.1-0.7-3.2-0.9
				c-1.1-0.2-2.1-0.3-3.2-0.4c-1.1-0.1-2.1,0-3.1,0.1c-1,0.1-2,0.3-2.9,0.5c-1.9,0.5-3.6,1.2-5.1,2c-1.5,0.8-2.8,1.8-3.9,2.8
				c-2.2,2-3.6,4-4.5,5.5c-0.9,1.5-1.2,2.3-1.4,2.3c-0.1,0,0.1-1,0.8-2.6c0.7-1.6,2-3.8,4.2-6c1.1-1.1,2.5-2.2,4.1-3.2
				c1.6-0.9,3.4-1.8,5.4-2.3c1-0.3,2.1-0.5,3.1-0.6c1.1-0.1,2.2-0.2,3.3-0.1c1.1,0,2.3,0.2,3.4,0.4c1.2,0.2,2.3,0.6,3.4,1
				c1.1,0.4,2.2,0.9,3.2,1.5c1,0.6,2,1.2,2.9,2c0.9,0.7,1.7,1.5,2.4,2.3c0.7,0.8,1.4,1.7,2,2.5c1.2,1.7,2,3.5,2.6,5.3
				c0.6,1.8,0.9,3.5,1,5c0.2,3.1-0.3,5.7-0.8,7.3C142.6,356.5,142.1,357.4,142,357.3z"/>
		</g>
	</g>
	<g class="st5">
		<g>
			<g>
				<g>
					<path d="M119.6,361.9l-1.4,3.5l-3.1-1.2l1.3-3.4c-3-1.4-5.6-3.5-6.8-5.6l3.2-3.1c1.1,1.8,3,3.5,5.2,4.6l2-5.2
						c-3.1-2.2-6.6-4.9-4.8-9.4c1.3-3.3,4.8-5.2,10-3.8l1.4-3.5l3.1,1.2l-1.3,3.4c2.3,1.1,4.3,2.6,5.6,4.4L131,347
						c-1.2-1.5-2.7-2.7-4.1-3.5l-2.1,5.3c3.2,2.2,6.5,4.8,4.8,9.2C128.2,361.3,124.8,363.2,119.6,361.9z M121.9,346.8l1.7-4.4
						c-1.8-0.3-2.8,0.4-3.2,1.4C120,344.9,120.7,345.8,121.9,346.8z M124.3,356.4c0.4-1.1-0.2-2-1.4-3l-1.7,4.3
						C122.9,358,123.9,357.5,124.3,356.4z"/>
				</g>
			</g>
		</g>
	</g>
</g>
<g>
	<g>
		<g>
			<g>
				<g>
					<g>
						<rect x="174.3" y="395.2" class="st6" width="54.4" height="9.9"/>
					</g>
					<g>
						<g>
							<path class="st3" d="M179.6,405.2c-0.1,0-0.2-2.2-0.2-4.9c0-2.7,0.1-4.9,0.2-4.9c0.1,0,0.2,2.2,0.2,4.9
								C179.8,403,179.7,405.2,179.6,405.2z"/>
						</g>
					</g>
					<g>
						<g>
							<path class="st3" d="M176.6,405.2c-0.1,0-0.2-2.2-0.2-4.9c0-2.7,0.1-4.9,0.2-4.9s0.2,2.2,0.2,4.9
								C176.9,403,176.8,405.2,176.6,405.2z"/>
						</g>
					</g>
					<g>
						<g>
							<path class="st3" d="M186.2,405.2c-0.1,0-0.2-2.2-0.2-4.9c0-2.7,0.1-4.9,0.2-4.9c0.1,0,0.2,2.2,0.2,4.9
								C186.4,403,186.3,405.2,186.2,405.2z"/>
						</g>
					</g>
					<g>
						<g>
							<path class="st3" d="M183.2,405.2c-0.1,0-0.2-2.2-0.2-4.9c0-2.7,0.1-4.9,0.2-4.9c0.1,0,0.2,2.2,0.2,4.9
								C183.4,403,183.3,405.2,183.2,405.2z"/>
						</g>
					</g>
					<g>
						<g>
							<path class="st3" d="M192.7,405.2c-0.1,0-0.2-2.2-0.2-4.9c0-2.7,0.1-4.9,0.2-4.9c0.1,0,0.2,2.2,0.2,4.9
								C192.9,403,192.8,405.2,192.7,405.2z"/>
						</g>
					</g>
					<g>
						<g>
							<path class="st3" d="M189.7,405.2c-0.1,0-0.2-2.2-0.2-4.9c0-2.7,0.1-4.9,0.2-4.9c0.1,0,0.2,2.2,0.2,4.9
								C189.9,403,189.8,405.2,189.7,405.2z"/>
						</g>
					</g>
					<g>
						<g>
							<path class="st3" d="M199.2,405.2c-0.1,0-0.2-2.2-0.2-4.9c0-2.7,0.1-4.9,0.2-4.9c0.1,0,0.2,2.2,0.2,4.9
								C199.5,403,199.4,405.2,199.2,405.2z"/>
						</g>
					</g>
					<g>
						<g>
							<path class="st3" d="M196.3,405.2c-0.1,0-0.2-2.2-0.2-4.9c0-2.7,0.1-4.9,0.2-4.9c0.1,0,0.2,2.2,0.2,4.9
								C196.5,403,196.4,405.2,196.3,405.2z"/>
						</g>
					</g>
					<g>
						<g>
							<path class="st3" d="M205.8,405.2c-0.1,0-0.2-2.2-0.2-4.9c0-2.7,0.1-4.9,0.2-4.9c0.1,0,0.2,2.2,0.2,4.9
								C206,403,205.9,405.2,205.8,405.2z"/>
						</g>
					</g>
					<g>
						<g>
							<path class="st3" d="M202.8,405.2c-0.1,0-0.2-2.2-0.2-4.9c0-2.7,0.1-4.9,0.2-4.9s0.2,2.2,0.2,4.9
								C203,403,202.9,405.2,202.8,405.2z"/>
						</g>
					</g>
					<g>
						<g>
							<path class="st3" d="M212.3,405.2c-0.1,0-0.2-2.2-0.2-4.9c0-2.7,0.1-4.9,0.2-4.9c0.1,0,0.2,2.2,0.2,4.9
								C212.6,403,212.4,405.2,212.3,405.2z"/>
						</g>
					</g>
					<g>
						<g>
							<path class="st3" d="M209.3,405.2c-0.1,0-0.2-2.2-0.2-4.9c0-2.7,0.1-4.9,0.2-4.9s0.2,2.2,0.2,4.9
								C209.6,403,209.5,405.2,209.3,405.2z"/>
						</g>
					</g>
					<g>
						<g>
							<path class="st3" d="M218.9,405.2c-0.1,0-0.2-2.2-0.2-4.9c0-2.7,0.1-4.9,0.2-4.9c0.1,0,0.2,2.2,0.2,4.9
								C219.1,403,219,405.2,218.9,405.2z"/>
						</g>
					</g>
					<g>
						<g>
							<path class="st3" d="M215.9,405.2c-0.1,0-0.2-2.2-0.2-4.9c0-2.7,0.1-4.9,0.2-4.9s0.2,2.2,0.2,4.9
								C216.1,403,216,405.2,215.9,405.2z"/>
						</g>
					</g>
					<g>
						<g>
							<path class="st3" d="M225.4,405.2c-0.1,0-0.2-2.2-0.2-4.9c0-2.7,0.1-4.9,0.2-4.9c0.1,0,0.2,2.2,0.2,4.9
								C225.6,403,225.5,405.2,225.4,405.2z"/>
						</g>
					</g>
					<g>
						<g>
							<path class="st3" d="M222.4,405.2c-0.1,0-0.2-2.2-0.2-4.9c0-2.7,0.1-4.9,0.2-4.9s0.2,2.2,0.2,4.9
								C222.7,403,222.6,405.2,222.4,405.2z"/>
						</g>
					</g>
				</g>
				<g>
					<g>
						<path class="st3" d="M228.7,395.2c0,0.1-12.3,0.2-27.4,0.2c-15.1,0-27.4-0.1-27.4-0.2s12.3-0.2,27.4-0.2
							C216.4,395,228.7,395.1,228.7,395.2z"/>
					</g>
				</g>
			</g>
			<g>
				<g>
					<g>
						<rect x="170" y="405" class="st6" width="54.4" height="9.9"/>
					</g>
					<g>
						<g>
							<path class="st3" d="M175.3,415c-0.1,0-0.2-2.2-0.2-4.9c0-2.7,0.1-4.9,0.2-4.9c0.1,0,0.2,2.2,0.2,4.9
								C175.6,412.8,175.5,415,175.3,415z"/>
						</g>
					</g>
					<g>
						<g>
							<path class="st3" d="M172.4,415c-0.1,0-0.2-2.2-0.2-4.9c0-2.7,0.1-4.9,0.2-4.9c0.1,0,0.2,2.2,0.2,4.9
								C172.6,412.8,172.5,415,172.4,415z"/>
						</g>
					</g>
					<g>
						<g>
							<path class="st3" d="M181.9,415c-0.1,0-0.2-2.2-0.2-4.9c0-2.7,0.1-4.9,0.2-4.9c0.1,0,0.2,2.2,0.2,4.9
								C182.1,412.8,182,415,181.9,415z"/>
						</g>
					</g>
					<g>
						<g>
							<path class="st3" d="M178.9,415c-0.1,0-0.2-2.2-0.2-4.9c0-2.7,0.1-4.9,0.2-4.9c0.1,0,0.2,2.2,0.2,4.9
								C179.1,412.8,179,415,178.9,415z"/>
						</g>
					</g>
					<g>
						<g>
							<path class="st3" d="M188.4,415c-0.1,0-0.2-2.2-0.2-4.9c0-2.7,0.1-4.9,0.2-4.9c0.1,0,0.2,2.2,0.2,4.9
								C188.7,412.8,188.6,415,188.4,415z"/>
						</g>
					</g>
					<g>
						<g>
							<path class="st3" d="M185.5,415c-0.1,0-0.2-2.2-0.2-4.9c0-2.7,0.1-4.9,0.2-4.9c0.1,0,0.2,2.2,0.2,4.9
								C185.7,412.8,185.6,415,185.5,415z"/>
						</g>
					</g>
					<g>
						<g>
							<path class="st3" d="M195,415c-0.1,0-0.2-2.2-0.2-4.9c0-2.7,0.1-4.9,0.2-4.9c0.1,0,0.2,2.2,0.2,4.9
								C195.2,412.8,195.1,415,195,415z"/>
						</g>
					</g>
					<g>
						<g>
							<path class="st3" d="M192,415c-0.1,0-0.2-2.2-0.2-4.9c0-2.7,0.1-4.9,0.2-4.9c0.1,0,0.2,2.2,0.2,4.9
								C192.2,412.8,192.1,415,192,415z"/>
						</g>
					</g>
					<g>
						<g>
							<path class="st3" d="M201.5,415c-0.1,0-0.2-2.2-0.2-4.9c0-2.7,0.1-4.9,0.2-4.9c0.1,0,0.2,2.2,0.2,4.9
								C201.7,412.8,201.6,415,201.5,415z"/>
						</g>
					</g>
					<g>
						<g>
							<path class="st3" d="M198.5,415c-0.1,0-0.2-2.2-0.2-4.9c0-2.7,0.1-4.9,0.2-4.9s0.2,2.2,0.2,4.9
								C198.8,412.8,198.7,415,198.5,415z"/>
						</g>
					</g>
					<g>
						<g>
							<path class="st3" d="M208.1,415c-0.1,0-0.2-2.2-0.2-4.9c0-2.7,0.1-4.9,0.2-4.9c0.1,0,0.2,2.2,0.2,4.9
								C208.3,412.8,208.2,415,208.1,415z"/>
						</g>
					</g>
					<g>
						<g>
							<path class="st3" d="M205.1,415c-0.1,0-0.2-2.2-0.2-4.9c0-2.7,0.1-4.9,0.2-4.9c0.1,0,0.2,2.2,0.2,4.9
								C205.3,412.8,205.2,415,205.1,415z"/>
						</g>
					</g>
					<g>
						<g>
							<path class="st3" d="M214.6,415c-0.1,0-0.2-2.2-0.2-4.9c0-2.7,0.1-4.9,0.2-4.9c0.1,0,0.2,2.2,0.2,4.9
								C214.8,412.8,214.7,415,214.6,415z"/>
						</g>
					</g>
					<g>
						<g>
							<path class="st3" d="M211.6,415c-0.1,0-0.2-2.2-0.2-4.9c0-2.7,0.1-4.9,0.2-4.9c0.1,0,0.2,2.2,0.2,4.9
								C211.8,412.8,211.7,415,211.6,415z"/>
						</g>
					</g>
					<g>
						<g>
							<path class="st3" d="M221.1,415c-0.1,0-0.2-2.2-0.2-4.9c0-2.7,0.1-4.9,0.2-4.9c0.1,0,0.2,2.2,0.2,4.9
								C221.4,412.8,221.3,415,221.1,415z"/>
						</g>
					</g>
					<g>
						<g>
							<path class="st3" d="M218.2,415c-0.1,0-0.2-2.2-0.2-4.9c0-2.7,0.1-4.9,0.2-4.9c0.1,0,0.2,2.2,0.2,4.9
								C218.4,412.8,218.3,415,218.2,415z"/>
						</g>
					</g>
				</g>
				<g>
					<g>
						<path class="st3" d="M224.5,405c0,0.1-12.2,0.2-27.3,0.2c-15.1,0-27.3-0.1-27.3-0.2s12.2-0.2,27.3-0.2
							C212.2,404.8,224.5,404.9,224.5,405z"/>
					</g>
				</g>
			</g>
			<g>
				<g>
					<g>
						<rect x="166.5" y="415" class="st6" width="54.4" height="9.9"/>
					</g>
					<g>
						<g>
							<path class="st3" d="M171.9,425c-0.1,0-0.2-2.2-0.2-4.9c0-2.7,0.1-4.9,0.2-4.9c0.1,0,0.2,2.2,0.2,4.9
								C172.1,422.8,172,425,171.9,425z"/>
						</g>
					</g>
					<g>
						<g>
							<path class="st3" d="M168.9,425c-0.1,0-0.2-2.2-0.2-4.9c0-2.7,0.1-4.9,0.2-4.9c0.1,0,0.2,2.2,0.2,4.9
								C169.1,422.8,169,425,168.9,425z"/>
						</g>
					</g>
					<g>
						<g>
							<path class="st3" d="M178.4,425c-0.1,0-0.2-2.2-0.2-4.9c0-2.7,0.1-4.9,0.2-4.9c0.1,0,0.2,2.2,0.2,4.9
								C178.6,422.8,178.5,425,178.4,425z"/>
						</g>
					</g>
					<g>
						<g>
							<path class="st3" d="M175.4,425c-0.1,0-0.2-2.2-0.2-4.9c0-2.7,0.1-4.9,0.2-4.9c0.1,0,0.2,2.2,0.2,4.9
								C175.6,422.8,175.5,425,175.4,425z"/>
						</g>
					</g>
					<g>
						<g>
							<path class="st3" d="M184.9,425c-0.1,0-0.2-2.2-0.2-4.9c0-2.7,0.1-4.9,0.2-4.9s0.2,2.2,0.2,4.9
								C185.2,422.8,185.1,425,184.9,425z"/>
						</g>
					</g>
					<g>
						<g>
							<path class="st3" d="M182,425c-0.1,0-0.2-2.2-0.2-4.9c0-2.7,0.1-4.9,0.2-4.9c0.1,0,0.2,2.2,0.2,4.9
								C182.2,422.8,182.1,425,182,425z"/>
						</g>
					</g>
					<g>
						<g>
							<path class="st3" d="M191.5,425c-0.1,0-0.2-2.2-0.2-4.9c0-2.7,0.1-4.9,0.2-4.9s0.2,2.2,0.2,4.9
								C191.7,422.8,191.6,425,191.5,425z"/>
						</g>
					</g>
					<g>
						<g>
							<path class="st3" d="M188.5,425c-0.1,0-0.2-2.2-0.2-4.9c0-2.7,0.1-4.9,0.2-4.9s0.2,2.2,0.2,4.9
								C188.7,422.8,188.6,425,188.5,425z"/>
						</g>
					</g>
					<g>
						<g>
							<path class="st3" d="M198,425c-0.1,0-0.2-2.2-0.2-4.9c0-2.7,0.1-4.9,0.2-4.9s0.2,2.2,0.2,4.9C198.2,422.8,198.1,425,198,425z
								"/>
						</g>
					</g>
					<g>
						<g>
							<path class="st3" d="M195,425c-0.1,0-0.2-2.2-0.2-4.9c0-2.7,0.1-4.9,0.2-4.9c0.1,0,0.2,2.2,0.2,4.9
								C195.3,422.8,195.2,425,195,425z"/>
						</g>
					</g>
					<g>
						<g>
							<path class="st3" d="M204.6,425c-0.1,0-0.2-2.2-0.2-4.9c0-2.7,0.1-4.9,0.2-4.9s0.2,2.2,0.2,4.9
								C204.8,422.8,204.7,425,204.6,425z"/>
						</g>
					</g>
					<g>
						<g>
							<path class="st3" d="M201.6,425c-0.1,0-0.2-2.2-0.2-4.9c0-2.7,0.1-4.9,0.2-4.9c0.1,0,0.2,2.2,0.2,4.9
								C201.8,422.8,201.7,425,201.6,425z"/>
						</g>
					</g>
					<g>
						<g>
							<path class="st3" d="M211.1,425c-0.1,0-0.2-2.2-0.2-4.9c0-2.7,0.1-4.9,0.2-4.9c0.1,0,0.2,2.2,0.2,4.9
								C211.3,422.8,211.2,425,211.1,425z"/>
						</g>
					</g>
					<g>
						<g>
							<path class="st3" d="M208.1,425c-0.1,0-0.2-2.2-0.2-4.9c0-2.7,0.1-4.9,0.2-4.9c0.1,0,0.2,2.2,0.2,4.9
								C208.3,422.8,208.2,425,208.1,425z"/>
						</g>
					</g>
					<g>
						<g>
							<path class="st3" d="M217.6,425c-0.1,0-0.2-2.2-0.2-4.9c0-2.7,0.1-4.9,0.2-4.9c0.1,0,0.2,2.2,0.2,4.9
								C217.9,422.8,217.8,425,217.6,425z"/>
						</g>
					</g>
					<g>
						<g>
							<path class="st3" d="M214.7,425c-0.1,0-0.2-2.2-0.2-4.9c0-2.7,0.1-4.9,0.2-4.9c0.1,0,0.2,2.2,0.2,4.9
								C214.9,422.8,214.8,425,214.7,425z"/>
						</g>
					</g>
				</g>
				<g>
					<g>
						<path class="st3" d="M221,415c0,0.1-12.2,0.2-27.3,0.2c-15.1,0-27.3-0.1-27.3-0.2s12.2-0.2,27.3-0.2
							C208.7,414.8,221,414.9,221,415z"/>
					</g>
				</g>
			</g>
		</g>
		<g class="st5">
			<g>
				<path d="M177.4,405.1c8.1,2,16.8,2.4,25.1,1.8c8.4-0.6,16.8-1.8,25.2-1.7L177.4,405.1z"/>
			</g>
		</g>
		<g class="st5">
			<g>
				<path d="M167.2,415.1c8.1,2,16.8,2.4,25.1,1.8c8.4-0.6,16.8-1.8,25.2-1.7L167.2,415.1z"/>
			</g>
		</g>
	</g>
	<g>
		<g>
			<ellipse class="st8" cx="175.5" cy="395.8" rx="0.7" ry="0.2"/>
		</g>
	</g>
	<g>
		<g>
			<path class="st8" d="M183.7,395.8c0,0.1-1.4,0.2-3.1,0.2c-1.7,0-3.1-0.1-3.1-0.2s1.4-0.2,3.1-0.2
				C182.3,395.6,183.7,395.7,183.7,395.8z"/>
		</g>
	</g>
	<g>
		<g>
			<path class="st8" d="M192.4,395.8c0,0.1-1.4,0.2-3.1,0.2c-1.7,0-3.1-0.1-3.1-0.2s1.4-0.2,3.1-0.2
				C191,395.6,192.4,395.7,192.4,395.8z"/>
		</g>
	</g>
</g>
<g>
	<g>
		<g>
			<g>
				<g>
					<path class="st6" d="M395.3,386.7c5.5,14.6-1.9,30.9-16.6,36.5c-14.7,5.5-31-1.9-36.5-16.5c-5.5-14.6,1.9-30.9,16.6-36.5
						C373.4,364.7,389.8,372.1,395.3,386.7z"/>
				</g>
			</g>
			<g>
				<g>
					<path class="st6" d="M388.9,389.1c4.2,11.1-1.5,23.6-12.7,27.8c-11.2,4.2-23.6-1.4-27.8-12.6c-4.2-11.1,1.5-23.6,12.7-27.8
						C372.3,372.3,384.8,378,388.9,389.1z"/>
				</g>
			</g>
		</g>
		<g>
			<g>
				<g>
					<path class="st3" d="M388.9,389.1c0,0-0.1-0.1-0.2-0.3c-0.1-0.2-0.2-0.5-0.4-0.9c-0.1-0.2-0.2-0.4-0.3-0.7
						c-0.1-0.2-0.3-0.5-0.4-0.8c-0.3-0.6-0.7-1.2-1.2-1.9c-0.9-1.4-2.4-3-4.3-4.5c-1.9-1.5-4.3-2.9-7.3-3.8
						c-2.9-0.8-6.3-1.2-9.8-0.6c-3.5,0.7-7.2,2.2-10.2,4.8c-0.8,0.6-1.5,1.4-2.2,2.1c-0.3,0.4-0.6,0.8-1,1.2
						c-0.3,0.4-0.6,0.8-0.9,1.3c-0.6,0.9-1.1,1.8-1.5,2.8c-0.4,1-0.8,2-1.1,3.1c-0.6,2.1-0.9,4.3-0.8,6.6c0.1,2.3,0.5,4.5,1.3,6.7
						c0.8,2.2,2,4.2,3.4,5.9c1.4,1.8,3.1,3.2,4.9,4.4c0.9,0.6,1.9,1.1,2.8,1.6c1,0.4,2,0.8,3,1.1c1,0.3,2,0.5,3,0.7
						c1,0.1,2,0.2,3,0.2c4,0,7.8-1.3,10.8-3.1c3.1-1.8,5.4-4.3,7-6.9c1.6-2.6,2.6-5.2,3-7.6c0.4-2.4,0.5-4.5,0.2-6.2
						c-0.1-0.9-0.2-1.6-0.4-2.2c-0.1-0.3-0.1-0.6-0.2-0.9c-0.1-0.3-0.2-0.5-0.2-0.7c-0.1-0.4-0.2-0.7-0.3-1
						C389,389.2,388.9,389.1,388.9,389.1c0,0,0.1,0.1,0.1,0.3c0.1,0.2,0.2,0.6,0.3,1c0.1,0.2,0.2,0.5,0.2,0.7
						c0.1,0.3,0.1,0.6,0.2,0.9c0.1,0.6,0.3,1.4,0.4,2.3c0.3,1.7,0.2,3.8-0.2,6.3c-0.4,2.4-1.3,5.1-3,7.7c-1.6,2.6-4,5.2-7.1,7
						c-3.1,1.8-6.9,3.2-11,3.2c-1,0.1-2.1-0.1-3.1-0.2c-1-0.2-2.1-0.3-3.1-0.7c-1-0.3-2-0.7-3.1-1.1c-1-0.5-2-1-2.9-1.6
						c-1.9-1.2-3.6-2.7-5-4.5c-1.4-1.8-2.6-3.8-3.5-6c-0.8-2.2-1.3-4.5-1.4-6.8c-0.1-2.3,0.2-4.6,0.8-6.7c0.3-1.1,0.7-2.1,1.1-3.1
						c0.5-1,1-2,1.6-2.8c0.3-0.5,0.6-0.9,0.9-1.3c0.3-0.4,0.6-0.8,1-1.2c0.7-0.8,1.4-1.5,2.2-2.2c3.1-2.7,6.8-4.2,10.4-4.9
						c3.6-0.7,7-0.3,10,0.6c3,0.9,5.4,2.3,7.3,3.9c1.9,1.5,3.3,3.1,4.2,4.6c0.5,0.7,0.9,1.4,1.2,2c0.2,0.3,0.3,0.6,0.4,0.8
						c0.1,0.3,0.2,0.5,0.3,0.7c0.2,0.4,0.3,0.7,0.4,1C388.9,389,388.9,389.1,388.9,389.1z"/>
				</g>
			</g>
		</g>
	</g>
	<g class="st5">
		<g>
			<path d="M388.9,389.4c-0.1,0.1-0.5-0.8-1.4-2.2c-0.9-1.4-2.4-3.4-4.6-5.3c-1.1-1-2.5-1.9-4-2.7c-1.6-0.8-3.3-1.5-5.2-1.9
				c-0.9-0.2-1.9-0.4-2.9-0.4c-1-0.1-2.1-0.1-3.1,0c-1,0.1-2.1,0.2-3.2,0.5c-1.1,0.3-2.1,0.6-3.1,1c-1,0.4-2,0.9-2.9,1.5
				c-0.9,0.6-1.8,1.2-2.6,1.9c-0.8,0.7-1.5,1.4-2.2,2.2c-0.7,0.8-1.3,1.6-1.8,2.4c-1.1,1.6-1.8,3.3-2.4,5c-0.5,1.7-0.8,3.3-1,4.7
				c-0.3,3,0.1,5.4,0.5,7.1c0.4,1.7,0.7,2.6,0.5,2.6c-0.1,0-0.6-0.8-1.2-2.4c-0.6-1.6-1.1-4.2-1-7.3c0.1-1.6,0.3-3.3,0.8-5.1
				c0.5-1.8,1.3-3.6,2.4-5.4c0.5-0.9,1.2-1.8,1.9-2.6c0.7-0.8,1.5-1.6,2.3-2.4c0.9-0.7,1.8-1.4,2.8-2.1c1-0.6,2.1-1.2,3.2-1.6
				c1.1-0.5,2.3-0.8,3.4-1.1c1.1-0.3,2.3-0.4,3.4-0.5c1.1-0.1,2.3-0.1,3.3,0c1.1,0.1,2.1,0.3,3.2,0.5c2,0.5,3.9,1.2,5.5,2.1
				c1.6,0.9,3,1.9,4.2,3c2.3,2.1,3.7,4.3,4.4,5.9C388.7,388.4,388.9,389.3,388.9,389.4z"/>
		</g>
	</g>
	<g class="st5">
		<g>
			<g>
				<g>
					<path d="M375.5,407.9l1.4,3.5l-3.1,1.2l-1.3-3.4c-3.2,1-6.5,1.2-8.8,0.6l0.2-4.5c2,0.5,4.6,0.5,6.9-0.2l-2-5.2
						c-3.8,0.5-8.1,0.9-9.9-3.6c-1.3-3.3,0-7.1,4.7-9.6l-1.4-3.5l3.1-1.2l1.3,3.4c2.4-0.7,4.9-1,7.1-0.6l-0.1,4.5
						c-2-0.3-3.8-0.2-5.4,0.2l2.1,5.3c3.8-0.5,8.1-0.9,9.8,3.5C381.5,401.6,380.2,405.4,375.5,407.9z M367,395.3l-1.7-4.4
						c-1.5,1-1.8,2.2-1.4,3.2C364.3,395.2,365.4,395.4,367,395.3z M375.3,400.7c-0.4-1.1-1.6-1.3-3.1-1.3l1.7,4.3
						C375.3,402.8,375.7,401.7,375.3,400.7z"/>
				</g>
			</g>
		</g>
	</g>
</g>
<g>
	<g>
		<g>
			<g>
				<g>
					<g>
						<rect x="423" y="395.2" class="st6" width="54.4" height="9.9"/>
					</g>
					<g>
						<g>
							<path class="st3" d="M428.4,405.1c-0.1,0-0.2-2.2-0.2-4.9c0-2.7,0.1-4.9,0.2-4.9c0.1,0,0.2,2.2,0.2,4.9
								C428.6,402.9,428.5,405.1,428.4,405.1z"/>
						</g>
					</g>
					<g>
						<g>
							<path class="st3" d="M425.4,405.1c-0.1,0-0.2-2.2-0.2-4.9c0-2.7,0.1-4.9,0.2-4.9c0.1,0,0.2,2.2,0.2,4.9
								C425.6,402.9,425.5,405.1,425.4,405.1z"/>
						</g>
					</g>
					<g>
						<g>
							<path class="st3" d="M434.9,405.1c-0.1,0-0.2-2.2-0.2-4.9c0-2.7,0.1-4.9,0.2-4.9c0.1,0,0.2,2.2,0.2,4.9
								C435.2,402.9,435,405.1,434.9,405.1z"/>
						</g>
					</g>
					<g>
						<g>
							<path class="st3" d="M431.9,405.1c-0.1,0-0.2-2.2-0.2-4.9c0-2.7,0.1-4.9,0.2-4.9s0.2,2.2,0.2,4.9
								C432.2,402.9,432.1,405.1,431.9,405.1z"/>
						</g>
					</g>
					<g>
						<g>
							<path class="st3" d="M441.5,405.1c-0.1,0-0.2-2.2-0.2-4.9c0-2.7,0.1-4.9,0.2-4.9c0.1,0,0.2,2.2,0.2,4.9
								C441.7,402.9,441.6,405.1,441.5,405.1z"/>
						</g>
					</g>
					<g>
						<g>
							<path class="st3" d="M438.5,405.1c-0.1,0-0.2-2.2-0.2-4.9c0-2.7,0.1-4.9,0.2-4.9c0.1,0,0.2,2.2,0.2,4.9
								C438.7,402.9,438.6,405.1,438.5,405.1z"/>
						</g>
					</g>
					<g>
						<g>
							<path class="st3" d="M448,405.1c-0.1,0-0.2-2.2-0.2-4.9c0-2.7,0.1-4.9,0.2-4.9c0.1,0,0.2,2.2,0.2,4.9
								C448.2,402.9,448.1,405.1,448,405.1z"/>
						</g>
					</g>
					<g>
						<g>
							<path class="st3" d="M445,405.1c-0.1,0-0.2-2.2-0.2-4.9c0-2.7,0.1-4.9,0.2-4.9s0.2,2.2,0.2,4.9
								C445.3,402.9,445.2,405.1,445,405.1z"/>
						</g>
					</g>
					<g>
						<g>
							<path class="st3" d="M454.5,405.1c-0.1,0-0.2-2.2-0.2-4.9c0-2.7,0.1-4.9,0.2-4.9c0.1,0,0.2,2.2,0.2,4.9
								C454.8,402.9,454.7,405.1,454.5,405.1z"/>
						</g>
					</g>
					<g>
						<g>
							<path class="st3" d="M451.6,405.1c-0.1,0-0.2-2.2-0.2-4.9c0-2.7,0.1-4.9,0.2-4.9s0.2,2.2,0.2,4.9
								C451.8,402.9,451.7,405.1,451.6,405.1z"/>
						</g>
					</g>
					<g>
						<g>
							<path class="st3" d="M461.1,405.1c-0.1,0-0.2-2.2-0.2-4.9c0-2.7,0.1-4.9,0.2-4.9c0.1,0,0.2,2.2,0.2,4.9
								C461.3,402.9,461.2,405.1,461.1,405.1z"/>
						</g>
					</g>
					<g>
						<g>
							<path class="st3" d="M458.1,405.1c-0.1,0-0.2-2.2-0.2-4.9c0-2.7,0.1-4.9,0.2-4.9c0.1,0,0.2,2.2,0.2,4.9
								C458.3,402.9,458.2,405.1,458.1,405.1z"/>
						</g>
					</g>
					<g>
						<g>
							<path class="st3" d="M467.6,405.1c-0.1,0-0.2-2.2-0.2-4.9c0-2.7,0.1-4.9,0.2-4.9c0.1,0,0.2,2.2,0.2,4.9
								C467.9,402.9,467.8,405.1,467.6,405.1z"/>
						</g>
					</g>
					<g>
						<g>
							<path class="st3" d="M464.7,405.1c-0.1,0-0.2-2.2-0.2-4.9c0-2.7,0.1-4.9,0.2-4.9c0.1,0,0.2,2.2,0.2,4.9
								C464.9,402.9,464.8,405.1,464.7,405.1z"/>
						</g>
					</g>
					<g>
						<g>
							<path class="st3" d="M474.2,405.1c-0.1,0-0.2-2.2-0.2-4.9c0-2.7,0.1-4.9,0.2-4.9c0.1,0,0.2,2.2,0.2,4.9
								C474.4,402.9,474.3,405.1,474.2,405.1z"/>
						</g>
					</g>
					<g>
						<g>
							<path class="st3" d="M471.2,405.1c-0.1,0-0.2-2.2-0.2-4.9c0-2.7,0.1-4.9,0.2-4.9c0.1,0,0.2,2.2,0.2,4.9
								C471.4,402.9,471.3,405.1,471.2,405.1z"/>
						</g>
					</g>
				</g>
				<g>
					<g>
						<path class="st3" d="M477.5,395.2c0,0.1-12.3,0.2-27.4,0.2c-15.1,0-27.4-0.1-27.4-0.2c0-0.1,12.3-0.2,27.4-0.2
							C465.2,395,477.5,395.1,477.5,395.2z"/>
					</g>
				</g>
			</g>
			<g>
				<g>
					<g>
						<rect x="418.8" y="405" class="st6" width="54.4" height="9.9"/>
					</g>
					<g>
						<g>
							<path class="st3" d="M424.1,414.9c-0.1,0-0.2-2.2-0.2-4.9c0-2.7,0.1-4.9,0.2-4.9c0.1,0,0.2,2.2,0.2,4.9
								C424.3,412.7,424.2,414.9,424.1,414.9z"/>
						</g>
					</g>
					<g>
						<g>
							<path class="st3" d="M421.1,414.9c-0.1,0-0.2-2.2-0.2-4.9c0-2.7,0.1-4.9,0.2-4.9c0.1,0,0.2,2.2,0.2,4.9
								C421.4,412.7,421.3,414.9,421.1,414.9z"/>
						</g>
					</g>
					<g>
						<g>
							<path class="st3" d="M430.7,414.9c-0.1,0-0.2-2.2-0.2-4.9c0-2.7,0.1-4.9,0.2-4.9c0.1,0,0.2,2.2,0.2,4.9
								C430.9,412.7,430.8,414.9,430.7,414.9z"/>
						</g>
					</g>
					<g>
						<g>
							<path class="st3" d="M427.7,414.9c-0.1,0-0.2-2.2-0.2-4.9c0-2.7,0.1-4.9,0.2-4.9c0.1,0,0.2,2.2,0.2,4.9
								C427.9,412.7,427.8,414.9,427.7,414.9z"/>
						</g>
					</g>
					<g>
						<g>
							<path class="st3" d="M437.2,414.9c-0.1,0-0.2-2.2-0.2-4.9c0-2.7,0.1-4.9,0.2-4.9c0.1,0,0.2,2.2,0.2,4.9
								C437.4,412.7,437.3,414.9,437.2,414.9z"/>
						</g>
					</g>
					<g>
						<g>
							<path class="st3" d="M434.2,414.9c-0.1,0-0.2-2.2-0.2-4.9c0-2.7,0.1-4.9,0.2-4.9s0.2,2.2,0.2,4.9
								C434.4,412.7,434.3,414.9,434.2,414.9z"/>
						</g>
					</g>
					<g>
						<g>
							<path class="st3" d="M443.7,414.9c-0.1,0-0.2-2.2-0.2-4.9c0-2.7,0.1-4.9,0.2-4.9c0.1,0,0.2,2.2,0.2,4.9
								C444,412.7,443.9,414.9,443.7,414.9z"/>
						</g>
					</g>
					<g>
						<g>
							<path class="st3" d="M440.8,414.9c-0.1,0-0.2-2.2-0.2-4.9c0-2.7,0.1-4.9,0.2-4.9c0.1,0,0.2,2.2,0.2,4.9
								C441,412.7,440.9,414.9,440.8,414.9z"/>
						</g>
					</g>
					<g>
						<g>
							<path class="st3" d="M450.3,414.9c-0.1,0-0.2-2.2-0.2-4.9c0-2.7,0.1-4.9,0.2-4.9c0.1,0,0.2,2.2,0.2,4.9
								C450.5,412.7,450.4,414.9,450.3,414.9z"/>
						</g>
					</g>
					<g>
						<g>
							<path class="st3" d="M447.3,414.9c-0.1,0-0.2-2.2-0.2-4.9c0-2.7,0.1-4.9,0.2-4.9s0.2,2.2,0.2,4.9
								C447.5,412.7,447.4,414.9,447.3,414.9z"/>
						</g>
					</g>
					<g>
						<g>
							<path class="st3" d="M456.8,414.9c-0.1,0-0.2-2.2-0.2-4.9c0-2.7,0.1-4.9,0.2-4.9c0.1,0,0.2,2.2,0.2,4.9
								C457.1,412.7,456.9,414.9,456.8,414.9z"/>
						</g>
					</g>
					<g>
						<g>
							<path class="st3" d="M453.8,414.9c-0.1,0-0.2-2.2-0.2-4.9c0-2.7,0.1-4.9,0.2-4.9s0.2,2.2,0.2,4.9
								C454.1,412.7,454,414.9,453.8,414.9z"/>
						</g>
					</g>
					<g>
						<g>
							<path class="st3" d="M463.4,414.9c-0.1,0-0.2-2.2-0.2-4.9c0-2.7,0.1-4.9,0.2-4.9c0.1,0,0.2,2.2,0.2,4.9
								C463.6,412.7,463.5,414.9,463.4,414.9z"/>
						</g>
					</g>
					<g>
						<g>
							<path class="st3" d="M460.4,414.9c-0.1,0-0.2-2.2-0.2-4.9c0-2.7,0.1-4.9,0.2-4.9c0.1,0,0.2,2.2,0.2,4.9
								C460.6,412.7,460.5,414.9,460.4,414.9z"/>
						</g>
					</g>
					<g>
						<g>
							<path class="st3" d="M469.9,414.9c-0.1,0-0.2-2.2-0.2-4.9c0-2.7,0.1-4.9,0.2-4.9c0.1,0,0.2,2.2,0.2,4.9
								C470.1,412.7,470,414.9,469.9,414.9z"/>
						</g>
					</g>
					<g>
						<g>
							<path class="st3" d="M466.9,414.9c-0.1,0-0.2-2.2-0.2-4.9c0-2.7,0.1-4.9,0.2-4.9s0.2,2.2,0.2,4.9
								C467.2,412.7,467.1,414.9,466.9,414.9z"/>
						</g>
					</g>
				</g>
				<g>
					<g>
						<path class="st3" d="M473.2,405c0,0.1-12.2,0.2-27.3,0.2c-15.1,0-27.3-0.1-27.3-0.2c0-0.1,12.2-0.2,27.3-0.2
							C461,404.8,473.2,404.9,473.2,405z"/>
					</g>
				</g>
			</g>
			<g>
				<g>
					<g>
						<rect x="415.3" y="414.9" class="st6" width="54.4" height="9.9"/>
					</g>
					<g>
						<g>
							<path class="st3" d="M420.6,424.9c-0.1,0-0.2-2.2-0.2-4.9c0-2.7,0.1-4.9,0.2-4.9s0.2,2.2,0.2,4.9
								C420.8,422.7,420.7,424.9,420.6,424.9z"/>
						</g>
					</g>
					<g>
						<g>
							<path class="st3" d="M417.6,424.9c-0.1,0-0.2-2.2-0.2-4.9c0-2.7,0.1-4.9,0.2-4.9s0.2,2.2,0.2,4.9
								C417.9,422.7,417.8,424.9,417.6,424.9z"/>
						</g>
					</g>
					<g>
						<g>
							<path class="st3" d="M427.2,424.9c-0.1,0-0.2-2.2-0.2-4.9c0-2.7,0.1-4.9,0.2-4.9s0.2,2.2,0.2,4.9
								C427.4,422.7,427.3,424.9,427.2,424.9z"/>
						</g>
					</g>
					<g>
						<g>
							<path class="st3" d="M424.2,424.9c-0.1,0-0.2-2.2-0.2-4.9c0-2.7,0.1-4.9,0.2-4.9c0.1,0,0.2,2.2,0.2,4.9
								C424.4,422.7,424.3,424.9,424.2,424.9z"/>
						</g>
					</g>
					<g>
						<g>
							<path class="st3" d="M433.7,424.9c-0.1,0-0.2-2.2-0.2-4.9c0-2.7,0.1-4.9,0.2-4.9s0.2,2.2,0.2,4.9
								C433.9,422.7,433.8,424.9,433.7,424.9z"/>
						</g>
					</g>
					<g>
						<g>
							<path class="st3" d="M430.7,424.9c-0.1,0-0.2-2.2-0.2-4.9c0-2.7,0.1-4.9,0.2-4.9c0.1,0,0.2,2.2,0.2,4.9
								C430.9,422.7,430.8,424.9,430.7,424.9z"/>
						</g>
					</g>
					<g>
						<g>
							<path class="st3" d="M440.2,424.9c-0.1,0-0.2-2.2-0.2-4.9c0-2.7,0.1-4.9,0.2-4.9s0.2,2.2,0.2,4.9
								C440.5,422.7,440.4,424.9,440.2,424.9z"/>
						</g>
					</g>
					<g>
						<g>
							<path class="st3" d="M437.3,424.9c-0.1,0-0.2-2.2-0.2-4.9c0-2.7,0.1-4.9,0.2-4.9s0.2,2.2,0.2,4.9
								C437.5,422.7,437.4,424.9,437.3,424.9z"/>
						</g>
					</g>
					<g>
						<g>
							<path class="st3" d="M446.8,424.9c-0.1,0-0.2-2.2-0.2-4.9c0-2.7,0.1-4.9,0.2-4.9s0.2,2.2,0.2,4.9
								C447,422.7,446.9,424.9,446.8,424.9z"/>
						</g>
					</g>
					<g>
						<g>
							<path class="st3" d="M443.8,424.9c-0.1,0-0.2-2.2-0.2-4.9c0-2.7,0.1-4.9,0.2-4.9c0.1,0,0.2,2.2,0.2,4.9
								C444,422.7,443.9,424.9,443.8,424.9z"/>
						</g>
					</g>
					<g>
						<g>
							<path class="st3" d="M453.3,424.9c-0.1,0-0.2-2.2-0.2-4.9c0-2.7,0.1-4.9,0.2-4.9s0.2,2.2,0.2,4.9
								C453.6,422.7,453.5,424.9,453.3,424.9z"/>
						</g>
					</g>
					<g>
						<g>
							<path class="st3" d="M450.3,424.9c-0.1,0-0.2-2.2-0.2-4.9c0-2.7,0.1-4.9,0.2-4.9c0.1,0,0.2,2.2,0.2,4.9
								C450.6,422.7,450.5,424.9,450.3,424.9z"/>
						</g>
					</g>
					<g>
						<g>
							<path class="st3" d="M459.9,424.9c-0.1,0-0.2-2.2-0.2-4.9c0-2.7,0.1-4.9,0.2-4.9s0.2,2.2,0.2,4.9
								C460.1,422.7,460,424.9,459.9,424.9z"/>
						</g>
					</g>
					<g>
						<g>
							<path class="st3" d="M456.9,424.9c-0.1,0-0.2-2.2-0.2-4.9c0-2.7,0.1-4.9,0.2-4.9c0.1,0,0.2,2.2,0.2,4.9
								C457.1,422.7,457,424.9,456.9,424.9z"/>
						</g>
					</g>
					<g>
						<g>
							<path class="st3" d="M466.4,424.9c-0.1,0-0.2-2.2-0.2-4.9c0-2.7,0.1-4.9,0.2-4.9s0.2,2.2,0.2,4.9
								C466.6,422.7,466.5,424.9,466.4,424.9z"/>
						</g>
					</g>
					<g>
						<g>
							<path class="st3" d="M463.4,424.9c-0.1,0-0.2-2.2-0.2-4.9c0-2.7,0.1-4.9,0.2-4.9c0.1,0,0.2,2.2,0.2,4.9
								C463.7,422.7,463.6,424.9,463.4,424.9z"/>
						</g>
					</g>
				</g>
				<g>
					<g>
						<path class="st3" d="M469.7,414.9c0,0.1-12.2,0.2-27.3,0.2c-15.1,0-27.3-0.1-27.3-0.2c0-0.1,12.2-0.2,27.3-0.2
							C457.5,414.7,469.7,414.8,469.7,414.9z"/>
					</g>
				</g>
			</g>
		</g>
		<g class="st5">
			<g>
				<path d="M426.2,405.1c8.1,2,16.8,2.4,25.1,1.8c8.4-0.6,16.8-1.8,25.2-1.7L426.2,405.1z"/>
			</g>
		</g>
		<g class="st5">
			<g>
				<path d="M415.9,415.1c8.1,2,16.8,2.4,25.1,1.8c8.4-0.6,16.8-1.8,25.2-1.7L415.9,415.1z"/>
			</g>
		</g>
	</g>
	<g>
		<g>
			<ellipse class="st8" cx="424.3" cy="395.8" rx="0.7" ry="0.2"/>
		</g>
	</g>
	<g>
		<g>
			<path class="st8" d="M432.5,395.8c0,0.1-1.4,0.2-3.1,0.2c-1.7,0-3.1-0.1-3.1-0.2s1.4-0.2,3.1-0.2
				C431.1,395.6,432.5,395.7,432.5,395.8z"/>
		</g>
	</g>
	<g>
		<g>
			<path class="st8" d="M441.1,395.8c0,0.1-1.4,0.2-3.1,0.2c-1.7,0-3.1-0.1-3.1-0.2s1.4-0.2,3.1-0.2
				C439.7,395.6,441.1,395.7,441.1,395.8z"/>
		</g>
	</g>
</g>
<g>
	<g>
		<g>
			<g>
				<g>
					<g>
						<rect x="94.1" y="375.4" class="st6" width="54.4" height="9.9"/>
					</g>
					<g>
						<g>
							<path class="st3" d="M99.4,385.3c-0.1,0-0.2-2.2-0.2-4.9c0-2.7,0.1-4.9,0.2-4.9s0.2,2.2,0.2,4.9
								C99.7,383.1,99.6,385.3,99.4,385.3z"/>
						</g>
					</g>
					<g>
						<g>
							<path class="st3" d="M96.5,385.3c-0.1,0-0.2-2.2-0.2-4.9c0-2.7,0.1-4.9,0.2-4.9c0.1,0,0.2,2.2,0.2,4.9
								C96.7,383.1,96.6,385.3,96.5,385.3z"/>
						</g>
					</g>
					<g>
						<g>
							<path class="st3" d="M106,385.3c-0.1,0-0.2-2.2-0.2-4.9c0-2.7,0.1-4.9,0.2-4.9c0.1,0,0.2,2.2,0.2,4.9
								C106.2,383.1,106.1,385.3,106,385.3z"/>
						</g>
					</g>
					<g>
						<g>
							<path class="st3" d="M103,385.3c-0.1,0-0.2-2.2-0.2-4.9c0-2.7,0.1-4.9,0.2-4.9c0.1,0,0.2,2.2,0.2,4.9
								C103.2,383.1,103.1,385.3,103,385.3z"/>
						</g>
					</g>
					<g>
						<g>
							<path class="st3" d="M112.5,385.3c-0.1,0-0.2-2.2-0.2-4.9c0-2.7,0.1-4.9,0.2-4.9s0.2,2.2,0.2,4.9
								C112.8,383.1,112.7,385.3,112.5,385.3z"/>
						</g>
					</g>
					<g>
						<g>
							<path class="st3" d="M109.6,385.3c-0.1,0-0.2-2.2-0.2-4.9c0-2.7,0.1-4.9,0.2-4.9c0.1,0,0.2,2.2,0.2,4.9
								C109.8,383.1,109.7,385.3,109.6,385.3z"/>
						</g>
					</g>
					<g>
						<g>
							<path class="st3" d="M119.1,385.3c-0.1,0-0.2-2.2-0.2-4.9c0-2.7,0.1-4.9,0.2-4.9c0.1,0,0.2,2.2,0.2,4.9
								C119.3,383.1,119.2,385.3,119.1,385.3z"/>
						</g>
					</g>
					<g>
						<g>
							<path class="st3" d="M116.1,385.3c-0.1,0-0.2-2.2-0.2-4.9c0-2.7,0.1-4.9,0.2-4.9c0.1,0,0.2,2.2,0.2,4.9
								C116.3,383.1,116.2,385.3,116.1,385.3z"/>
						</g>
					</g>
					<g>
						<g>
							<path class="st3" d="M125.6,385.3c-0.1,0-0.2-2.2-0.2-4.9c0-2.7,0.1-4.9,0.2-4.9c0.1,0,0.2,2.2,0.2,4.9
								C125.8,383.1,125.7,385.3,125.6,385.3z"/>
						</g>
					</g>
					<g>
						<g>
							<path class="st3" d="M122.6,385.3c-0.1,0-0.2-2.2-0.2-4.9c0-2.7,0.1-4.9,0.2-4.9c0.1,0,0.2,2.2,0.2,4.9
								C122.9,383.1,122.8,385.3,122.6,385.3z"/>
						</g>
					</g>
					<g>
						<g>
							<path class="st3" d="M132.2,385.3c-0.1,0-0.2-2.2-0.2-4.9c0-2.7,0.1-4.9,0.2-4.9c0.1,0,0.2,2.2,0.2,4.9
								C132.4,383.1,132.3,385.3,132.2,385.3z"/>
						</g>
					</g>
					<g>
						<g>
							<path class="st3" d="M129.2,385.3c-0.1,0-0.2-2.2-0.2-4.9c0-2.7,0.1-4.9,0.2-4.9c0.1,0,0.2,2.2,0.2,4.9
								C129.4,383.1,129.3,385.3,129.2,385.3z"/>
						</g>
					</g>
					<g>
						<g>
							<path class="st3" d="M138.7,385.3c-0.1,0-0.2-2.2-0.2-4.9c0-2.7,0.1-4.9,0.2-4.9c0.1,0,0.2,2.2,0.2,4.9
								C138.9,383.1,138.8,385.3,138.7,385.3z"/>
						</g>
					</g>
					<g>
						<g>
							<path class="st3" d="M135.7,385.3c-0.1,0-0.2-2.2-0.2-4.9c0-2.7,0.1-4.9,0.2-4.9c0.1,0,0.2,2.2,0.2,4.9
								C135.9,383.1,135.8,385.3,135.7,385.3z"/>
						</g>
					</g>
					<g>
						<g>
							<path class="st3" d="M145.2,385.3c-0.1,0-0.2-2.2-0.2-4.9c0-2.7,0.1-4.9,0.2-4.9c0.1,0,0.2,2.2,0.2,4.9
								C145.5,383.1,145.4,385.3,145.2,385.3z"/>
						</g>
					</g>
					<g>
						<g>
							<path class="st3" d="M142.3,385.3c-0.1,0-0.2-2.2-0.2-4.9c0-2.7,0.1-4.9,0.2-4.9c0.1,0,0.2,2.2,0.2,4.9
								C142.5,383.1,142.4,385.3,142.3,385.3z"/>
						</g>
					</g>
				</g>
				<g>
					<g>
						<path class="st3" d="M148.6,375.4c0,0.1-12.2,0.2-27.3,0.2c-15.1,0-27.3-0.1-27.3-0.2s12.2-0.2,27.3-0.2
							C136.3,375.2,148.6,375.3,148.6,375.4z"/>
					</g>
				</g>
			</g>
			<g>
				<g>
					<g>
						<rect x="90.6" y="385.4" class="st6" width="54.4" height="9.9"/>
					</g>
					<g>
						<g>
							<path class="st3" d="M95.9,395.4c-0.1,0-0.2-2.2-0.2-4.9c0-2.7,0.1-4.9,0.2-4.9s0.2,2.2,0.2,4.9
								C96.1,393.2,96,395.4,95.9,395.4z"/>
						</g>
					</g>
					<g>
						<g>
							<path class="st3" d="M92.9,395.4c-0.1,0-0.2-2.2-0.2-4.9c0-2.7,0.1-4.9,0.2-4.9s0.2,2.2,0.2,4.9
								C93.1,393.2,93,395.4,92.9,395.4z"/>
						</g>
					</g>
					<g>
						<g>
							<path class="st3" d="M102.4,395.4c-0.1,0-0.2-2.2-0.2-4.9c0-2.7,0.1-4.9,0.2-4.9c0.1,0,0.2,2.2,0.2,4.9
								C102.7,393.2,102.6,395.4,102.4,395.4z"/>
						</g>
					</g>
					<g>
						<g>
							<path class="st3" d="M99.4,395.4c-0.1,0-0.2-2.2-0.2-4.9c0-2.7,0.1-4.9,0.2-4.9s0.2,2.2,0.2,4.9
								C99.7,393.2,99.6,395.4,99.4,395.4z"/>
						</g>
					</g>
					<g>
						<g>
							<path class="st3" d="M109,395.4c-0.1,0-0.2-2.2-0.2-4.9c0-2.7,0.1-4.9,0.2-4.9s0.2,2.2,0.2,4.9
								C109.2,393.2,109.1,395.4,109,395.4z"/>
						</g>
					</g>
					<g>
						<g>
							<path class="st3" d="M106,395.4c-0.1,0-0.2-2.2-0.2-4.9c0-2.7,0.1-4.9,0.2-4.9c0.1,0,0.2,2.2,0.2,4.9
								C106.2,393.2,106.1,395.4,106,395.4z"/>
						</g>
					</g>
					<g>
						<g>
							<path class="st3" d="M115.5,395.4c-0.1,0-0.2-2.2-0.2-4.9c0-2.7,0.1-4.9,0.2-4.9c0.1,0,0.2,2.2,0.2,4.9
								C115.7,393.2,115.6,395.4,115.5,395.4z"/>
						</g>
					</g>
					<g>
						<g>
							<path class="st3" d="M112.5,395.4c-0.1,0-0.2-2.2-0.2-4.9c0-2.7,0.1-4.9,0.2-4.9s0.2,2.2,0.2,4.9
								C112.8,393.2,112.7,395.4,112.5,395.4z"/>
						</g>
					</g>
					<g>
						<g>
							<path class="st3" d="M122.1,395.4c-0.1,0-0.2-2.2-0.2-4.9c0-2.7,0.1-4.9,0.2-4.9s0.2,2.2,0.2,4.9
								C122.3,393.2,122.2,395.4,122.1,395.4z"/>
						</g>
					</g>
					<g>
						<g>
							<path class="st3" d="M119.1,395.4c-0.1,0-0.2-2.2-0.2-4.9c0-2.7,0.1-4.9,0.2-4.9c0.1,0,0.2,2.2,0.2,4.9
								C119.3,393.2,119.2,395.4,119.1,395.4z"/>
						</g>
					</g>
					<g>
						<g>
							<path class="st3" d="M128.6,395.4c-0.1,0-0.2-2.2-0.2-4.9c0-2.7,0.1-4.9,0.2-4.9s0.2,2.2,0.2,4.9
								C128.8,393.2,128.7,395.4,128.6,395.4z"/>
						</g>
					</g>
					<g>
						<g>
							<path class="st3" d="M125.6,395.4c-0.1,0-0.2-2.2-0.2-4.9c0-2.7,0.1-4.9,0.2-4.9c0.1,0,0.2,2.2,0.2,4.9
								C125.8,393.2,125.7,395.4,125.6,395.4z"/>
						</g>
					</g>
					<g>
						<g>
							<path class="st3" d="M135.1,395.4c-0.1,0-0.2-2.2-0.2-4.9c0-2.7,0.1-4.9,0.2-4.9s0.2,2.2,0.2,4.9
								C135.4,393.2,135.3,395.4,135.1,395.4z"/>
						</g>
					</g>
					<g>
						<g>
							<path class="st3" d="M132.2,395.4c-0.1,0-0.2-2.2-0.2-4.9c0-2.7,0.1-4.9,0.2-4.9c0.1,0,0.2,2.2,0.2,4.9
								C132.4,393.2,132.3,395.4,132.2,395.4z"/>
						</g>
					</g>
					<g>
						<g>
							<path class="st3" d="M141.7,395.4c-0.1,0-0.2-2.2-0.2-4.9c0-2.7,0.1-4.9,0.2-4.9c0.1,0,0.2,2.2,0.2,4.9
								C141.9,393.2,141.8,395.4,141.7,395.4z"/>
						</g>
					</g>
					<g>
						<g>
							<path class="st3" d="M138.7,395.4c-0.1,0-0.2-2.2-0.2-4.9c0-2.7,0.1-4.9,0.2-4.9c0.1,0,0.2,2.2,0.2,4.9
								C138.9,393.2,138.8,395.4,138.7,395.4z"/>
						</g>
					</g>
				</g>
				<g>
					<g>
						<path class="st3" d="M145,385.4c0,0.1-12.2,0.2-27.3,0.2c-15.1,0-27.3-0.1-27.3-0.2c0-0.1,12.2-0.2,27.3-0.2
							C132.7,385.2,145,385.3,145,385.4z"/>
					</g>
				</g>
			</g>
			<g>
				<g>
					<g>
						<rect x="95" y="395.4" class="st6" width="54.4" height="9.9"/>
					</g>
					<g>
						<g>
							<path class="st3" d="M100.3,405.3c-0.1,0-0.2-2.2-0.2-4.9c0-2.7,0.1-4.9,0.2-4.9c0.1,0,0.2,2.2,0.2,4.9
								C100.6,403.1,100.5,405.3,100.3,405.3z"/>
						</g>
					</g>
					<g>
						<g>
							<path class="st3" d="M97.4,405.3c-0.1,0-0.2-2.2-0.2-4.9c0-2.7,0.1-4.9,0.2-4.9s0.2,2.2,0.2,4.9
								C97.6,403.1,97.5,405.3,97.4,405.3z"/>
						</g>
					</g>
					<g>
						<g>
							<path class="st3" d="M106.9,405.3c-0.1,0-0.2-2.2-0.2-4.9c0-2.7,0.1-4.9,0.2-4.9s0.2,2.2,0.2,4.9
								C107.1,403.1,107,405.3,106.9,405.3z"/>
						</g>
					</g>
					<g>
						<g>
							<path class="st3" d="M103.9,405.3c-0.1,0-0.2-2.2-0.2-4.9c0-2.7,0.1-4.9,0.2-4.9c0.1,0,0.2,2.2,0.2,4.9
								C104.1,403.1,104,405.3,103.9,405.3z"/>
						</g>
					</g>
					<g>
						<g>
							<path class="st3" d="M113.4,405.3c-0.1,0-0.2-2.2-0.2-4.9c0-2.7,0.1-4.9,0.2-4.9s0.2,2.2,0.2,4.9
								C113.6,403.1,113.5,405.3,113.4,405.3z"/>
						</g>
					</g>
					<g>
						<g>
							<path class="st3" d="M110.4,405.3c-0.1,0-0.2-2.2-0.2-4.9c0-2.7,0.1-4.9,0.2-4.9s0.2,2.2,0.2,4.9
								C110.7,403.1,110.6,405.3,110.4,405.3z"/>
						</g>
					</g>
					<g>
						<g>
							<path class="st3" d="M120,405.3c-0.1,0-0.2-2.2-0.2-4.9c0-2.7,0.1-4.9,0.2-4.9s0.2,2.2,0.2,4.9
								C120.2,403.1,120.1,405.3,120,405.3z"/>
						</g>
					</g>
					<g>
						<g>
							<path class="st3" d="M117,405.3c-0.1,0-0.2-2.2-0.2-4.9c0-2.7,0.1-4.9,0.2-4.9c0.1,0,0.2,2.2,0.2,4.9
								C117.2,403.1,117.1,405.3,117,405.3z"/>
						</g>
					</g>
					<g>
						<g>
							<path class="st3" d="M126.5,405.3c-0.1,0-0.2-2.2-0.2-4.9c0-2.7,0.1-4.9,0.2-4.9s0.2,2.2,0.2,4.9
								C126.7,403.1,126.6,405.3,126.5,405.3z"/>
						</g>
					</g>
					<g>
						<g>
							<path class="st3" d="M123.5,405.3c-0.1,0-0.2-2.2-0.2-4.9c0-2.7,0.1-4.9,0.2-4.9s0.2,2.2,0.2,4.9
								C123.8,403.1,123.6,405.3,123.5,405.3z"/>
						</g>
					</g>
					<g>
						<g>
							<path class="st3" d="M133,405.3c-0.1,0-0.2-2.2-0.2-4.9c0-2.7,0.1-4.9,0.2-4.9s0.2,2.2,0.2,4.9
								C133.3,403.1,133.2,405.3,133,405.3z"/>
						</g>
					</g>
					<g>
						<g>
							<path class="st3" d="M130.1,405.3c-0.1,0-0.2-2.2-0.2-4.9c0-2.7,0.1-4.9,0.2-4.9s0.2,2.2,0.2,4.9
								C130.3,403.1,130.2,405.3,130.1,405.3z"/>
						</g>
					</g>
					<g>
						<g>
							<path class="st3" d="M139.6,405.3c-0.1,0-0.2-2.2-0.2-4.9c0-2.7,0.1-4.9,0.2-4.9s0.2,2.2,0.2,4.9
								C139.8,403.1,139.7,405.3,139.6,405.3z"/>
						</g>
					</g>
					<g>
						<g>
							<path class="st3" d="M136.6,405.3c-0.1,0-0.2-2.2-0.2-4.9c0-2.7,0.1-4.9,0.2-4.9s0.2,2.2,0.2,4.9
								C136.8,403.1,136.7,405.3,136.6,405.3z"/>
						</g>
					</g>
					<g>
						<g>
							<path class="st3" d="M146.1,405.3c-0.1,0-0.2-2.2-0.2-4.9c0-2.7,0.1-4.9,0.2-4.9s0.2,2.2,0.2,4.9
								C146.4,403.1,146.3,405.3,146.1,405.3z"/>
						</g>
					</g>
					<g>
						<g>
							<path class="st3" d="M143.1,405.3c-0.1,0-0.2-2.2-0.2-4.9c0-2.7,0.1-4.9,0.2-4.9s0.2,2.2,0.2,4.9
								C143.4,403.1,143.3,405.3,143.1,405.3z"/>
						</g>
					</g>
				</g>
				<g>
					<g>
						<path class="st3" d="M149.4,395.4c0,0.1-12.3,0.2-27.4,0.2c-15.1,0-27.4-0.1-27.4-0.2c0-0.1,12.3-0.2,27.4-0.2
							C137.2,395.2,149.4,395.3,149.4,395.4z"/>
					</g>
				</g>
			</g>
			<g>
				<g>
					<g>
						<rect x="90.7" y="405.2" class="st6" width="54.4" height="9.9"/>
					</g>
					<g>
						<g>
							<path class="st3" d="M96.1,415.1c-0.1,0-0.2-2.2-0.2-4.9c0-2.7,0.1-4.9,0.2-4.9s0.2,2.2,0.2,4.9
								C96.3,413,96.2,415.1,96.1,415.1z"/>
						</g>
					</g>
					<g>
						<g>
							<path class="st3" d="M93.1,415.1c-0.1,0-0.2-2.2-0.2-4.9c0-2.7,0.1-4.9,0.2-4.9c0.1,0,0.2,2.2,0.2,4.9
								C93.3,413,93.2,415.1,93.1,415.1z"/>
						</g>
					</g>
					<g>
						<g>
							<path class="st3" d="M102.6,415.1c-0.1,0-0.2-2.2-0.2-4.9c0-2.7,0.1-4.9,0.2-4.9s0.2,2.2,0.2,4.9
								C102.8,413,102.7,415.1,102.6,415.1z"/>
						</g>
					</g>
					<g>
						<g>
							<path class="st3" d="M99.6,415.1c-0.1,0-0.2-2.2-0.2-4.9c0-2.7,0.1-4.9,0.2-4.9c0.1,0,0.2,2.2,0.2,4.9
								C99.9,413,99.8,415.1,99.6,415.1z"/>
						</g>
					</g>
					<g>
						<g>
							<path class="st3" d="M109.2,415.1c-0.1,0-0.2-2.2-0.2-4.9c0-2.7,0.1-4.9,0.2-4.9c0.1,0,0.2,2.2,0.2,4.9
								C109.4,413,109.3,415.1,109.2,415.1z"/>
						</g>
					</g>
					<g>
						<g>
							<path class="st3" d="M106.2,415.1c-0.1,0-0.2-2.2-0.2-4.9c0-2.7,0.1-4.9,0.2-4.9s0.2,2.2,0.2,4.9
								C106.4,413,106.3,415.1,106.2,415.1z"/>
						</g>
					</g>
					<g>
						<g>
							<path class="st3" d="M115.7,415.1c-0.1,0-0.2-2.2-0.2-4.9c0-2.7,0.1-4.9,0.2-4.9s0.2,2.2,0.2,4.9
								C115.9,413,115.8,415.1,115.7,415.1z"/>
						</g>
					</g>
					<g>
						<g>
							<path class="st3" d="M112.7,415.1c-0.1,0-0.2-2.2-0.2-4.9c0-2.7,0.1-4.9,0.2-4.9c0.1,0,0.2,2.2,0.2,4.9
								C112.9,413,112.8,415.1,112.7,415.1z"/>
						</g>
					</g>
					<g>
						<g>
							<path class="st3" d="M122.2,415.1c-0.1,0-0.2-2.2-0.2-4.9c0-2.7,0.1-4.9,0.2-4.9c0.1,0,0.2,2.2,0.2,4.9
								C122.5,413,122.4,415.1,122.2,415.1z"/>
						</g>
					</g>
					<g>
						<g>
							<path class="st3" d="M119.3,415.1c-0.1,0-0.2-2.2-0.2-4.9c0-2.7,0.1-4.9,0.2-4.9s0.2,2.2,0.2,4.9
								C119.5,413,119.4,415.1,119.3,415.1z"/>
						</g>
					</g>
					<g>
						<g>
							<path class="st3" d="M128.8,415.1c-0.1,0-0.2-2.2-0.2-4.9c0-2.7,0.1-4.9,0.2-4.9s0.2,2.2,0.2,4.9
								C129,413,128.9,415.1,128.8,415.1z"/>
						</g>
					</g>
					<g>
						<g>
							<path class="st3" d="M125.8,415.1c-0.1,0-0.2-2.2-0.2-4.9c0-2.7,0.1-4.9,0.2-4.9c0.1,0,0.2,2.2,0.2,4.9
								C126,413,125.9,415.1,125.8,415.1z"/>
						</g>
					</g>
					<g>
						<g>
							<path class="st3" d="M135.3,415.1c-0.1,0-0.2-2.2-0.2-4.9c0-2.7,0.1-4.9,0.2-4.9c0.1,0,0.2,2.2,0.2,4.9
								C135.5,413,135.4,415.1,135.3,415.1z"/>
						</g>
					</g>
					<g>
						<g>
							<path class="st3" d="M132.3,415.1c-0.1,0-0.2-2.2-0.2-4.9c0-2.7,0.1-4.9,0.2-4.9s0.2,2.2,0.2,4.9
								C132.6,413,132.5,415.1,132.3,415.1z"/>
						</g>
					</g>
					<g>
						<g>
							<path class="st3" d="M141.9,415.1c-0.1,0-0.2-2.2-0.2-4.9c0-2.7,0.1-4.9,0.2-4.9c0.1,0,0.2,2.2,0.2,4.9
								C142.1,413,142,415.1,141.9,415.1z"/>
						</g>
					</g>
					<g>
						<g>
							<path class="st3" d="M138.9,415.1c-0.1,0-0.2-2.2-0.2-4.9c0-2.7,0.1-4.9,0.2-4.9s0.2,2.2,0.2,4.9
								C139.1,413,139,415.1,138.9,415.1z"/>
						</g>
					</g>
				</g>
				<g>
					<g>
						<path class="st3" d="M145.2,405.2c0,0.1-12.2,0.2-27.3,0.2c-15.1,0-27.3-0.1-27.3-0.2c0-0.1,12.2-0.2,27.3-0.2
							C132.9,405,145.2,405.1,145.2,405.2z"/>
					</g>
				</g>
			</g>
			<g>
				<g>
					<g>
						<rect x="96.2" y="415.2" class="st6" width="54.4" height="9.9"/>
					</g>
					<g>
						<g>
							<path class="st3" d="M101.5,425.2c-0.1,0-0.2-2.2-0.2-4.9c0-2.7,0.1-4.9,0.2-4.9c0.1,0,0.2,2.2,0.2,4.9
								C101.7,423,101.6,425.2,101.5,425.2z"/>
						</g>
					</g>
					<g>
						<g>
							<path class="st3" d="M98.5,425.2c-0.1,0-0.2-2.2-0.2-4.9c0-2.7,0.1-4.9,0.2-4.9c0.1,0,0.2,2.2,0.2,4.9
								C98.8,423,98.7,425.2,98.5,425.2z"/>
						</g>
					</g>
					<g>
						<g>
							<path class="st3" d="M108.1,425.2c-0.1,0-0.2-2.2-0.2-4.9c0-2.7,0.1-4.9,0.2-4.9c0.1,0,0.2,2.2,0.2,4.9
								C108.3,423,108.2,425.2,108.1,425.2z"/>
						</g>
					</g>
					<g>
						<g>
							<path class="st3" d="M105.1,425.2c-0.1,0-0.2-2.2-0.2-4.9c0-2.7,0.1-4.9,0.2-4.9c0.1,0,0.2,2.2,0.2,4.9
								C105.3,423,105.2,425.2,105.1,425.2z"/>
						</g>
					</g>
					<g>
						<g>
							<path class="st3" d="M114.6,425.2c-0.1,0-0.2-2.2-0.2-4.9c0-2.7,0.1-4.9,0.2-4.9c0.1,0,0.2,2.2,0.2,4.9
								C114.8,423,114.7,425.2,114.6,425.2z"/>
						</g>
					</g>
					<g>
						<g>
							<path class="st3" d="M111.6,425.2c-0.1,0-0.2-2.2-0.2-4.9c0-2.7,0.1-4.9,0.2-4.9c0.1,0,0.2,2.2,0.2,4.9
								C111.9,423,111.8,425.2,111.6,425.2z"/>
						</g>
					</g>
					<g>
						<g>
							<path class="st3" d="M121.1,425.2c-0.1,0-0.2-2.2-0.2-4.9c0-2.7,0.1-4.9,0.2-4.9c0.1,0,0.2,2.2,0.2,4.9
								C121.4,423,121.3,425.2,121.1,425.2z"/>
						</g>
					</g>
					<g>
						<g>
							<path class="st3" d="M118.2,425.2c-0.1,0-0.2-2.2-0.2-4.9c0-2.7,0.1-4.9,0.2-4.9s0.2,2.2,0.2,4.9
								C118.4,423,118.3,425.2,118.2,425.2z"/>
						</g>
					</g>
					<g>
						<g>
							<path class="st3" d="M127.7,425.2c-0.1,0-0.2-2.2-0.2-4.9c0-2.7,0.1-4.9,0.2-4.9c0.1,0,0.2,2.2,0.2,4.9
								C127.9,423,127.8,425.2,127.7,425.2z"/>
						</g>
					</g>
					<g>
						<g>
							<path class="st3" d="M124.7,425.2c-0.1,0-0.2-2.2-0.2-4.9c0-2.7,0.1-4.9,0.2-4.9c0.1,0,0.2,2.2,0.2,4.9
								C124.9,423,124.8,425.2,124.7,425.2z"/>
						</g>
					</g>
					<g>
						<g>
							<path class="st3" d="M134.2,425.2c-0.1,0-0.2-2.2-0.2-4.9c0-2.7,0.1-4.9,0.2-4.9c0.1,0,0.2,2.2,0.2,4.9
								C134.5,423,134.4,425.2,134.2,425.2z"/>
						</g>
					</g>
					<g>
						<g>
							<path class="st3" d="M131.3,425.2c-0.1,0-0.2-2.2-0.2-4.9c0-2.7,0.1-4.9,0.2-4.9s0.2,2.2,0.2,4.9
								C131.5,423,131.4,425.2,131.3,425.2z"/>
						</g>
					</g>
					<g>
						<g>
							<path class="st3" d="M140.8,425.2c-0.1,0-0.2-2.2-0.2-4.9c0-2.7,0.1-4.9,0.2-4.9c0.1,0,0.2,2.2,0.2,4.9
								C141,423,140.9,425.2,140.8,425.2z"/>
						</g>
					</g>
					<g>
						<g>
							<path class="st3" d="M137.8,425.2c-0.1,0-0.2-2.2-0.2-4.9c0-2.7,0.1-4.9,0.2-4.9c0.1,0,0.2,2.2,0.2,4.9
								C138,423,137.9,425.2,137.8,425.2z"/>
						</g>
					</g>
					<g>
						<g>
							<path class="st3" d="M147.3,425.2c-0.1,0-0.2-2.2-0.2-4.9c0-2.7,0.1-4.9,0.2-4.9c0.1,0,0.2,2.2,0.2,4.9
								C147.5,423,147.4,425.2,147.3,425.2z"/>
						</g>
					</g>
					<g>
						<g>
							<path class="st3" d="M144.3,425.2c-0.1,0-0.2-2.2-0.2-4.9c0-2.7,0.1-4.9,0.2-4.9s0.2,2.2,0.2,4.9
								C144.6,423,144.5,425.2,144.3,425.2z"/>
						</g>
					</g>
				</g>
				<g>
					<g>
						<path class="st3" d="M150.6,415.2c0,0.1-12.2,0.2-27.3,0.2c-15.1,0-27.3-0.1-27.3-0.2c0-0.1,12.2-0.2,27.3-0.2
							C138.4,415,150.6,415.1,150.6,415.2z"/>
					</g>
				</g>
			</g>
		</g>
		<g class="st5">
			<g>
				<path d="M95,395.4c8.1,2,16.8,2.4,25.1,1.8c8.4-0.6,16.8-1.8,25.2-1.7L95,395.4z"/>
			</g>
		</g>
		<g class="st5">
			<g>
				<path d="M95.5,385.5c8.1,2,16.8,2.4,25.1,1.8c8.4-0.6,16.8-1.8,25.2-1.7L95.5,385.5z"/>
			</g>
		</g>
		<g class="st5">
			<g>
				<path d="M98.1,405.3c8.1,2,16.8,2.4,25.1,1.8c8.4-0.6,16.8-1.8,25.2-1.7L98.1,405.3z"/>
			</g>
		</g>
		<g class="st5">
			<g>
				<path d="M96,415.2c8.1,2,16.8,2.4,25.1,1.8c8.4-0.6,16.8-1.8,25.2-1.7L96,415.2z"/>
			</g>
		</g>
	</g>
	<g>
		<g>
			<path class="st8" d="M95.1,382.2c-0.1,0-0.2-1.2-0.2-2.7c0-1.5,0.1-2.7,0.2-2.7c0.1,0,0.2,1.2,0.2,2.7
				C95.3,380.9,95.2,382.2,95.1,382.2z"/>
		</g>
	</g>
	<g>
		<g>
			<path class="st8" d="M91.7,392.7c-0.1,0-0.2-1.3-0.2-2.9c0-1.6,0.1-2.9,0.2-2.9c0.1,0,0.2,1.3,0.2,2.9
				C91.9,391.4,91.8,392.7,91.7,392.7z"/>
		</g>
	</g>
	<g>
		<g>
			<path class="st8" d="M96.6,402.9c-0.1,0-0.2-1.2-0.2-2.6c0-1.4,0.1-2.6,0.2-2.6s0.2,1.2,0.2,2.6
				C96.8,401.7,96.7,402.9,96.6,402.9z"/>
		</g>
	</g>
	<g>
		<g>
			<path class="st8" d="M91.5,412.3c-0.1,0-0.2-1-0.2-2.3c0-1.3,0.1-2.3,0.2-2.3c0.1,0,0.2,1,0.2,2.3
				C91.8,411.2,91.7,412.3,91.5,412.3z"/>
		</g>
	</g>
	<g>
		<g>
			<path class="st8" d="M111.5,386.2c0,0.1-4,0.2-9,0.2c-5,0-9-0.1-9-0.2s4-0.2,9-0.2C107.5,386,111.5,386.1,111.5,386.2z"/>
		</g>
	</g>
	<g>
		<g>
			<path class="st8" d="M117.3,376.7c0,0.1-4.1,0.2-9,0.2c-5,0-9-0.1-9-0.2c0-0.1,4-0.2,9-0.2C113.2,376.5,117.3,376.6,117.3,376.7z
				"/>
		</g>
	</g>
	<g>
		<g>
			<path class="st8" d="M126,376.9c0,0.1-1.3,0.2-3,0.2c-1.6,0-3-0.1-3-0.2c0-0.1,1.3-0.2,3-0.2C124.7,376.6,126,376.7,126,376.9z"
				/>
		</g>
	</g>
</g>
</svg>
