<svg xmlns="http://www.w3.org/2000/svg" viewBox="0 0 101.11 101.1"><defs><style>.cls-1{fill:#fff;}</style></defs><g id="Layer_2" data-name="Layer 2"><g id="Layer_1-2" data-name="Layer 1"><path class="cls-1" d="M59.27,44a3.95,3.95,0,1,0-4-3.94A4,4,0,0,0,59.27,44Zm-11.88-4a3.95,3.95,0,1,0-3.94,4A4,4,0,0,0,47.39,40.07ZM27.68,44a3.95,3.95,0,1,0-4-3.94A4,4,0,0,0,27.68,44Z"/><path class="cls-1" d="M45.42,0C47,.19,48.55.33,50.1.56A43,43,0,0,1,78.59,17,35.78,35.78,0,0,1,86.1,35a3.1,3.1,0,0,0,1.41,2.37,31.93,31.93,0,0,1,13,19.59c.27,1.27.42,2.58.63,3.87v4.74c-.19,1.06-.36,2.12-.55,3.18a29.6,29.6,0,0,1-5,11.81,1.65,1.65,0,0,0-.2,1.8c1.92,4.66,3.8,9.34,5.7,14V98a14.51,14.51,0,0,1-.65,1.31c-1.2,1.82-3.09,2.3-5.29,1.34C90,98.35,84.83,96.05,79.64,93.8a2.61,2.61,0,0,0-1.47-.08c-2.79.59-5.54,1.58-8.36,1.8-14.39,1.15-26.12-3.7-34.5-15.8A2,2,0,0,0,34.24,79c-2.2-.65-4.44-1.21-6.63-1.88a2.31,2.31,0,0,0-1.77.08C19.24,80.15,12.63,83.08,6,85.94a5.27,5.27,0,0,1-2.75.45C.61,86-.62,83.36.45,80.68c1.37-3.45,2.78-6.89,4.17-10.33,1.3-3.2,2.57-6.4,3.89-9.59a3.94,3.94,0,1,1,7.33,2.88c-1.32,3.4-2.72,6.77-4.08,10.15-.13.32-.24.65-.42,1.15.48-.19.77-.3,1.06-.43,4-1.77,8.07-3.53,12.08-5.33a5.39,5.39,0,0,1,4.1-.16A71.25,71.25,0,0,0,37,71.37a35.66,35.66,0,0,0,17.55-1.14A34.43,34.43,0,0,0,74.4,54.59a27.94,27.94,0,0,0,4-18.17A29.83,29.83,0,0,0,68.06,17.2c-9.19-8-20-10.66-31.9-8.61A34.6,34.6,0,0,0,16.55,19,29.87,29.87,0,0,0,7.93,40.8c0,1.41.3,2.82.34,4.23a3.92,3.92,0,0,1-7.6,1.39,9.33,9.33,0,0,1-.33-1.84,35.36,35.36,0,0,1,4-22c6.93-12.7,17.88-19.71,32-22C37.87.32,39.48.19,41.07,0Zm7,84.7a29.39,29.39,0,0,0,24.27,1.11A5.82,5.82,0,0,1,81.6,86c2.34,1.12,4.74,2.11,7.12,3.16l1.08.43c-.52-1.33-1-2.44-1.41-3.55s-.79-2-1.24-3a4.93,4.93,0,0,1,.73-5.33,29.31,29.31,0,0,0,3.56-6c3.18-7.84,2.06-15.26-2.75-22.15-.77-1.1-1.7-2.08-2.58-3.13C80.45,67.1,66.48,77.57,45.73,80A24,24,0,0,0,52.4,84.7Z"/><path class="cls-1" d="M55.3,40.1a3.95,3.95,0,1,0,4-4A4,4,0,0,0,55.3,40.1Z"/><path class="cls-1" d="M43.45,44a3.95,3.95,0,1,0-4-4A4,4,0,0,0,43.45,44Z"/><path class="cls-1" d="M23.7,40.1a3.95,3.95,0,1,0,4-4A4,4,0,0,0,23.7,40.1Z"/></g></g></svg>