<?xml version="1.0" encoding="utf-8"?>
<!-- Generator: Adobe Illustrator 22.0.0, SVG Export Plug-In . SVG Version: 6.00 Build 0)  -->
<svg version="1.1" id="Layer_1" xmlns="http://www.w3.org/2000/svg" xmlns:xlink="http://www.w3.org/1999/xlink" x="0px" y="0px"
	 viewBox="0 0 577 478" style="enable-background:new 0 0 577 478;" xml:space="preserve">
<style type="text/css">
	.st0{fill:#FF5555;}
	.st1{fill:#FFFFFF;}
	.st2{fill:#D2DDFF;}
	.st3{fill:#FFD1AB;}
	.st4{fill:#121936;}
	.st5{opacity:0.84;}
	.st6{fill:#FFAA89;}
	.st7{fill:#FF6A48;}
	.st8{fill:none;stroke:#121936;stroke-width:5;stroke-linecap:round;stroke-linejoin:round;stroke-miterlimit:10;}
	.st9{fill:none;stroke:#FF6969;stroke-width:5;stroke-linecap:round;stroke-linejoin:round;stroke-miterlimit:10;}
	.st10{fill:#FFA386;}
	.st11{fill:#FFD066;}
	.st12{fill:#F4F2ED;}
	.st13{fill:none;stroke:#FAF8F3;stroke-width:0;stroke-linecap:round;stroke-linejoin:round;}
	.st14{fill:#FAF8F3;}
	.st15{fill:none;stroke:#121936;stroke-width:0;stroke-linecap:round;stroke-linejoin:round;}
	.st16{fill:#233863;}
</style>
<g>
	<g>
		<g>
			<g>
				<g>
					<path class="st0" d="M102.9,147.8l-7.5,5.8c-1.8,1.4-4.2,1.5-6.1,0.3c-0.9-0.6-1.8-1.1-2.7-1.5c-2-1-3.1-3.2-2.9-5.4l1.2-9.4
						c0.4-2.9-1.7-5.6-4.6-5.9l-8.3-1.1c-2.9-0.4-5.6,1.7-5.9,4.6l-1.2,9.4c-0.3,2.2-2,4-4.1,4.5c-1,0.2-2,0.5-3,0.8
						c-2.1,0.7-4.4-0.1-5.8-1.8l-5.8-7.5c-1.8-2.3-5.1-2.8-7.4-1l-6.6,5.1c-2.3,1.8-2.8,5.1-1,7.4l5.8,7.5c1.4,1.8,1.5,4.2,0.3,6.1
						c-0.6,0.9-1.1,1.8-1.5,2.7c-1,2-3.2,3.1-5.4,2.9l-9.4-1.2c-2.9-0.4-5.6,1.7-5.9,4.6l-1.1,8.3c-0.4,2.9,1.7,5.6,4.6,5.9l9.4,1.2
						c2.2,0.3,4,2,4.5,4.1c0.2,1,0.5,2,0.8,3c0.7,2.1-0.1,4.4-1.8,5.8l-7.5,5.8c-2.3,1.8-2.8,5.1-1,7.4l5.1,6.6
						c1.8,2.3,5.1,2.8,7.4,1l7.5-5.8c1.8-1.4,4.2-1.5,6.1-0.3c0.9,0.6,1.8,1.1,2.7,1.5c2,1,3.1,3.2,2.9,5.4l-1.2,9.4
						c-0.4,2.9,1.7,5.6,4.6,5.9l8.3,1.1c2.9,0.4,5.6-1.7,5.9-4.6l1.2-9.4c0.3-2.2,2-4,4.1-4.5c1-0.2,2-0.5,3-0.8
						c2.1-0.7,4.4,0.1,5.8,1.8l5.8,7.5c1.8,2.3,5.1,2.8,7.4,1l6.6-5.1c2.3-1.8,2.8-5.1,1-7.4l-5.8-7.5c-1.4-1.8-1.5-4.2-0.3-6.1
						c0.6-0.9,1.1-1.8,1.5-2.7c1-2,3.2-3.1,5.4-2.9l9.4,1.2c2.9,0.4,5.6-1.7,5.9-4.6l1.1-8.3c0.4-2.9-1.7-5.6-4.6-5.9l-9.4-1.2
						c-2.2-0.3-4-2-4.5-4.1c-0.2-1-0.5-2-0.8-3c-0.7-2.1,0.1-4.4,1.8-5.8l7.5-5.8c2.3-1.8,2.8-5.1,1-7.4l-5.1-6.6
						C108.6,146.4,105.2,146,102.9,147.8z M86.6,208.2c-12.4,9.6-30.3,7.3-39.8-5.1c-9.6-12.4-7.3-30.3,5.1-39.8
						c12.4-9.6,30.3-7.3,39.8,5.1C101.3,180.8,99,198.7,86.6,208.2z"/>
					<path class="st1" d="M67,241.9c-0.3,0-0.5,0-0.8-0.1l-8.3-1.1c-3.4-0.4-5.7-3.5-5.3-6.9l1.2-9.4c0.2-1.9-0.7-3.7-2.4-4.6
						c-0.9-0.5-1.8-1-2.7-1.6c-1.6-1-3.6-0.9-5.1,0.2l-7.5,5.8c-1.3,1-2.9,1.4-4.5,1.2c-1.6-0.2-3.1-1-4.1-2.3l-5.1-6.6
						c-2.1-2.7-1.6-6.5,1.1-8.6l7.5-5.8c1.5-1.1,2.1-3.1,1.5-4.9c-0.3-1-0.6-2-0.8-3c-0.4-1.9-1.9-3.3-3.8-3.5l-9.4-1.2
						c-3.4-0.4-5.7-3.5-5.3-6.9l1.1-8.3c0.2-1.6,1-3.1,2.3-4.1c1.3-1,2.9-1.4,4.5-1.2l9.4,1.2c1.9,0.2,3.7-0.7,4.6-2.4
						c0.5-0.9,1-1.9,1.6-2.7c1-1.6,0.9-3.6-0.2-5.1l-5.8-7.5c-1-1.3-1.4-2.9-1.2-4.5c0.2-1.6,1-3.1,2.3-4.1l6.6-5.1
						c2.7-2.1,6.5-1.6,8.6,1.1l5.8,7.5c1.1,1.5,3.1,2.1,4.9,1.5c1-0.3,2-0.6,3-0.8c1.9-0.4,3.3-1.9,3.5-3.8l1.2-9.4
						c0.4-3.4,3.5-5.7,6.9-5.3l8.3,1.1c3.4,0.4,5.7,3.5,5.3,6.9l-1.2,9.4c-0.2,1.9,0.7,3.7,2.4,4.6c0.9,0.5,1.8,1,2.7,1.6
						c1.6,1,3.6,0.9,5.1-0.2l7.5-5.8c2.7-2.1,6.5-1.6,8.6,1.1l5.1,6.6c2.1,2.7,1.6,6.5-1.1,8.6l-7.5,5.8c-1.5,1.1-2.1,3.1-1.5,4.9
						c0.3,1,0.6,2,0.8,3c0.4,1.9,1.9,3.3,3.8,3.5l9.4,1.2c1.6,0.2,3.1,1,4.1,2.3c1,1.3,1.4,2.9,1.2,4.5l-1.1,8.3
						c-0.2,1.6-1,3.1-2.3,4.1c-1.3,1-2.9,1.4-4.5,1.2l-9.4-1.2c-1.9-0.2-3.7,0.7-4.6,2.4c-0.5,0.9-1,1.9-1.6,2.7
						c-1,1.6-0.9,3.6,0.2,5.1l5.8,7.5c1,1.3,1.4,2.9,1.2,4.5c-0.2,1.6-1,3.1-2.3,4.1l-6.6,5.1c-2.7,2.1-6.5,1.6-8.6-1.1l-5.8-7.5
						c-1.1-1.5-3.1-2.1-4.9-1.5c-1,0.3-2,0.6-3,0.8c-1.9,0.4-3.3,1.9-3.5,3.8l-1.2,9.4C72.7,239.6,70,241.9,67,241.9z M46.3,216
						c1.1,0,2.3,0.3,3.3,0.9c0.9,0.5,1.7,1,2.6,1.5c2.3,1.2,3.6,3.7,3.3,6.3l-1.2,9.4c-0.3,2.4,1.4,4.7,3.9,5l8.3,1.1
						c2.4,0.3,4.7-1.4,5-3.9l1.2-9.4c0.3-2.5,2.3-4.6,4.8-5.2c1-0.2,2-0.5,2.9-0.8c2.4-0.8,5.1,0.1,6.7,2.1l5.8,7.5
						c1.5,2,4.3,2.3,6.3,0.8l6.6-5.1c0.9-0.7,1.6-1.8,1.7-3c0.2-1.2-0.2-2.4-0.9-3.3l-5.8-7.5c-1.6-2-1.7-4.9-0.3-7
						c0.5-0.8,1-1.7,1.5-2.6c1.2-2.3,3.7-3.6,6.3-3.3l9.4,1.2c1.2,0.2,2.4-0.2,3.3-0.9c0.9-0.7,1.6-1.8,1.7-3l1.1-8.3
						c0.2-1.2-0.2-2.4-0.9-3.3c-0.7-0.9-1.8-1.6-3-1.7l-9.4-1.2c-2.5-0.3-4.6-2.2-5.2-4.8c-0.2-1-0.5-2-0.8-2.9
						c-0.8-2.4,0.1-5.1,2.1-6.7l7.5-5.8c2-1.5,2.3-4.3,0.8-6.3l-5.1-6.6c-1.5-2-4.3-2.3-6.3-0.8l-7.5,5.8c-2,1.6-4.9,1.7-7,0.3
						c-0.8-0.5-1.7-1-2.6-1.5c-2.3-1.2-3.6-3.7-3.3-6.3l1.2-9.4c0.3-2.4-1.4-4.7-3.9-5l-8.3-1.1c-2.4-0.3-4.7,1.4-5,3.9l-1.2,9.4
						c-0.3,2.5-2.3,4.6-4.8,5.2c-1,0.2-2,0.5-2.9,0.8c-2.4,0.8-5.1-0.1-6.7-2.1l-5.8-7.5c-1.5-2-4.3-2.3-6.3-0.8l-6.6,5.1
						c-0.9,0.7-1.6,1.8-1.7,3c-0.2,1.2,0.2,2.4,0.9,3.3l5.8,7.5c1.6,2,1.7,4.9,0.3,7c-0.5,0.8-1,1.7-1.5,2.6
						c-1.2,2.3-3.7,3.6-6.3,3.3l-9.4-1.2c-1.2-0.2-2.4,0.2-3.3,0.9c-0.9,0.7-1.6,1.8-1.7,3l-1.1,8.3c-0.3,2.4,1.4,4.7,3.9,5l9.4,1.2
						c2.5,0.3,4.6,2.2,5.2,4.8c0.2,1,0.5,2,0.8,2.9c0.8,2.4-0.1,5.1-2.1,6.7l-7.5,5.8c-2,1.5-2.3,4.3-0.8,6.3l5.1,6.6
						c0.7,0.9,1.8,1.6,3,1.7c1.2,0.2,2.4-0.2,3.3-0.9l7.5-5.8C43.6,216.4,44.9,216,46.3,216z M102.9,147.8L102.9,147.8L102.9,147.8z
						 M69.3,215c-8.8,0-17.4-3.9-23.2-11.4c-4.8-6.2-6.8-13.9-5.8-21.6c1-7.7,5-14.6,11.1-19.4c6.2-4.8,13.9-6.8,21.6-5.8
						c7.7,1,14.6,5,19.4,11.1c4.8,6.2,6.8,13.9,5.8,21.6s-5,14.6-11.1,19.4l0,0C81.8,213,75.5,215,69.3,215z M69.2,158.2
						c-6.1,0-11.9,2-16.8,5.7c-5.8,4.5-9.6,11-10.5,18.3c-0.9,7.3,1,14.5,5.5,20.4c9.3,12,26.6,14.3,38.7,5l0,0
						c12-9.3,14.3-26.6,5-38.7c-4.5-5.8-11-9.6-18.3-10.5C71.6,158.2,70.4,158.2,69.2,158.2z M86.6,208.2L86.6,208.2L86.6,208.2z"/>
				</g>
			</g>
		</g>
		<g>
			<g>
				<g>
					
						<ellipse transform="matrix(0.9719 -0.2356 0.2356 0.9719 -68.9799 27.9329)" class="st2" cx="82.4" cy="302.7" rx="47.9" ry="47.9"/>
					<path class="st1" d="M82.4,351.4c-26.9,0-48.7-21.9-48.7-48.7c0-26.9,21.9-48.7,48.7-48.7c26.9,0,48.7,21.9,48.7,48.7
						C131.2,329.6,109.3,351.4,82.4,351.4z M82.4,255.6c-26,0-47.1,21.1-47.1,47.1c0,26,21.1,47.1,47.1,47.1
						c26,0,47.1-21.1,47.1-47.1C129.5,276.7,108.4,255.6,82.4,255.6z"/>
				</g>
				<g>
					<g>
						
							<ellipse transform="matrix(0.9719 -0.2356 0.2356 0.9719 -68.9799 27.9329)" class="st3" cx="82.4" cy="302.7" rx="47.9" ry="47.9"/>
						<path class="st1" d="M82.4,351.4c-26.9,0-48.7-21.9-48.7-48.7c0-26.9,21.9-48.7,48.7-48.7c26.9,0,48.7,21.9,48.7,48.7
							C131.2,329.6,109.3,351.4,82.4,351.4z M82.4,255.6c-26,0-47.1,21.1-47.1,47.1c0,26,21.1,47.1,47.1,47.1
							c26,0,47.1-21.1,47.1-47.1C129.5,276.7,108.4,255.6,82.4,255.6z"/>
					</g>
					<g>
						<path class="st3" d="M127.5,339.8c-0.6-0.6-1.3-1.1-2.1-1.4c8-9.7,12.9-22.1,12.9-35.7c0-30.9-25-55.9-55.9-55.9
							s-55.9,25-55.9,55.9c0,30.9,25,55.9,55.9,55.9c12.9,0,24.8-4.4,34.3-11.8c0.3,0.9,0.8,1.7,1.6,2.4l5.6,5.5l9.4-9.4
							L127.5,339.8z M82.4,350.6c-26.5,0-47.9-21.4-47.9-47.9c0-26.5,21.4-47.9,47.9-47.9c26.5,0,47.9,21.4,47.9,47.9
							C130.3,329.1,108.9,350.6,82.4,350.6z"/>
						<path class="st1" d="M82.4,359.4c-31.3,0-56.7-25.4-56.7-56.7c0-31.3,25.4-56.7,56.7-56.7c31.3,0,56.7,25.4,56.7,56.7
							c0,12.9-4.4,25.4-12.4,35.4c0.5,0.3,1,0.7,1.4,1.1h0l6.3,6.2l-10.5,10.5l-6.2-6.1c-0.5-0.5-0.9-1.1-1.3-1.7
							C106.5,355.5,94.8,359.4,82.4,359.4z M82.4,247.6c-30.4,0-55.1,24.7-55.1,55.1c0,30.4,24.7,55.1,55.1,55.1
							c12.3,0,24-4,33.8-11.6l0.9-0.7l0.4,1.1c0.3,0.8,0.8,1.5,1.4,2.1l5,4.9l8.2-8.2l-5.1-5h0c-0.5-0.5-1.1-0.9-1.8-1.2l-1-0.4
							l0.7-0.9c8.2-9.9,12.7-22.3,12.7-35.2C137.5,272.3,112.8,247.6,82.4,247.6z M82.4,351.4c-26.9,0-48.7-21.9-48.7-48.7
							c0-26.9,21.9-48.7,48.7-48.7c26.9,0,48.7,21.9,48.7,48.7C131.2,329.6,109.3,351.4,82.4,351.4z M82.4,255.6
							c-26,0-47.1,21.1-47.1,47.1c0,26,21.1,47.1,47.1,47.1c26,0,47.1-21.1,47.1-47.1C129.5,276.7,108.4,255.6,82.4,255.6z"/>
					</g>
					<g>
						<path class="st2" d="M144.1,351.7l-7.4-7.4c-0.6-0.6-1.7-0.6-2.3,0l-1.1,1.1l-9.4,9.4l-0.3,0.3c-0.6,0.6-0.6,1.7,0,2.3
							l7.4,7.4c0.6,0.6,1.7,0.6,2.3,0l10.8-10.8C144.8,353.3,144.8,352.3,144.1,351.7z"/>
						<path class="st3" d="M132.1,366.1c-0.7,0-1.3-0.3-1.7-0.7l-7.4-7.4c-1-1-1-2.5,0-3.5l10.8-10.8c1-1,2.5-1,3.5,0l7.4,7.4
							c0.5,0.5,0.7,1.1,0.7,1.7c0,0.7-0.3,1.3-0.7,1.7l-10.8,10.8C133.4,365.8,132.8,366.1,132.1,366.1z M135.5,344.6
							c-0.2,0-0.4,0.1-0.6,0.2l-10.8,10.8c-0.3,0.3-0.3,0.8,0,1.1l7.4,7.4c0.3,0.3,0.8,0.3,1.1,0l10.8-10.8c0.2-0.2,0.2-0.4,0.2-0.6
							c0-0.2-0.1-0.4-0.2-0.6l-7.4-7.4C135.9,344.6,135.7,344.6,135.5,344.6z"/>
					</g>
				</g>
				<g>
					<path class="st4" d="M180.1,386.4l-39.4-39.8c-0.3-0.3-1.8,0.8-3.7,2.5c-3,2.6-7,6.8-9.2,9.5c-1.1,1.4-1.8,2.4-1.6,2.7
						l39.4,39.8c4,4,10.5,4,14.5,0C184.1,397,184.1,390.5,180.1,386.4z"/>
					<path class="st1" d="M172.9,404.9c-3,0-5.7-1.2-7.8-3.3l-39.4-39.8c-0.7-0.7-0.1-1.9,1.5-3.8c2.2-2.7,6.2-6.8,9.3-9.6
						c3.3-2.9,4.2-3.1,4.8-2.4l39.4,39.8c4.3,4.4,4.3,11.5,0,15.8C178.6,403.8,175.8,404.9,172.9,404.9z M127.1,361l39.1,39.5
						c1.8,1.8,4.1,2.8,6.7,2.8c2.5,0,4.9-1,6.7-2.8c3.7-3.7,3.7-9.8,0-13.5l-39.1-39.5c-0.4,0.2-1.2,0.7-2.8,2.2
						c-3,2.7-7,6.8-9.2,9.4C127.6,360.2,127.3,360.7,127.1,361z M140.2,347.2C140.2,347.2,140.2,347.2,140.2,347.2L140.2,347.2z"/>
				</g>
				<g>
					<circle class="st2" cx="174.9" cy="394.5" r="2.9"/>
					<path class="st1" d="M174.9,398.2c-2.1,0-3.7-1.7-3.7-3.7c0-2.1,1.7-3.7,3.7-3.7c2.1,0,3.7,1.7,3.7,3.7
						C178.7,396.5,177,398.2,174.9,398.2z M174.9,392.4c-1.1,0-2.1,0.9-2.1,2.1s0.9,2.1,2.1,2.1c1.1,0,2.1-0.9,2.1-2.1
						S176.1,392.4,174.9,392.4z"/>
				</g>
				<g>
					<line class="st2" x1="139.4" y1="353.8" x2="165.5" y2="379.9"/>
					<path class="st1" d="M165.5,380.7c-0.2,0-0.4-0.1-0.6-0.2l-26.1-26.1c-0.3-0.3-0.3-0.8,0-1.2c0.3-0.3,0.8-0.3,1.2,0l26.1,26.1
						c0.3,0.3,0.3,0.8,0,1.2C165.9,380.6,165.7,380.7,165.5,380.7z"/>
				</g>
				<g>
					<path class="st3" d="M64.2,269.6c0,0,27.3-14,48.4,9.7"/>
					<path class="st1" d="M112.6,280.2c-0.2,0-0.5-0.1-0.6-0.3c-20.4-22.9-47.2-9.7-47.4-9.5c-0.4,0.2-0.9,0-1.1-0.4
						c-0.2-0.4,0-0.9,0.4-1.1c0.3-0.1,28.1-14,49.4,9.9c0.3,0.3,0.3,0.9-0.1,1.2C113,280.1,112.8,280.2,112.6,280.2z"/>
				</g>
			</g>
		</g>
		<g>
			<g>
				<path class="st1" d="M166.4,199.2l-3.6,4.9c-0.9,1.2-2.3,1.7-3.7,1.3c-0.6-0.2-1.3-0.3-1.9-0.5c-1.4-0.3-2.5-1.4-2.8-2.9
					l-0.9-6.1c-0.3-1.9-2.1-3.2-3.9-2.9L144,194c-1.9,0.3-3.2,2.1-2.9,3.9l0.9,6.1c0.2,1.4-0.5,2.9-1.8,3.6c-0.6,0.3-1.2,0.7-1.7,1
					c-1.2,0.8-2.8,0.8-4-0.1l-4.9-3.6c-1.5-1.1-3.7-0.8-4.8,0.8l-3.2,4.4c-1.1,1.5-0.8,3.7,0.8,4.8l5,3.6c1.2,0.9,1.7,2.3,1.3,3.7
					c-0.2,0.6-0.3,1.3-0.5,1.9c-0.3,1.4-1.4,2.5-2.9,2.8l-6.1,0.9c-1.9,0.3-3.2,2.1-2.9,3.9l0.8,5.4c0.3,1.9,2.1,3.2,3.9,2.9
					l6.1-0.9c1.4-0.2,2.9,0.5,3.6,1.8c0.3,0.6,0.7,1.2,1,1.7c0.8,1.2,0.8,2.8-0.1,4l-3.6,5c-1.1,1.5-0.8,3.7,0.8,4.8l4.4,3.2
					c1.5,1.1,3.7,0.8,4.8-0.8l3.6-4.9c0.9-1.2,2.3-1.7,3.7-1.3c0.6,0.2,1.3,0.3,1.9,0.5c1.4,0.3,2.5,1.4,2.8,2.9l0.9,6.1
					c0.3,1.9,2.1,3.2,3.9,2.9l5.4-0.8c1.9-0.3,3.2-2.1,2.9-3.9l-0.9-6.1c-0.2-1.4,0.5-2.9,1.8-3.6c0.6-0.3,1.2-0.7,1.7-1
					c1.2-0.8,2.8-0.8,4,0.1l5,3.6c1.5,1.1,3.7,0.8,4.8-0.8l3.2-4.4c1.1-1.5,0.8-3.7-0.8-4.8l-4.9-3.6c-1.2-0.9-1.7-2.3-1.3-3.7
					c0.2-0.6,0.3-1.3,0.5-1.9c0.3-1.4,1.4-2.5,2.9-2.8l6.1-0.9c1.9-0.3,3.2-2.1,2.9-3.9l-0.8-5.4c-0.3-1.9-2.1-3.2-3.9-2.9l-6.1,0.9
					c-1.4,0.2-2.9-0.5-3.6-1.8c-0.3-0.6-0.7-1.2-1-1.7c-0.8-1.2-0.8-2.8,0.1-4l3.6-5c1.1-1.5,0.8-3.7-0.8-4.8l-4.4-3.2
					C169.7,197.3,167.5,197.7,166.4,199.2z M167.2,239.9c-6,8.2-17.5,10-25.8,4c-8.2-6-10-17.5-4-25.8c6-8.2,17.5-10,25.8-4
					C171.4,220.1,173.2,231.6,167.2,239.9z"/>
			</g>
		</g>
		<g>
			<path class="st1" d="M542,283.2c-0.9,0-1.8-0.3-2.5-0.8c-0.9-0.7-1.5-1.7-1.7-2.8l-0.9-6.1c-0.2-1.1-1-2-2.1-2.2
				c-0.7-0.1-1.4-0.3-2-0.5c-1.1-0.3-2.2,0.1-2.8,1l-3.6,5c-0.7,0.9-1.7,1.5-2.8,1.7c-1.1,0.2-2.3-0.1-3.2-0.8l-4.4-3.2
				c-1.9-1.4-2.3-4.1-0.9-6l3.6-5c0.6-0.9,0.7-2.1,0.1-3c-0.4-0.6-0.7-1.2-1.1-1.8c-0.5-1-1.6-1.5-2.7-1.3l-6.1,0.9
				c-1.1,0.2-2.3-0.1-3.2-0.8c-0.9-0.7-1.5-1.7-1.7-2.8l-0.8-5.4c-0.2-1.1,0.1-2.3,0.8-3.2c0.7-0.9,1.7-1.5,2.8-1.7l6.1-0.9
				c1.1-0.2,2-1,2.2-2.1c0.1-0.7,0.3-1.4,0.5-2c0.3-1.1-0.1-2.2-1-2.8l-5-3.6c-0.9-0.7-1.5-1.7-1.7-2.8c-0.2-1.1,0.1-2.3,0.8-3.2
				l3.2-4.4c1.4-1.9,4.1-2.3,6-0.9l4.9,3.6c0.9,0.6,2.1,0.7,3,0.1c0.6-0.4,1.2-0.7,1.8-1.1c1-0.5,1.5-1.6,1.3-2.7l-0.9-6.1
				c-0.2-1.1,0.1-2.3,0.8-3.2c0.7-0.9,1.7-1.5,2.8-1.7l5.4-0.8c2.3-0.4,4.5,1.2,4.9,3.6l0.9,6.1c0.2,1.1,1,2,2.1,2.2
				c0.7,0.1,1.3,0.3,2,0.5c1.1,0.3,2.2-0.1,2.8-1l3.6-5c0.7-0.9,1.7-1.5,2.8-1.7c1.1-0.2,2.3,0.1,3.2,0.8l4.4,3.2
				c1.9,1.4,2.3,4.1,0.9,6l-3.6,5c-0.6,0.9-0.7,2.1-0.1,3c0.4,0.6,0.7,1.2,1.1,1.8c0.5,1,1.6,1.5,2.7,1.3l6.1-0.9
				c1.1-0.2,2.3,0.1,3.2,0.8c0.9,0.7,1.5,1.7,1.7,2.8l0.8,5.4c0.2,1.1-0.1,2.3-0.8,3.2c-0.7,0.9-1.7,1.5-2.8,1.7l-6.1,0.9
				c-1.1,0.2-2,1-2.2,2.1c-0.1,0.7-0.3,1.4-0.5,2c-0.3,1.1,0.1,2.2,1,2.8l5,3.6c0.9,0.7,1.5,1.7,1.7,2.8c0.2,1.1-0.1,2.3-0.8,3.2
				l-3.2,4.4c-1.4,1.9-4.1,2.3-6,0.9l-5-3.6c-0.9-0.6-2.1-0.7-3-0.1c-0.6,0.4-1.2,0.7-1.8,1.1c-1,0.5-1.5,1.6-1.3,2.7l0.9,6.1
				c0.4,2.3-1.2,4.5-3.6,4.9l-5.4,0.8C542.4,283.2,542.2,283.2,542,283.2z M532,269.1c0.4,0,0.8,0.1,1.2,0.2
				c0.6,0.2,1.2,0.3,1.9,0.5c1.8,0.4,3.1,1.8,3.4,3.5l0.9,6.1c0.1,0.7,0.5,1.3,1,1.7c0.6,0.4,1.3,0.6,1.9,0.5l5.4-0.8
				c1.4-0.2,2.4-1.6,2.2-3l-0.9-6.1c-0.3-1.8,0.6-3.5,2.2-4.4c0.6-0.3,1.1-0.7,1.7-1c1.5-1,3.5-1,4.9,0.1l5,3.6
				c1.2,0.8,2.8,0.6,3.7-0.6l3.2-4.4c0.4-0.6,0.6-1.3,0.5-1.9c-0.1-0.7-0.5-1.3-1-1.7l-5-3.6c-1.4-1.1-2.1-2.9-1.6-4.6
				c0.2-0.6,0.3-1.2,0.5-1.9c0.4-1.8,1.8-3.2,3.5-3.4l6.1-0.9c0.7-0.1,1.3-0.5,1.7-1c0.4-0.6,0.6-1.3,0.5-1.9l-0.8-5.4
				c-0.1-0.7-0.5-1.3-1-1.7c-0.6-0.4-1.3-0.6-1.9-0.5l-6.1,0.9c-1.8,0.3-3.5-0.6-4.4-2.2c-0.3-0.6-0.7-1.1-1-1.7
				c-1-1.5-1-3.5,0.1-4.9l3.6-5c0.9-1.2,0.6-2.8-0.6-3.7l-4.4-3.2c-0.6-0.4-1.3-0.6-1.9-0.5c-0.7,0.1-1.3,0.5-1.7,1v0l-3.6,4.9
				c-1.1,1.4-2.9,2.1-4.6,1.6c-0.6-0.2-1.3-0.3-1.9-0.5c-1.8-0.4-3.1-1.8-3.4-3.5l-0.9-6.1c-0.2-1.4-1.6-2.4-3-2.2l-5.4,0.8
				c-0.7,0.1-1.3,0.5-1.7,1c-0.4,0.6-0.6,1.3-0.5,1.9l0.9,6.1c0.3,1.8-0.6,3.5-2.2,4.4c-0.6,0.3-1.1,0.7-1.7,1c-1.5,1-3.5,1-4.9-0.1
				l-4.9-3.6c-1.2-0.8-2.8-0.6-3.7,0.6l-3.2,4.4c-0.4,0.6-0.6,1.3-0.5,1.9c0.1,0.7,0.5,1.3,1,1.7l5,3.6c1.4,1.1,2.1,2.9,1.6,4.6
				c-0.2,0.6-0.3,1.2-0.5,1.9c-0.4,1.8-1.8,3.1-3.5,3.4l-6.1,0.9c-0.7,0.1-1.3,0.5-1.7,1c-0.4,0.6-0.6,1.3-0.5,1.9l0.8,5.4
				c0.1,0.7,0.5,1.3,1,1.7c0.6,0.4,1.3,0.6,1.9,0.5l6.1-0.9c1.8-0.3,3.5,0.6,4.4,2.2c0.3,0.6,0.7,1.1,1,1.7c1,1.5,1,3.5-0.1,4.9
				l-3.6,4.9c-0.9,1.2-0.6,2.8,0.6,3.7l4.4,3.2c0.6,0.4,1.3,0.6,1.9,0.5c0.7-0.1,1.3-0.5,1.7-1l3.6-5
				C529.3,269.7,530.6,269.1,532,269.1z M553.8,216.7L553.8,216.7L553.8,216.7z M539.7,265.8c-3.9,0-7.9-1.2-11.3-3.7
				c-8.6-6.3-10.5-18.4-4.2-26.9c3-4.2,7.5-6.9,12.6-7.7c5.1-0.8,10.2,0.4,14.3,3.5c4.2,3,6.9,7.5,7.7,12.6
				c0.8,5.1-0.4,10.2-3.5,14.3C551.5,263,545.6,265.8,539.7,265.8z M539.7,228.9c-0.9,0-1.8,0.1-2.8,0.2c-4.7,0.7-8.7,3.2-11.5,7
				c-2.8,3.8-3.9,8.5-3.2,13.1s3.2,8.7,7,11.5c7.9,5.7,18.9,4,24.6-3.9c2.8-3.8,3.9-8.5,3.2-13.1c-0.7-4.7-3.2-8.7-7-11.5
				C547,230,543.4,228.9,539.7,228.9z"/>
		</g>
		<g>
			<path class="st1" d="M296.2,265.7c-0.9,0-1.8-0.3-2.5-0.8c-0.9-0.7-1.5-1.7-1.7-2.8l-0.9-6.1c-0.2-1.1-1-2-2.1-2.2
				c-0.7-0.1-1.4-0.3-2-0.5c-1.1-0.3-2.2,0.1-2.8,1l-3.6,4.9c-1.4,1.9-4.1,2.3-6,0.9l-4.4-3.2c-1.9-1.4-2.3-4.1-0.9-6l3.6-5
				c0.6-0.9,0.7-2.1,0.1-3c-0.4-0.6-0.7-1.2-1.1-1.8c-0.5-1-1.6-1.5-2.7-1.3l-6.1,0.9c-2.3,0.4-4.5-1.2-4.9-3.6l-0.8-5.4
				c-0.2-1.1,0.1-2.3,0.8-3.2c0.7-0.9,1.7-1.5,2.8-1.7l6.1-0.9c1.1-0.2,2-1,2.2-2.1c0.1-0.7,0.3-1.3,0.5-2c0.3-1.1-0.1-2.2-1-2.8
				l-5-3.6c-1.9-1.4-2.3-4.1-0.9-6l3.2-4.4c0.7-0.9,1.7-1.5,2.8-1.7c1.1-0.2,2.3,0.1,3.2,0.8l5,3.6c0.9,0.6,2.1,0.7,3,0.1
				c0.6-0.4,1.2-0.7,1.8-1.1c1-0.5,1.5-1.6,1.3-2.7l-0.9-6.1c-0.4-2.3,1.2-4.5,3.6-4.9l5.4-0.8c2.3-0.4,4.5,1.2,4.9,3.6l0.9,6.1
				c0.2,1.1,1,2,2.1,2.2c0.7,0.1,1.4,0.3,2,0.5c1.1,0.3,2.2-0.1,2.8-1l3.6-5c1.4-1.9,4.1-2.3,6-0.9l4.4,3.2c0.9,0.7,1.5,1.7,1.7,2.8
				c0.2,1.1-0.1,2.3-0.8,3.2l-3.6,4.9c-0.6,0.9-0.7,2.1-0.1,3c0.4,0.6,0.7,1.2,1.1,1.8c0.5,1,1.6,1.5,2.7,1.3l6.1-0.9
				c2.3-0.4,4.5,1.2,4.9,3.6l0.8,5.4c0.4,2.3-1.2,4.5-3.6,4.9l-6.1,0.9c-1.1,0.2-2,1-2.2,2.1c-0.1,0.7-0.3,1.3-0.5,2
				c-0.3,1.1,0.1,2.2,1,2.8l4.9,3.6c1.9,1.4,2.3,4.1,0.9,6l-3.2,4.4c-0.7,0.9-1.7,1.5-2.8,1.7c-1.1,0.2-2.3-0.1-3.2-0.8l-5-3.6
				c-0.9-0.6-2.1-0.7-3-0.1c-0.6,0.4-1.2,0.7-1.8,1.1c-1,0.5-1.5,1.6-1.3,2.7l0.9,6.1c0.2,1.1-0.1,2.3-0.8,3.2
				c-0.7,0.9-1.7,1.5-2.8,1.7l-5.4,0.8C296.7,265.7,296.5,265.7,296.2,265.7z M286.2,251.6c0.4,0,0.8,0.1,1.2,0.2
				c0.6,0.2,1.3,0.3,1.9,0.5c1.8,0.4,3.2,1.8,3.4,3.5l0.9,6.1c0.1,0.7,0.5,1.3,1,1.7c0.6,0.4,1.3,0.6,1.9,0.5l5.4-0.8
				c0.7-0.1,1.3-0.5,1.7-1c0.4-0.6,0.6-1.3,0.5-1.9l-0.9-6.1c-0.3-1.8,0.6-3.5,2.2-4.4c0.6-0.3,1.1-0.7,1.7-1c1.5-1,3.5-1,4.9,0.1
				l5,3.6c0.6,0.4,1.3,0.6,1.9,0.5c0.7-0.1,1.3-0.5,1.7-1l3.2-4.4c0.9-1.2,0.6-2.8-0.6-3.7l-4.9-3.6c-1.4-1.1-2.1-2.9-1.6-4.6
				c0.2-0.6,0.3-1.3,0.5-1.9c0.4-1.8,1.8-3.1,3.5-3.4l6.1-0.9c1.4-0.2,2.4-1.6,2.2-3l-0.8-5.4c-0.2-1.4-1.6-2.4-3-2.2l-6.1,0.9
				c-1.8,0.3-3.5-0.6-4.4-2.2c-0.3-0.6-0.7-1.1-1-1.7c-1-1.5-1-3.5,0.1-4.9l3.6-5c0.4-0.6,0.6-1.3,0.5-1.9c-0.1-0.7-0.5-1.3-1-1.7
				l-4.4-3.2c-1.2-0.8-2.8-0.6-3.7,0.6v0l-3.6,4.9c-1.1,1.4-2.9,2.1-4.6,1.6c-0.6-0.2-1.3-0.3-1.9-0.5c-1.8-0.4-3.1-1.8-3.4-3.5
				l-0.9-6.1c-0.2-1.4-1.6-2.4-3-2.2l-5.4,0.8c-1.4,0.2-2.4,1.6-2.2,3l0.9,6.1c0.3,1.8-0.6,3.5-2.2,4.4c-0.6,0.3-1.1,0.7-1.7,1
				c-1.5,1-3.5,1-4.9-0.1l-5-3.6c-0.6-0.4-1.3-0.6-1.9-0.5c-0.7,0.1-1.3,0.5-1.7,1l-3.2,4.4c-0.9,1.2-0.6,2.8,0.6,3.7l5,3.6
				c1.4,1.1,2.1,2.9,1.6,4.6c-0.2,0.6-0.3,1.3-0.5,1.9c-0.4,1.8-1.8,3.1-3.5,3.4l-6.1,0.9c-0.7,0.1-1.3,0.5-1.7,1
				c-0.4,0.6-0.6,1.3-0.5,1.9l0.8,5.4c0.2,1.4,1.6,2.4,3,2.2l6.1-0.9c1.8-0.3,3.5,0.6,4.4,2.2c0.3,0.6,0.6,1.1,1,1.7
				c1,1.5,1,3.5-0.1,4.9l-3.6,5c-0.9,1.2-0.6,2.8,0.6,3.7l4.4,3.2c1.2,0.9,2.8,0.6,3.7-0.6l3.6-5
				C283.6,252.2,284.9,251.6,286.2,251.6z M308,199.2L308,199.2L308,199.2z M293.9,248.3c-3.9,0-7.9-1.2-11.3-3.7
				c-4.2-3-6.9-7.5-7.7-12.6c-0.8-5.1,0.4-10.2,3.5-14.3c6.3-8.6,18.3-10.5,26.9-4.2c8.6,6.3,10.5,18.4,4.2,26.9l0,0
				C305.7,245.5,299.8,248.3,293.9,248.3z M293.9,211.4c-5.4,0-10.8,2.5-14.3,7.2c-2.8,3.8-3.9,8.5-3.2,13.1c0.7,4.7,3.2,8.7,7,11.5
				c7.9,5.7,18.9,4,24.6-3.9l0,0c5.7-7.9,4-18.9-3.9-24.6C301.2,212.5,297.5,211.4,293.9,211.4z M308.8,239.9L308.8,239.9
				L308.8,239.9z"/>
		</g>
		<g>
			<g>
				<g>
					<path class="st1" d="M382.6,302.3c-0.4,0-0.8,0-1.2-0.1l-8.4-1.6c-1.6-0.3-3.1-1.3-4-2.6c-0.9-1.4-1.3-3.1-1-4.7l1.8-9.5
						c0.4-1.9-0.5-3.8-2.1-4.8c-0.9-0.6-1.8-1.2-2.7-1.8c-1.6-1.1-3.7-1.2-5.3-0.1l-8,5.4c-1.4,0.9-3.1,1.3-4.7,1
						c-1.6-0.3-3.1-1.3-4-2.6l-4.8-7.1c-0.9-1.4-1.3-3.1-1-4.7c0.3-1.6,1.3-3.1,2.6-4l8-5.4c1.6-1.1,2.4-3.1,1.9-5
						c-0.3-1-0.5-2.1-0.6-3.2c-0.3-1.9-1.8-3.4-3.7-3.8l-9.5-1.8c-1.6-0.3-3.1-1.3-4-2.6c-0.9-1.4-1.3-3.1-1-4.7l1.6-8.4
						c0.7-3.4,4-5.6,7.3-5l9.5,1.8c1.9,0.4,3.8-0.5,4.8-2.1c0.6-0.9,1.2-1.8,1.8-2.7c1.1-1.6,1.2-3.7,0.1-5.3l-5.4-8
						c-1.9-2.9-1.2-6.8,1.7-8.7l7.1-4.8c1.4-0.9,3.1-1.3,4.7-1c1.6,0.3,3.1,1.3,4,2.6l5.4,8c1.1,1.6,3.1,2.4,5,1.9
						c1-0.3,2.1-0.5,3.2-0.6c1.9-0.3,3.4-1.8,3.8-3.7l1.8-9.5c0.3-1.6,1.3-3.1,2.6-4c1.4-0.9,3.1-1.3,4.7-1l8.4,1.6
						c3.4,0.7,5.6,4,5,7.4l-1.8,9.5c-0.4,1.9,0.5,3.8,2.1,4.8c0.9,0.6,1.8,1.2,2.7,1.8c1.6,1.1,3.7,1.2,5.3,0.1l8-5.4
						c1.4-0.9,3.1-1.3,4.7-1c1.6,0.3,3.1,1.3,4,2.6l4.8,7.1c0.9,1.4,1.3,3.1,1,4.7c-0.3,1.6-1.3,3.1-2.6,4l-8,5.4
						c-1.6,1.1-2.4,3.1-1.9,5c0.3,1,0.5,2.1,0.6,3.2c0.3,1.9,1.8,3.4,3.7,3.8l9.5,1.8c1.6,0.3,3.1,1.3,4,2.6c0.9,1.4,1.3,3.1,1,4.7
						l-1.6,8.4c-0.7,3.4-4,5.6-7.3,5l-9.5-1.8c-1.9-0.4-3.8,0.5-4.8,2.1c-0.6,0.9-1.2,1.8-1.8,2.7c-1.1,1.6-1.2,3.7-0.1,5.3l5.4,8
						c0.9,1.4,1.3,3.1,1,4.7c-0.3,1.6-1.3,3.1-2.6,4l-7.1,4.8c-1.4,0.9-3.1,1.3-4.7,1c-1.6-0.3-3.1-1.3-4-2.6l-5.4-8
						c-1.1-1.6-3.1-2.4-5-1.9c-1,0.3-2.1,0.5-3.2,0.6c-1.9,0.3-3.4,1.8-3.8,3.7l-1.8,9.5C388.2,300.3,385.5,302.3,382.6,302.3z
						 M362.2,274.6c1.3,0,2.6,0.4,3.7,1.2c0.8,0.6,1.7,1.2,2.6,1.7c2.2,1.4,3.4,4,2.9,6.6l-1.8,9.5c-0.2,1.2,0,2.4,0.7,3.5
						c0.7,1,1.7,1.7,2.9,1.9l8.4,1.6c2.5,0.5,4.9-1.2,5.4-3.6l1.8-9.5c0.5-2.6,2.6-4.6,5.2-5c1-0.2,2-0.4,3-0.6
						c2.6-0.6,5.3,0.4,6.8,2.6l5.4,8c0.7,1,1.7,1.7,2.9,1.9c1.2,0.2,2.4,0,3.5-0.7l7.1-4.8c2.1-1.4,2.7-4.3,1.2-6.4l-5.4-8
						c-1.5-2.2-1.4-5.1,0.1-7.2c0.6-0.8,1.2-1.7,1.7-2.6c1.4-2.2,4-3.4,6.6-2.9l9.5,1.8c2.5,0.5,4.9-1.2,5.4-3.6l1.6-8.4
						c0.2-1.2,0-2.4-0.7-3.5s-1.7-1.7-2.9-1.9l-9.5-1.8c-2.6-0.5-4.6-2.6-5-5.2c-0.2-1-0.4-2-0.6-3c-0.6-2.6,0.4-5.3,2.6-6.8l8-5.4
						c2.1-1.4,2.7-4.3,1.2-6.4l-4.8-7.1c-0.7-1-1.7-1.7-2.9-1.9c-1.2-0.2-2.4,0-3.5,0.7l-8,5.4c-2.2,1.5-5.1,1.4-7.2-0.1
						c-0.8-0.6-1.7-1.2-2.6-1.7c-2.2-1.4-3.4-4-2.9-6.6l1.8-9.5c0.5-2.5-1.2-4.9-3.6-5.4l-8.4-1.6c-1.2-0.2-2.4,0-3.5,0.7
						c-1,0.7-1.7,1.7-1.9,2.9l-1.8,9.5c-0.5,2.6-2.6,4.6-5.2,5c-1,0.2-2,0.4-3,0.6c-2.6,0.6-5.3-0.4-6.8-2.6l-5.4-8
						c-0.7-1-1.7-1.7-2.9-1.9c-1.2-0.2-2.4,0-3.5,0.7l-7.1,4.8c-2.1,1.4-2.7,4.3-1.2,6.4l5.4,8c1.5,2.2,1.4,5.1-0.1,7.2
						c-0.6,0.8-1.2,1.7-1.7,2.6c-1.4,2.2-4,3.4-6.6,2.9l-9.5-1.8c-2.5-0.5-4.9,1.2-5.4,3.6l-1.6,8.4c-0.2,1.2,0,2.4,0.7,3.5
						c0.7,1,1.7,1.7,2.9,1.9l9.5,1.8c2.6,0.5,4.6,2.6,5,5.2c0.2,1,0.4,2,0.6,3c0.6,2.6-0.4,5.3-2.6,6.8l-8,5.4
						c-1,0.7-1.7,1.7-1.9,2.9c-0.2,1.2,0,2.4,0.7,3.5l4.8,7.1c1.4,2.1,4.3,2.7,6.4,1.2l8-5.4C359.8,275,361,274.6,362.2,274.6z
						 M388.2,275c-1.9,0-3.8-0.2-5.8-0.6c-7.9-1.5-14.6-6-19.1-12.6c-4.5-6.6-6.1-14.6-4.6-22.5c1.5-7.9,6-14.6,12.6-19.1
						c6.6-4.5,14.6-6.1,22.5-4.6c7.9,1.5,14.6,6,19.1,12.6c4.5,6.6,6.1,14.6,4.6,22.5c-1.5,7.9-6,14.6-12.6,19.1
						C399.9,273.3,394.1,275,388.2,275z M388,216.8c-5.6,0-11,1.7-15.8,4.8c-6.3,4.2-10.5,10.6-11.9,18.1
						c-1.4,7.4,0.1,14.9,4.3,21.2c4.2,6.3,10.6,10.5,18.1,11.9l0,0c7.4,1.4,14.9-0.1,21.2-4.3c6.3-4.2,10.5-10.6,11.9-18.1
						c1.4-7.4-0.1-14.9-4.3-21.2c-4.2-6.3-10.6-10.5-18.1-11.9C391.7,217,389.9,216.8,388,216.8z"/>
					<g>
						<g>
							<path class="st3" d="M526,156.5c0-27.8-22.8-50.3-50.7-49.9c-26.4,0.4-48.1,21.6-49.1,48c-0.6,16.7,7,31.6,19,41.1
								c2.6,2,4.2,5.1,4.2,8.4v13.7c0,5.9,4.8,10.6,10.6,10.6h32.1c5.9,0,10.6-4.8,10.6-10.6v-13.7c0-3.3,1.6-6.4,4.2-8.4
								C518.5,186.6,526,172.5,526,156.5z"/>
							<path class="st1" d="M492.1,229.3H460c-6.3,0-11.5-5.1-11.5-11.5v-13.7c0-3-1.4-5.8-3.9-7.8c-12.7-10-19.9-25.6-19.3-41.8
								c0.5-13,5.9-25.1,15.3-34.3c9.4-9.2,21.7-14.3,34.6-14.5c0.3,0,0.5,0,0.8,0c13.4,0,26,5.2,35.6,14.6
								c9.8,9.6,15.1,22.4,15.1,36.1c0,15.6-7.1,30.2-19.4,39.9c-2.4,1.9-3.9,4.8-3.9,7.8v13.7C503.6,224.2,498.4,229.3,492.1,229.3
								z M476.1,107.5c-0.3,0-0.5,0-0.8,0c-26.1,0.4-47.3,21.1-48.3,47.2c-0.6,15.9,6.2,30.6,18.7,40.5c2.9,2.3,4.5,5.6,4.5,9.1
								v13.7c0,5.4,4.4,9.8,9.8,9.8h32.1c5.4,0,9.8-4.4,9.8-9.8v-13.7c0-3.5,1.6-6.8,4.5-9.1c11.9-9.4,18.8-23.4,18.8-38.6
								c0-13.2-5.2-25.7-14.6-35C501.3,112.5,489.1,107.5,476.1,107.5z"/>
						</g>
						<g>
							<g>
								<path class="st3" d="M465.5,227.5v-61.4c0-3.1-2.4-5.6-5.3-5.6h-2.6c-2.9,0-5.3,2.5-5.3,5.6l0,0c0,3.1,2.4,5.6,5.3,5.6h18.4
									"/>
								<path class="st1" d="M465.5,228.4c-0.5,0-0.8-0.4-0.8-0.8v-55h-7c-3.4,0-6.1-2.9-6.1-6.4c0-3.6,2.8-6.4,6.1-6.4h2.6
									c3.4,0,6.1,2.9,6.1,6.4v4.8h9.7c0.5,0,0.8,0.4,0.8,0.8c0,0.5-0.4,0.8-0.8,0.8h-9.7v55C466.3,228,466,228.4,465.5,228.4z
									 M457.6,161.3c-2.5,0-4.5,2.1-4.5,4.8s2,4.8,4.5,4.8h7v-4.8c0-2.6-2-4.8-4.5-4.8H457.6z"/>
							</g>
							<g>
								<path class="st3" d="M486.6,227.5v-61.4c0-3.1,2.4-5.6,5.3-5.6h2.6c2.9,0,5.3,2.5,5.3,5.6l0,0c0,3.1-2.4,5.6-5.3,5.6h-18.4"
									/>
								<path class="st1" d="M486.6,228.4c-0.5,0-0.8-0.4-0.8-0.8v-55h-9.7c-0.5,0-0.8-0.4-0.8-0.8c0-0.5,0.4-0.8,0.8-0.8h9.7v-4.8
									c0-3.6,2.8-6.4,6.1-6.4h2.6c3.4,0,6.1,2.9,6.1,6.4c0,3.6-2.8,6.4-6.1,6.4h-7v55C487.5,228,487.1,228.4,486.6,228.4z
									 M487.5,170.9h7c2.5,0,4.5-2.1,4.5-4.8s-2-4.8-4.5-4.8H492c-2.5,0-4.5,2.1-4.5,4.8V170.9z"/>
							</g>
						</g>
						<g>
							
								<ellipse transform="matrix(0.2298 -0.9732 0.9732 0.2298 125.0504 654.5785)" class="st4" cx="476.1" cy="248.3" rx="10.6" ry="10.6"/>
							<path class="st1" d="M476.1,259.7c-6.3,0-11.4-5.1-11.4-11.4c0-6.3,5.1-11.4,11.4-11.4c6.3,0,11.4,5.1,11.4,11.4
								C487.5,254.6,482.4,259.7,476.1,259.7z M476.1,238.5c-5.4,0-9.7,4.4-9.7,9.7c0,5.4,4.4,9.7,9.7,9.7c5.4,0,9.7-4.4,9.7-9.7
								C485.8,242.9,481.4,238.5,476.1,238.5z"/>
						</g>
						<g>
							<path class="st4" d="M495.3,235.2h-38.5c-0.6,0-1-0.4-1-1v-5.7c0-0.6,0.4-1,1-1h38.5c0.6,0,1,0.4,1,1v5.7
								C496.3,234.8,495.9,235.2,495.3,235.2z"/>
							<path class="st1" d="M495.5,236h-38.8c-0.9,0-1.7-0.7-1.7-1.7v-6c0-0.9,0.7-1.7,1.7-1.7h38.8c0.9,0,1.7,0.7,1.7,1.7v6
								C497.2,235.3,496.4,236,495.5,236z M456.7,228.4v6h38.8l0-6H456.7z"/>
						</g>
						<g>
							<path class="st4" d="M494.7,242.9h-37.2c-0.6,0-1-0.4-1-1v-5.7c0-0.6,0.4-1,1-1h37.2c0.6,0,1,0.4,1,1v5.7
								C495.7,242.5,495.2,242.9,494.7,242.9z"/>
							<path class="st1" d="M494.8,243.7h-37.5c-0.9,0-1.7-0.7-1.7-1.7v-6c0-0.9,0.7-1.7,1.7-1.7h37.5c0.9,0,1.7,0.7,1.7,1.7v6
								C496.5,243,495.7,243.7,494.8,243.7z M457.3,236v6h37.5l0-6H457.3z"/>
						</g>
						<g>
							<path class="st4" d="M492.5,249.6h-32.8c-0.4,0-0.8-0.4-0.8-0.8v-5.1c0-0.4,0.4-0.8,0.8-0.8h32.8c0.4,0,0.8,0.4,0.8,0.8v5.1
								C493.3,249.3,492.9,249.6,492.5,249.6z"/>
							<path class="st1" d="M492.6,250.5h-33c-0.8,0-1.5-0.7-1.5-1.5v-5.4c0-0.8,0.7-1.5,1.5-1.5h33c0.8,0,1.5,0.7,1.5,1.5v5.4
								C494.1,249.8,493.4,250.5,492.6,250.5z M459.7,248.8h32.7v-5.1h-32.7V248.8z"/>
						</g>
						<g>
							<path class="st3" d="M448.5,126.4c0,0-17,14.6-11.1,41.1"/>
							<path class="st1" d="M437.4,168.4c-0.4,0-0.7-0.3-0.8-0.7c-5.9-26.7,11.2-41.8,11.4-42c0.3-0.3,0.9-0.3,1.2,0.1
								c0.3,0.3,0.3,0.9-0.1,1.2c-0.2,0.1-16.6,14.6-10.9,40.3c0.1,0.4-0.2,0.9-0.6,1C437.5,168.4,437.4,168.4,437.4,168.4z"/>
						</g>
					</g>
				</g>
				<g class="st5">
					<path class="st1" d="M457,379.5l8.6,2.8c3,1,6.2-0.7,7.2-3.7l3.1-9.7c0.7-2.3,2.8-3.9,5.2-4c1.1,0,2.2-0.1,3.3-0.3
						c2.4-0.3,4.7,0.9,5.9,3.1l4.6,9.1c1.4,2.8,4.9,3.9,7.7,2.5l8.1-4.1c2.8-1.4,3.9-4.9,2.5-7.7l-4.6-9.1c-1.1-2.2-0.7-4.8,0.9-6.5
						c0.8-0.8,1.5-1.7,2.2-2.5c1.5-1.9,4-2.7,6.3-1.9l9.7,3.1c3,1,6.2-0.7,7.2-3.7l2.8-8.6c1-3-0.7-6.2-3.7-7.2l-9.7-3.1
						c-2.3-0.7-3.9-2.8-4-5.2c0-1.1-0.1-2.2-0.3-3.3c-0.3-2.4,0.9-4.7,3.1-5.9l9.1-4.6c2.8-1.4,3.9-4.9,2.5-7.7l-4.1-8.1
						c-1.4-2.8-4.9-3.9-7.7-2.5l-9.1,4.6c-2.2,1.1-4.8,0.7-6.5-0.9c-0.8-0.8-1.7-1.5-2.5-2.2c-1.9-1.5-2.7-4-1.9-6.3l3.1-9.7
						c1-3-0.7-6.2-3.7-7.2l-8.6-2.8c-3-1-6.2,0.7-7.2,3.7l-3.1,9.7c-0.7,2.3-2.8,3.9-5.2,4c-1.1,0-2.2,0.1-3.3,0.3
						c-2.4,0.3-4.7-0.9-5.9-3.1l-4.6-9.1c-1.4-2.8-4.9-3.9-7.7-2.5l-8.1,4.1c-2.8,1.4-3.9,4.9-2.5,7.7l4.6,9.1
						c1.1,2.2,0.7,4.8-0.9,6.5c-0.8,0.8-1.5,1.7-2.2,2.5c-1.5,1.9-4,2.7-6.3,1.9l-9.7-3.1c-3-1-6.2,0.7-7.2,3.7l-2.8,8.6
						c-1,3,0.7,6.2,3.7,7.2l9.7,3.1c2.3,0.7,3.9,2.8,4,5.2c0,1.1,0.1,2.2,0.3,3.3c0.3,2.4-0.9,4.7-3.1,5.9l-9.1,4.6
						c-2.8,1.4-3.9,4.9-2.5,7.7l4.1,8.1c1.4,2.8,4.9,3.9,7.7,2.5l9.1-4.6c2.2-1.1,4.8-0.7,6.5,0.9c0.8,0.8,1.7,1.5,2.5,2.2
						c1.9,1.5,2.7,4,1.9,6.3l-3.1,9.7C452.3,375.3,454,378.6,457,379.5z M470.2,353.4c-16.1-5.2-25-22.5-19.8-38.6
						c5.2-16.1,22.5-25,38.6-19.8c16.1,5.2,25,22.5,19.8,38.6C503.6,349.7,486.3,358.6,470.2,353.4z"/>
				</g>
			</g>
		</g>
	</g>
	<g>
		<g>
			<path class="st1" d="M14,239.6c-1.3,0-2.4-1.1-2.4-2.4c0-1.3,1.1-2.4,2.4-2.4c1.3,0,2.4,1.1,2.4,2.4
				C16.4,238.5,15.3,239.6,14,239.6z M14,235.6c-0.9,0-1.6,0.7-1.6,1.6c0,0.9,0.7,1.6,1.6,1.6s1.6-0.7,1.6-1.6
				C15.6,236.3,14.9,235.6,14,235.6z"/>
			<path class="st1" d="M134.1,101c-0.9,0-1.7-0.8-1.7-1.7c0-0.9,0.8-1.7,1.7-1.7c0.9,0,1.7,0.8,1.7,1.7
				C135.8,100.2,135,101,134.1,101z M134.1,98.1c-0.6,0-1.1,0.5-1.1,1.1c0,0.6,0.5,1.1,1.1,1.1s1.1-0.5,1.1-1.1
				C135.2,98.6,134.7,98.1,134.1,98.1z"/>
			<path class="st4" d="M43.8,245c0,1.4-1.1,2.5-2.5,2.5c-1.4,0-2.5-1.1-2.5-2.5c0-1.4,1.1-2.5,2.5-2.5
				C42.7,242.5,43.8,243.6,43.8,245z"/>
			<path class="st4" d="M113.8,122.6c0,0.7-0.6,1.2-1.2,1.2c-0.7,0-1.2-0.6-1.2-1.2s0.6-1.2,1.2-1.2
				C113.3,121.4,113.8,121.9,113.8,122.6z"/>
			<path class="st4" d="M53.8,381.6c0,0.7-0.6,1.2-1.2,1.2c-0.7,0-1.2-0.6-1.2-1.2s0.6-1.2,1.2-1.2
				C53.3,380.3,53.8,380.9,53.8,381.6z"/>
			<path class="st4" d="M145.8,273.1c0,0.7-0.6,1.2-1.2,1.2c-0.7,0-1.2-0.6-1.2-1.2c0-0.7,0.6-1.2,1.2-1.2
				C145.3,271.8,145.8,272.4,145.8,273.1z"/>
			<path class="st1" d="M19.6,267.3c0,1-0.8,1.8-1.8,1.8c-1,0-1.8-0.8-1.8-1.8c0-1,0.8-1.8,1.8-1.8
				C18.8,265.5,19.6,266.3,19.6,267.3z"/>
			<path class="st1" d="M90.6,397.8c-0.1,0-0.2,0-0.3,0c-0.6-0.1-1.2-0.4-1.6-0.9c-0.8-1-0.6-2.5,0.4-3.3c1-0.8,2.5-0.6,3.3,0.4
				c0.4,0.5,0.6,1.1,0.5,1.8c-0.1,0.6-0.4,1.2-0.9,1.6C91.6,397.6,91.1,397.8,90.6,397.8z M90.6,393.9c-0.3,0-0.7,0.1-0.9,0.3
				c-0.7,0.5-0.8,1.5-0.3,2.2c0.3,0.3,0.6,0.5,1,0.6c0.4,0.1,0.8-0.1,1.2-0.3c0.3-0.3,0.5-0.6,0.6-1c0.1-0.4-0.1-0.8-0.3-1.2v0
				c-0.3-0.3-0.6-0.5-1-0.6C90.7,393.9,90.6,393.9,90.6,393.9z"/>
			<path class="st4" d="M115.5,369.6c0.8,1.1,0.6,2.7-0.5,3.5c-1.1,0.8-2.7,0.6-3.5-0.5c-0.8-1.1-0.6-2.7,0.5-3.5
				C113.1,368.3,114.7,368.5,115.5,369.6z"/>
			<path class="st1" d="M154,115.3c0,0.5-0.4,0.9-0.9,0.9c-0.5,0-0.9-0.4-0.9-0.9c0-0.5,0.4-0.9,0.9-0.9
				C153.6,114.4,154,114.8,154,115.3z"/>
			<path class="st1" d="M109.7,241c0,0.5-0.4,0.9-0.9,0.9c-0.5,0-0.9-0.4-0.9-0.9c0-0.5,0.4-0.9,0.9-0.9
				C109.3,240.1,109.7,240.5,109.7,241z"/>
			<path class="st1" d="M73.7,419.7c0,0.5-0.4,0.9-0.9,0.9c-0.5,0-0.9-0.4-0.9-0.9c0-0.5,0.4-0.9,0.9-0.9
				C73.2,418.8,73.7,419.2,73.7,419.7z"/>
			<circle class="st1" cx="88.5" cy="107.3" r="2.5"/>
			<circle class="st1" cx="126.2" cy="418.8" r="2.5"/>
		</g>
		<g>
			<path class="st1" d="M550.9,172.9c-0.2,0-0.3,0-0.5,0c-0.6-0.1-1.2-0.5-1.5-1c-0.7-1.1-0.4-2.6,0.7-3.3c1.1-0.7,2.6-0.4,3.3,0.7
				c0.7,1.1,0.4,2.6-0.7,3.3C551.9,172.7,551.4,172.9,550.9,172.9z M550.9,168.9c-0.3,0-0.6,0.1-0.9,0.3c-0.7,0.5-0.9,1.4-0.4,2.2v0
				c0.2,0.3,0.6,0.6,1,0.7c0.4,0.1,0.8,0,1.2-0.2c0.7-0.5,0.9-1.4,0.4-2.2C551.9,169.2,551.4,168.9,550.9,168.9z"/>
			<path class="st1" d="M408.8,101c-0.9,0-1.7-0.8-1.7-1.7c0-0.9,0.8-1.7,1.7-1.7s1.7,0.8,1.7,1.7C410.5,100.2,409.8,101,408.8,101z
				 M408.8,98.1c-0.6,0-1.1,0.5-1.1,1.1c0,0.6,0.5,1.1,1.1,1.1s1.1-0.5,1.1-1.1C409.9,98.6,409.4,98.1,408.8,98.1z"/>
			<path class="st4" d="M530.4,193.5c0.8,1.1,2.3,1.5,3.4,0.7c1.1-0.8,1.5-2.3,0.7-3.4c-0.8-1.1-2.3-1.5-3.4-0.7
				C530,190.8,529.7,192.3,530.4,193.5z"/>
			<path class="st4" d="M411,129.6c0,0.7,0.6,1.2,1.2,1.2s1.2-0.6,1.2-1.2c0-0.7-0.6-1.2-1.2-1.2S411,128.9,411,129.6z"/>
			<path class="st4" d="M300.7,182.2c0,0.7,0.6,1.2,1.2,1.2c0.7,0,1.2-0.6,1.2-1.2c0-0.7-0.6-1.2-1.2-1.2
				C301.2,181,300.7,181.5,300.7,182.2z"/>
			<circle class="st4" cx="515" cy="391" r="2.7"/>
			<path class="st4" d="M547.3,303.2c0,0.7,0.6,1.2,1.2,1.2c0.7,0,1.2-0.6,1.2-1.2c0-0.7-0.6-1.2-1.2-1.2
				C547.9,301.9,547.3,302.5,547.3,303.2z"/>
			<path class="st1" d="M563,198.7c0.6,0.8,1.7,1.1,2.5,0.5c0.8-0.6,1.1-1.7,0.5-2.5c-0.6-0.8-1.7-1.1-2.5-0.5
				C562.6,196.7,562.4,197.9,563,198.7z"/>
			<path class="st1" d="M550.9,377.7c-0.5,0-1-0.2-1.4-0.5c-0.5-0.4-0.8-0.9-0.9-1.6s0.1-1.3,0.5-1.8l0,0c0.4-0.5,0.9-0.8,1.6-0.9
				c0.6-0.1,1.3,0.1,1.8,0.5c1,0.8,1.2,2.3,0.4,3.3C552.4,377.4,551.6,377.7,550.9,377.7z M550.9,373.8c-0.1,0-0.1,0-0.2,0
				c-0.4,0.1-0.8,0.3-1,0.6v0c-0.3,0.3-0.4,0.7-0.3,1.2c0.1,0.4,0.3,0.8,0.6,1c0.7,0.5,1.7,0.4,2.2-0.3c0.5-0.7,0.4-1.7-0.3-2.2
				C551.6,373.9,551.3,373.8,550.9,373.8z M549.4,374.1L549.4,374.1L549.4,374.1z"/>
			<path class="st1" d="M371.1,97.1c0,0.5,0.4,0.9,0.9,0.9c0.5,0,0.9-0.4,0.9-0.9c0-0.5-0.4-0.9-0.9-0.9
				C371.5,96.2,371.1,96.6,371.1,97.1z"/>
			<path class="st4" d="M268.8,114.1c-0.1,0.7,0.3,1.3,1,1.5c0.7,0.1,1.3-0.3,1.5-1c0.1-0.7-0.3-1.3-1-1.5
				C269.6,113,268.9,113.5,268.8,114.1z"/>
			<path class="st1" d="M283,88.5c-0.1,0.5,0.2,1,0.7,1.1c0.5,0.1,1-0.2,1.1-0.7s-0.2-1-0.7-1.1C283.6,87.7,283.1,88,283,88.5z"/>
			<path class="st1" d="M566,338c0,0.5,0.4,0.9,0.9,0.9c0.5,0,0.9-0.4,0.9-0.9c0-0.5-0.4-0.9-0.9-0.9C566.4,337.1,566,337.5,566,338
				z"/>
			<path class="st1" d="M537.7,137.6c0,0.5,0.4,0.9,0.9,0.9c0.5,0,0.9-0.4,0.9-0.9c0-0.5-0.4-0.9-0.9-0.9
				C538.1,136.7,537.7,137.1,537.7,137.6z"/>
			<path class="st1" d="M299.7,145.1c0,0.5,0.4,0.9,0.9,0.9c0.5,0,0.9-0.4,0.9-0.9s-0.4-0.9-0.9-0.9
				C300.2,144.2,299.7,144.6,299.7,145.1z"/>
			<path class="st1" d="M497.4,261.7c0,0.5,0.4,0.9,0.9,0.9c0.5,0,0.9-0.4,0.9-0.9c0-0.5-0.4-0.9-0.9-0.9
				C497.8,260.7,497.4,261.2,497.4,261.7z"/>
			<path class="st1" d="M538.8,412.9c0,0.5,0.4,0.9,0.9,0.9c0.5,0,0.9-0.4,0.9-0.9s-0.4-0.9-0.9-0.9
				C539.2,411.9,538.8,412.4,538.8,412.9z"/>
			<path class="st1" d="M433,94.6c0,1.4,1.1,2.5,2.5,2.5c1.4,0,2.5-1.1,2.5-2.5s-1.1-2.5-2.5-2.5C434.2,92.1,433,93.2,433,94.6z"/>
			<path class="st1" d="M320.5,103.4c-0.3,1.4,0.6,2.7,1.9,3c1.4,0.3,2.7-0.6,3-1.9c0.3-1.4-0.6-2.7-1.9-3
				C322.1,101.1,320.7,102,320.5,103.4z"/>
			<circle class="st1" cx="495.8" cy="418.8" r="2.5"/>
		</g>
	</g>
</g>
<g>
	<g>
		<path class="st0" d="M442.3,259.3L442.3,259.3l-38.9-6.6l-49.5,14.6l-21.1-7.8c-2.9,0.7-5.6,1.5-8,2.2l0,0
			c0,0-76.3,12.2-67.1,79.7l42.6,1c1.2,3.7,1.3,2.8,2.1,5l15.3,50.5h124.9l1.2-41.2l37.9,24.4c4.7,3,10.9,0,11.4-5.6
			c1.6-17.5,3.5-48.4,3.6-49.2C498.7,270.3,442.3,259.3,442.3,259.3z"/>
		<path class="st4" d="M304.5,354.6c-0.4,0-0.7-0.2-0.8-0.6l-7.6-29.6c-0.1-0.4,0.2-0.9,0.6-1c0.4-0.1,0.9,0.2,1,0.6l7.6,29.6
			c0.1,0.4-0.2,0.9-0.6,1C304.6,354.6,304.5,354.6,304.5,354.6z"/>
		<path class="st4" d="M450.2,360c-0.2,0-0.4-0.1-0.5-0.2l-23.3-17.9c-2.9-1.9-4.7-5-5.1-8.4L419,310c0-0.5,0.3-0.9,0.7-0.9
			c0.4,0,0.9,0.3,0.9,0.7l2.4,23.5c0.3,3,1.9,5.6,4.4,7.3l23.3,17.9c0.4,0.3,0.4,0.8,0.2,1.2C450.7,359.9,450.5,360,450.2,360z"/>
	</g>
	<g>
		<g>
			<g>
				<g>
					<g>
						<g>
							<g>
								<g>
									<g>
										<path class="st6" d="M386.6,180.7L386.6,180.7l-11.5-0.4c-5.6-0.2-10.6,3.1-12.9,7.9l2.2-32.7c0,0-11.5,6.7-26.6-2.1
											c0,0-17.4-5.8-22.8,7.7c0,0.1,0,0.3,0,0.4l-3.3,48.6c-1.2,17.8,10.9,33.3,27.6,36l3.9,19.3c2.9,14.2,17,23.5,31.5,20.6
											l0.6-0.1c14.5-2.9,26.8-13.8,23.9-28.1l-11.4-47.2l2.7,0.1c8.2,0.3,15.2-6.2,15.5-14.5l0-1.1c0.1-4.1-1.6-7.8-4.3-10.5
											c-2.3-2.2-5.5-3.6-8.9-3.7L386.6,180.7z"/>
									</g>
								</g>
							</g>
							<path class="st7" d="M339.4,246.7c0,0,29.2-3.5,32.3-14.6c3.1-11.1,0,0,0,0s3.9,15.5-29.6,29.5L339.4,246.7z"/>
						</g>
						<path class="st8" d="M394.5,195.1"/>
					</g>
				</g>
			</g>
			<g>
				<path class="st4" d="M390,220.1c0,0,0-4.3,2.2-9.2l-12.7-0.4L390,220.1z"/>
				<path class="st4" d="M387.4,146.6c0,0,7.9-13.8-13.2-23.7c-21.1-9.9-28.9,8.7-28.9,8.7s-2.5-17.1-28.1-8.8
					c-25.5,8.3-2.9,39.9-2.9,39.9c0.2-0.6,0.4-1.1,0.6-1.6c5.4-13.4,22.8-7.7,22.8-7.7c15.1,8.7,26.6,2.1,26.6,2.1l-2,29
					c-0.9,5.8-2,13.5-2.8,19c-0.5,3.5-4.2,5.7-7.5,4.3l-18.3-7.4c-0.9-0.4-1.8-0.5-2.8-0.4l-14.4,1.8c-2.6,0.3-4.6,2.4-4.8,5.1
					l-1.1,13.8c-1.2,15.3,11.1,28.4,26.5,28l8.1-0.2c0.5,0,1.1-0.1,1.6-0.3l2-0.1c20.7-1.2,33.8-22.7,25.3-41.7h0
					c-0.7-1-1.1-2.2-1-3.4L374,182c0-0.6,0-1.1-0.2-1.6c0.4,0,0.8,0,1.2,0l11.5,0.4l6.1,0.2c3.5,0.1,6.6,1.5,8.9,3.7
					c3.7-9.2,6.8-18.2,7.8-23.8C411.9,145.6,387.4,146.6,387.4,146.6z"/>
			</g>
			<path class="st9" d="M397.5,196.2"/>
			<g>
				<path class="st7" d="M394,200.8c-0.2,0-0.3,0-0.5-0.1l-4.8-3.1c-0.2-0.1-0.3-0.3-0.4-0.6c0-0.2,0-0.5,0.2-0.7l5.1-5.7
					c0.3-0.3,0.8-0.4,1.2-0.1c0.3,0.3,0.4,0.8,0.1,1.2l-4.5,5l4,2.6c0.4,0.3,0.5,0.8,0.2,1.1C394.5,200.6,394.2,200.8,394,200.8z"/>
				<g>
					<path class="st4" d="M316.9,185.7c-0.4,1.7,0.7,3.4,2.4,3.7c1.7,0.4,3.4-0.7,3.7-2.4c0.4-1.7-0.7-3.4-2.4-3.7
						C318.9,183,317.2,184,316.9,185.7z"/>
					<path class="st4" d="M339.3,186.4c0,1.7,1.4,3.1,3.2,3.1c1.7,0,3.1-1.4,3.1-3.2c0-1.7-1.4-3.1-3.2-3.1
						C340.7,183.3,339.3,184.7,339.3,186.4z"/>
					<g>
						<path class="st10" d="M345.5,189.9c0,0-2.7-2.2-5.5,0"/>
						<path class="st7" d="M339.9,190.7c-0.2,0-0.5-0.1-0.7-0.3c-0.3-0.4-0.2-0.9,0.1-1.2c2.7-2.1,5.5-0.9,6.5,0
							c0.4,0.3,0.4,0.8,0.1,1.2c-0.3,0.4-0.8,0.4-1.2,0.1c-0.1-0.1-2.2-1.7-4.5,0C340.3,190.7,340.1,190.7,339.9,190.7z"/>
					</g>
					<path class="st7" d="M317,191.4c-0.2,0-0.4-0.1-0.6-0.3c-0.3-0.3-0.3-0.9,0-1.2c2.4-2.3,5.2-1.3,6.2-0.4
						c0.4,0.3,0.4,0.8,0.1,1.2c-0.3,0.4-0.8,0.4-1.2,0.1c-0.2-0.2-2.1-1.5-4.1,0.3C317.4,191.4,317.2,191.4,317,191.4z"/>
				</g>
				<path class="st1" d="M317.5,196.4c-5.8,0-10.5-5.4-10.5-12c0-6.6,4.7-12,10.5-12s10.5,5.4,10.5,12
					C328,191,323.3,196.4,317.5,196.4z M317.5,174c-4.9,0-8.8,4.6-8.8,10.4s4,10.4,8.8,10.4c4.9,0,8.8-4.6,8.8-10.4
					S322.4,174,317.5,174z"/>
				<g>
					<path class="st6" d="M329.9,179.2v10.9h-5.6c-1.5,0-2.6,1.2-2.6,2.6v1.2c0,2.8,2.3,5.1,5.1,5.1h5.1"/>
					<path class="st7" d="M331.9,199.9h-5.1c-3.3,0-6-2.7-6-6v-1.2c0-1.9,1.5-3.5,3.5-3.5h4.8v-10c0-0.5,0.4-0.8,0.8-0.8
						c0.5,0,0.8,0.4,0.8,0.8v11.7h-6.5c-1,0-1.8,0.8-1.8,1.8v1.2c0,2.4,1.9,4.3,4.3,4.3h5.1c0.5,0,0.8,0.4,0.8,0.8
						C332.7,199.5,332.4,199.9,331.9,199.9z"/>
				</g>
				<path class="st1" d="M342.8,195.6c-5.8,0-10.5-5.4-10.5-12c0-6.6,4.7-12,10.5-12s10.5,5.4,10.5,12
					C353.3,190.2,348.6,195.6,342.8,195.6z M342.8,173.3c-4.9,0-8.8,4.6-8.8,10.4c0,5.7,4,10.4,8.8,10.4c4.9,0,8.8-4.6,8.8-10.4
					C351.6,177.9,347.7,173.3,342.8,173.3z"/>
				<g>
					<g>
						<g>
							<g>
								<g>
									<g>
										<path class="st4" d="M351.2,172.4c-1,0.2-2.1-0.3-3.3-0.6c-1.1-0.4-2.3-0.7-3.3-1c-1-0.3-2.2-0.5-3.3-0.8
											c-1.1-0.3-2.4-0.4-3.1-1.1c-0.8-0.6-0.8-1.7,0.5-2.7c1.3-1,4.1-1.7,7.5-0.8c3.3,0.9,5.4,2.9,6,4.4
											C352.8,171.3,352.2,172.3,351.2,172.4z"/>
									</g>
								</g>
							</g>
							<g>
								<g>
									<g>
										<path class="st4" d="M313,169c0.8,0.3,1.7,0.1,2.6,0c0.9-0.1,1.8-0.2,2.7-0.3c0.8-0.1,1.7-0.1,2.7-0.1
											c0.9,0,1.9,0,2.6-0.4c0.7-0.4,0.9-1.4,0-2.5c-0.9-1.1-3-2.2-5.6-2c-2.7,0.2-4.6,1.6-5.2,2.8
											C311.9,167.8,312.3,168.7,313,169z"/>
									</g>
								</g>
							</g>
						</g>
					</g>
				</g>
				<path class="st1" d="M333.1,183.4h-4.3c-0.5,0-0.8-0.4-0.8-0.8c0-0.5,0.4-0.8,0.8-0.8h4.3c0.5,0,0.8,0.4,0.8,0.8
					C334,183.1,333.6,183.4,333.1,183.4z"/>
				<path class="st1" d="M352.5,183c-0.4,0-0.8-0.3-0.8-0.8c0-0.5,0.3-0.9,0.7-0.9l25.4-2.4c0.5,0,0.9,0.3,0.9,0.7
					c0,0.5-0.3,0.9-0.7,0.9L352.5,183C352.5,183,352.5,183,352.5,183z"/>
				<path class="st7" d="M338.6,214.5C338.6,214.5,338.6,214.5,338.6,214.5l-10.1-0.1c-0.5,0-0.8-0.4-0.8-0.8c0-0.5,0.4-0.8,0.8-0.8
					c0,0,0,0,0,0l10,0.1c2.8,0,5.3-1.9,5.9-4.6l1.6,0.4C345.3,212.1,342.2,214.5,338.6,214.5z"/>
			</g>
		</g>
	</g>
	<g>
		<path class="st1" d="M339.5,250.1l-12.8,11l1.9,26.1c0.1,1.3,1.7,2,2.7,1.1l23.5-20.9L339.5,250.1z"/>
		<path class="st1" d="M395.5,243.2l-41.8,24.1l16.8,28.2c0.8,1.3,2.5,1.6,3.7,0.6l40.6-34.4L395.5,243.2z"/>
		<polygon class="st4" points="334.5,285.5 345.6,308 369.5,293.7 354.2,268 		"/>
	</g>
</g>
<g>
	<g>
		<path class="st4" d="M206.3,170.3l-25.8,0.2l-33.7,0l0.1-12.5c0-1.7-0.1-3.3-0.4-4.9c-4.5-24.7-40.7-24.9-45.5-0.2
			c-0.3,1.6-0.5,3.3-0.5,5v15h0l0.1,11.2c0.1,11.9-7.6,22-17.5,24.2c-0.2,0.1,1.1,0.1,2.4,0.1c1.8,0,3.3,0,3.3,0l96.4,0.1
			c11.9-0.1,21.4-11,21.4-24.4L206.3,170.3z"/>
		<g>
			<g>
				<path class="st1" d="M284.6,170.1c0-15.4-9.7-28.5-23.3-33.5c-3.3-1.5-6.9-2.4-10.8-2.4l-80.1,0.1l0,0h-43.7
					c-0.6,0-1.2,0-1.7,0.1l-1.5,0v0c0.1,0,0.2,0,0.3,0c12.4,1.6,22.1,11.9,22.8,24.6h0v249c0,12.1,9.9,21.9,22.1,21.9h115.8V329.5h0
					V170.1z"/>
				<g>
					<path class="st4" d="M264.6,268.6h-94c-0.5,0-0.8-0.4-0.8-0.8c0-0.5,0.4-0.8,0.8-0.8h94c0.5,0,0.8,0.4,0.8,0.8
						C265.4,268.2,265.1,268.6,264.6,268.6z"/>
					<path class="st4" d="M236.3,255.3h-39.6c-0.5,0-0.8-0.4-0.8-0.8c0-0.5,0.4-0.8,0.8-0.8h39.6c0.5,0,0.8,0.4,0.8,0.8
						C237.1,255,236.7,255.3,236.3,255.3z"/>
					<path class="st4" d="M264.6,288.1h-94c-0.5,0-0.8-0.4-0.8-0.8c0-0.5,0.4-0.8,0.8-0.8h94c0.5,0,0.8,0.4,0.8,0.8
						C265.4,287.7,265.1,288.1,264.6,288.1z"/>
					<path class="st4" d="M264.6,307.6h-94c-0.5,0-0.8-0.4-0.8-0.8c0-0.5,0.4-0.8,0.8-0.8h94c0.5,0,0.8,0.4,0.8,0.8
						C265.4,307.2,265.1,307.6,264.6,307.6z"/>
					<path class="st4" d="M264.6,325.8h-94c-0.5,0-0.8-0.4-0.8-0.8s0.4-0.8,0.8-0.8h94c0.5,0,0.8,0.4,0.8,0.8
						S265.1,325.8,264.6,325.8z"/>
				</g>
			</g>
			<g>
				<g>
					<path class="st11" d="M213.3,164.1L213.3,164.1c-1.1-3.5-6.3-2.7-6.3,1l0,0c0,3.1-4,4.4-5.8,1.9v0c-2.2-3-6.8-0.6-5.7,2.9l0,0
						c1,3-2.4,5.5-5,3.6v0c-3-2.2-6.7,1.5-4.5,4.5h0c1.8,2.5-0.6,5.9-3.6,5h0c-3.5-1.1-5.9,3.5-2.9,5.7l0,0c2.5,1.8,1.2,5.8-1.9,5.8
						l0,0c-3.7,0-4.5,5.2-1,6.3l0,0c3,1,3,5.2,0,6.1l0,0c-3.5,1.1-2.7,6.3,1,6.3l0,0c3.1,0,4.4,4,1.9,5.8l0,0
						c-3,2.2-0.6,6.8,2.9,5.7h0c3-1,5.5,2.4,3.6,5l0,0c-2.2,3,1.5,6.7,4.5,4.5l0,0c2.5-1.8,5.9,0.6,5,3.6h0
						c-1.1,3.5,3.5,5.9,5.7,2.9l0,0c1.8-2.5,5.8-1.2,5.8,1.9l0,0c0,3.7,5.2,4.5,6.3,1l0,0c1-3,5.2-3,6.1,0l0,0
						c1.1,3.5,6.3,2.7,6.3-1l0,0c0-3.1,4-4.4,5.8-1.9l0,0c2.2,3,6.8,0.6,5.7-2.9l0,0c-1-3,2.4-5.5,5-3.6l0,0c3,2.2,6.7-1.5,4.5-4.5
						v0c-1.8-2.5,0.6-5.9,3.6-5h0c3.5,1.1,5.9-3.5,2.9-5.7l0,0c-2.5-1.8-1.2-5.8,1.9-5.8l0,0c3.7,0,4.5-5.2,1-6.3l0,0
						c-3-1-3-5.2,0-6.1l0,0c3.5-1.1,2.7-6.3-1-6.3l0,0c-3.1,0-4.4-4-1.9-5.8l0,0c3-2.2,0.6-6.8-2.9-5.7h0c-3,1-5.5-2.4-3.6-5l0,0
						c2.2-3-1.5-6.7-4.5-4.5v0c-2.5,1.8-5.9-0.6-5-3.6v0c1.1-3.5-3.5-5.9-5.7-2.9v0c-1.8,2.5-5.8,1.2-5.8-1.9l0,0
						c0-3.7-5.2-4.5-6.3-1l0,0C218.4,167.1,214.2,167.1,213.3,164.1z"/>
					<g>
						<path class="st4" d="M231.1,229.1h-29.6c-3.5,0-6.3-2.8-6.3-6.3v-23.4c0-3.5,2.8-6.3,6.3-6.3h29.6c3.5,0,6.3,2.8,6.3,6.3v23.4
							C237.4,226.2,234.6,229.1,231.1,229.1z M201.5,195.6c-2.1,0-3.8,1.7-3.8,3.8v23.4c0,2.1,1.7,3.8,3.8,3.8h29.6
							c2.1,0,3.8-1.7,3.8-3.8v-23.4c0-2.1-1.7-3.8-3.8-3.8H201.5z"/>
						<path class="st4" d="M230.4,195.6c-0.7,0-1.2-0.6-1.2-1.2v-6.8c0-4.5-4.2-8.2-9.3-8.2h-7c-5.1,0-9.3,3.7-9.3,8.2v6.8
							c0,0.7-0.6,1.2-1.2,1.2c-0.7,0-1.2-0.6-1.2-1.2v-6.8c0-5.9,5.3-10.7,11.8-10.7h7c6.5,0,11.8,4.8,11.8,10.7v6.8
							C231.6,195,231.1,195.6,230.4,195.6z"/>
						<g>
							<g>
								<path class="st4" d="M223.9,207.4c0-3.9-3.3-7-7.4-6.9c-3.8,0.1-7,3-7.2,6.7c-0.1,2.3,1,4.4,2.8,5.7
									c0.4,0.3,0.6,0.7,0.6,1.2v1.9c0,0.8,0.7,1.5,1.5,1.5h4.7c0.9,0,1.5-0.7,1.5-1.5V214c0-0.5,0.2-0.9,0.6-1.2
									C222.8,211.6,223.9,209.6,223.9,207.4z"/>
								<g>
									<path class="st4" d="M218.1,220c0,0.9-0.7,1.5-1.5,1.5c-0.9,0-1.5-0.7-1.5-1.5c0-0.9,0.7-1.5,1.5-1.5
										C217.4,218.5,218.1,219.2,218.1,220z"/>
									<path class="st11" d="M216.6,221.8c-1,0-1.7-0.8-1.7-1.7c0-1,0.8-1.8,1.7-1.8c1,0,1.8,0.8,1.8,1.8
										C218.3,221,217.5,221.8,216.6,221.8z M216.6,218.7c-0.7,0-1.3,0.6-1.3,1.3s0.6,1.3,1.3,1.3c0.7,0,1.3-0.6,1.3-1.3
										S217.3,218.7,216.6,218.7z"/>
								</g>
								<g>
									<path class="st4" d="M218.8,219.1h-4.4c-0.4,0-0.6-0.3-0.6-0.6v0c0-0.4,0.3-0.6,0.6-0.6h4.4c0.4,0,0.6,0.3,0.6,0.6l0,0
										C219.4,218.8,219.1,219.1,218.8,219.1z"/>
									<path class="st11" d="M218.9,219.3h-4.6c-0.4,0-0.8-0.3-0.8-0.8v-0.2c0-0.4,0.3-0.8,0.8-0.8h4.6c0.4,0,0.8,0.3,0.8,0.8v0.2
										C219.6,218.9,219.3,219.3,218.9,219.3z M214.3,218c-0.2,0-0.4,0.2-0.4,0.4v0.2c0,0.2,0.2,0.4,0.4,0.4h4.6
										c0.2,0,0.4-0.2,0.4-0.4v-0.2c0-0.2-0.2-0.4-0.4-0.4H214.3z"/>
								</g>
								<g>
									<path class="st4" d="M218.5,220.2h-3.9c-0.3,0-0.6-0.3-0.6-0.6v0c0-0.3,0.3-0.6,0.6-0.6h3.9c0.3,0,0.6,0.3,0.6,0.6l0,0
										C219.1,220,218.8,220.2,218.5,220.2z"/>
									<path class="st11" d="M218.6,220.4h-4c-0.4,0-0.7-0.3-0.7-0.7v-0.1c0-0.4,0.3-0.7,0.7-0.7h4c0.4,0,0.7,0.3,0.7,0.7v0.1
										C219.3,220.1,219,220.4,218.6,220.4z M214.6,219.3c-0.2,0-0.3,0.1-0.3,0.3v0.1c0,0.2,0.1,0.3,0.3,0.3h4
										c0.2,0,0.3-0.1,0.3-0.3v-0.1c0-0.2-0.1-0.3-0.3-0.3H214.6z"/>
								</g>
								<path class="st11" d="M211.5,209.1c-0.1,0-0.3-0.1-0.3-0.2c-0.9-3.3,1.7-5.2,1.7-5.2c0.1-0.1,0.3-0.1,0.4,0.1
									c0.1,0.1,0.1,0.3-0.1,0.4c-0.1,0.1-2.3,1.6-1.5,4.5C211.9,208.8,211.8,209,211.5,209.1C211.6,209.1,211.5,209.1,211.5,209.1
									z"/>
							</g>
						</g>
					</g>
					<path class="st4" d="M176.8,174.4c-0.2,0-0.4-0.1-0.5-0.2l-7.8-6.2c-0.4-0.3-0.4-0.8-0.1-1.2c0.3-0.4,0.8-0.4,1.2-0.1l7.8,6.2
						c0.4,0.3,0.4,0.8,0.1,1.2C177.2,174.3,177,174.4,176.8,174.4z"/>
					<path class="st4" d="M159.6,204.1c-0.4,0-0.7-0.3-0.8-0.6c-0.1-0.4,0.2-0.9,0.6-1l9.7-2.3c0.4-0.1,0.9,0.2,1,0.6
						c0.1,0.4-0.2,0.9-0.6,1l-9.7,2.3C159.7,204.1,159.7,204.1,159.6,204.1z"/>
					<path class="st4" d="M170.7,188.4c-0.1,0-0.1,0-0.2,0l-9.7-2.7c-0.4-0.1-0.7-0.6-0.6-1c0.1-0.4,0.6-0.7,1-0.6l9.7,2.7
						c0.4,0.1,0.7,0.6,0.6,1C171.4,188.1,171.1,188.4,170.7,188.4z"/>
					<path class="st4" d="M262.3,203.4c-0.4,0-0.8-0.3-0.8-0.8c0-0.5,0.3-0.9,0.8-0.9l10-0.8c0.5,0,0.9,0.3,0.9,0.8
						c0,0.5-0.3,0.9-0.8,0.9L262.3,203.4C262.3,203.4,262.3,203.4,262.3,203.4z"/>
					<path class="st4" d="M261,188.4c-0.4,0-0.7-0.2-0.8-0.6c-0.1-0.4,0.1-0.9,0.6-1l9.7-2.7c0.4-0.1,0.9,0.1,1,0.6
						c0.1,0.4-0.1,0.9-0.6,1l-9.7,2.7C261.1,188.4,261.1,188.4,261,188.4z"/>
					<path class="st4" d="M268.6,219.9c-0.1,0-0.3,0-0.4-0.1l-8.9-4.6c-0.4-0.2-0.6-0.7-0.4-1.1c0.2-0.4,0.7-0.6,1.1-0.4l8.9,4.6
						c0.4,0.2,0.6,0.7,0.4,1.1C269.2,219.8,268.9,219.9,268.6,219.9z"/>
					<g>
						<path class="st4" d="M257.1,174.9c0,6.4-5.1,11.8-11.7,11.8c-6.6,0-11.6-5.3-11.6-11.7c0-6.4,5.1-11.8,11.7-11.8
							C251.9,163.2,257.1,168.5,257.1,174.9z M236.1,175c0,5.1,4,9.3,9.2,9.3c5.3,0,9.3-4.3,9.3-9.4c0-5.1-4-9.3-9.2-9.3
							C240.1,165.6,236.1,169.9,236.1,175z M249.2,172.6L249.2,172.6c-0.5,0.6-1.4,0.8-2.1,0.3c-0.5-0.3-1-0.5-1.5-0.5
							c-1.3,0-2.3,1-2.3,2.5c0,1.5,1,2.5,2.3,2.5c0.5,0,1-0.2,1.5-0.5c0.6-0.4,1.4-0.2,1.9,0.3l0,0c0.6,0.7,0.5,1.8-0.2,2.3
							c-1,0.7-2.3,1-3.4,1c-3.3,0-5.8-2.3-5.8-5.6c0-3.2,2.5-5.6,5.9-5.6c1.1,0,2.3,0.4,3.3,0.9
							C249.7,170.8,249.8,171.9,249.2,172.6z"/>
					</g>
				</g>
			</g>
		</g>
	</g>
	<g>
		<path class="st12" d="M244.3,365.2v36.7c0,14.5,11.8,26.3,26.3,26.3h4.9c17.4,0,31.6-14.1,31.6-31.6v0c0-12.3,10-22.2,22.2-22.2
			h9.1c2.1,0,4.1,0.3,6,1v-1h0.2v-13.8c0-9.8-8-17.8-17.8-17.8h-104v0C234.8,343.3,244.3,353.1,244.3,365.2z"/>
		<line class="st13" x1="486.2" y1="430" x2="486.2" y2="430"/>
		<path class="st14" d="M466.4,406.3l-0.2-14.2c0-9.8-8-17.8-17.8-17.8H344.6h-0.2v1c7.5,2.5,12.9,9.6,12.9,17.9v8.9
			c0,15.4,12.5,27.8,27.8,27.8l0,0h101C474.8,427.8,466.6,417.9,466.4,406.3z"/>
		<path class="st4" d="M146.6,408.3c0,1.4,0.2,2.8,0.4,4.2c-0.3-1.4-0.4-2.9-0.4-4.4L146.6,408.3z"/>
		<line class="st15" x1="385.2" y1="430" x2="385.2" y2="430"/>
		<path class="st4" d="M357.4,402.2v-8.9c0-8.4-5.4-15.4-12.9-17.9c-1.9-0.6-3.9-1-6-1h-9.1c-12.3,0-22.2,10-22.2,22.2v0
			c0,17.4-14.1,31.6-31.6,31.6h-4.9c-14.5,0-26.3-11.8-26.3-26.3v-36.7c0-12.1-9.5-21.9-21.4-22.4c-0.3,0-0.7,0-1,0h0
			c-15.1,0-27.4,12.3-27.4,27.4v30c0,15.4-12.5,28-28,28h0c-9.5,0-17.5-6.7-19.4-15.7c1.9,10.2,10.7,17.5,21.6,17.5h175.8h40.8
			C369.8,430,357.4,417.5,357.4,402.2z"/>
	</g>
</g>
<g>
	<g>
		<g>
			<path class="st10" d="M172.2,297.7c-3.9-8.4-12.9-2.2-18.8,0.7c-2.7,1.6-5.1,3.1-7.4,4.4c0.4-3.2,0.9-6.4,0.2-9.5
				c-0.2-1-0.6-2.1-1.6-2.6c-0.7-0.4-1.6-0.3-2.2,0c-0.7,0.3-1.2,0.9-1.7,1.5c-4.7,5.2-15.4,23.2-15.4,23.2c-2,4.3-3.4,9.1-4,13.9
				c-1.8,13.9,10.8,26.5,24.1,23.8c1.6-0.3,3.1-0.9,4.1-1.7l22.3-16c4.3-2.7,4.7-9.5,0.8-9.6c3.8-1.1,7.5-3.8,5.3-8.5
				c-0.9-2.7-3-3.1-5.3-2.8c3.4-1.1,6.5-2.9,5-7c-1.1-4.6-4.8-4.7-8.3-3.9C171.6,302.4,173.3,300.7,172.2,297.7z"/>
		</g>
		<path class="st7" d="M136.5,309.3c-0.3,0-0.6-0.1-0.7-0.4c-0.2-0.4-0.1-0.9,0.3-1.1l12.1-7c0.4-0.2,0.9-0.1,1.1,0.3
			c0.2,0.4,0.1,0.9-0.3,1.1l-12.1,7C136.7,309.2,136.6,309.3,136.5,309.3z"/>
		<path class="st7" d="M160.7,309.3c-0.3,0-0.6-0.1-0.7-0.4c-0.2-0.4-0.1-0.9,0.3-1.1c0.8-0.5,8.3-5,9.9-5.4c0.4-0.1,0.9,0.1,1,0.6
			c0.1,0.4-0.1,0.9-0.6,1c-1,0.3-6.3,3.4-9.4,5.2C161,309.2,160.8,309.3,160.7,309.3z"/>
		<path class="st7" d="M165.2,319.8c-0.3,0-0.6-0.1-0.7-0.4c-0.2-0.4-0.1-0.9,0.3-1.1l7.6-4.4c0.4-0.2,0.9-0.1,1.1,0.3
			c0.2,0.4,0.1,0.9-0.3,1.1l-7.6,4.4C165.5,319.7,165.3,319.8,165.2,319.8z"/>
		<path class="st7" d="M167.4,329.6c-0.3,0-0.6-0.2-0.7-0.4c-0.2-0.4-0.1-0.9,0.3-1.1l4.1-2.3c0.4-0.2,0.9-0.1,1.1,0.3
			c0.2,0.4,0.1,0.9-0.3,1.1l-4.1,2.3C167.7,329.5,167.6,329.6,167.4,329.6z"/>
	</g>
	<g>
		<g>
			<path class="st7" d="M323.6,251.8l5.1,4.4c1.3,1.1,1.4,3.1,0.2,4.5l-4.6,5.3c-1.2,1.4-3.2,1.6-4.5,0.4l-5.1-4.4
				c-1.3-1.1-1.4-3.1-0.2-4.5l4.6-5.3C320.3,250.9,322.3,250.7,323.6,251.8z"/>
			
				<rect x="262.1" y="280" transform="matrix(0.651 -0.7591 0.7591 0.651 -113.3516 326.4326)" class="st11" width="72.5" height="12.9"/>
			<path class="st6" d="M269.9,309.9l9.6,8.3c0,0,0.2,0.2,0,0.1l-15.1,7.8l0,0l5.4-16.1C269.8,309.9,269.9,309.8,269.9,309.9z"/>
			<path class="st16" d="M266.4,320.3l3.4,3c0,0,0.1,0.1,0,0.1l-5.4,2.8l0,0L266.4,320.3C266.3,320.3,266.4,320.3,266.4,320.3z"/>
			<path class="st1" d="M313.5,273.3c-0.1,0-0.2,0-0.3-0.1c-0.2-0.1-0.2-0.4,0-0.6l6.8-7.9c0.2-0.2,0.4-0.2,0.6,0
				c0.2,0.1,0.2,0.4,0,0.6l-6.8,7.9C313.8,273.3,313.7,273.3,313.5,273.3z"/>
			<path class="st1" d="M296.9,284.9c-0.1,0-0.2,0-0.3-0.1c-0.2-0.1-0.2-0.4,0-0.6l19.6-22.8c0.2-0.2,0.4-0.2,0.6,0
				c0.2,0.1,0.2,0.4,0,0.6l-19.6,22.8C297.1,284.8,297,284.9,296.9,284.9z"/>
		</g>
		<g>
			<path class="st6" d="M442.9,350.9l-83.8-55.4l-19.4-15.2c-5.4-4.3-12-6.9-18.8-7.6l-22.2-2.3c-3.2-0.3-6.4,0.3-9.3,1.7l-10.6,5.4
				c-1.7,0.9-2.7,2.7-2.6,4.5l0.1,1.2l-0.8,0.4c-2.2,1.1-3.6,3.3-3.6,5.8l0,4.4l-0.7,1.7c-1,2.3-0.6,5,1.1,6.9l16.4,18.4
				c1,1.1,2.8,1.2,3.8,0.1c2.6-2.7,2.8-6.9,0.4-9.8l-5.1-6.3l17,10.1c2.8,1.7,5.9,2.6,9.2,2.8l10.5,0.6l10.8,12.4l65,78.4
				c7.8,8.4,17.8,13.1,28,14.4c20.7,2.6,40.4-9.8,48-29.2l5.9-13L442.9,350.9z"/>
		</g>
		<path class="st7" d="M276.7,284.6c-0.4,0-0.7-0.2-0.8-0.6c-0.1-0.4,0.1-0.9,0.5-1l12.6-4c0.4-0.1,0.9,0.1,1,0.5
			c0.1,0.4-0.1,0.9-0.5,1l-12.6,4C276.8,284.6,276.7,284.6,276.7,284.6z"/>
		<path class="st7" d="M272.5,294.6c-0.4,0-0.7-0.2-0.8-0.6c-0.1-0.4,0.2-0.9,0.6-1l15.7-4c0.4-0.1,0.9,0.2,1,0.6
			c0.1,0.4-0.2,0.9-0.6,1l-15.7,4C272.6,294.6,272.5,294.6,272.5,294.6z"/>
		<path class="st7" d="M287.9,305.8c-0.2,0-0.5-0.1-0.6-0.3l-3.2-3.5c-0.3-0.3-0.3-0.9,0.1-1.2c0.3-0.3,0.9-0.3,1.2,0.1l3.2,3.5
			c0.3,0.3,0.3,0.9-0.1,1.2C288.3,305.7,288.1,305.8,287.9,305.8z"/>
		<path class="st7" d="M324.6,319.3c-0.4,0-0.8-0.4-0.8-0.8c0-0.5,0.3-0.8,0.8-0.9l12.4-0.5c0.4,0,0.8,0.3,0.9,0.8
			c0,0.5-0.3,0.8-0.8,0.9L324.6,319.3C324.6,319.3,324.6,319.3,324.6,319.3z"/>
	</g>
</g>
</svg>
