<svg xmlns="http://www.w3.org/2000/svg" width="159.551" height="125.374" viewBox="0 0 159.551 125.374">
  <g id="Group_13700" data-name="Group 13700" transform="matrix(0.966, 0.259, -0.259, 0.966, -87.65, -55.071)">
    <path id="Path_45378" data-name="Path 45378" d="M128.468,87.724A68.984,68.984,0,0,1,129.877,76.4c.7-2.952,1.515-4.615,1.978-3.827.388.623,1.244,3.418,3.474,8.021a57.3,57.3,0,0,0,13.35,17.386,72.2,72.2,0,0,0,22.337,12.953,89.867,89.867,0,0,0,28.147,5.527,71.173,71.173,0,0,0,31.1-5.72,55.682,55.682,0,0,0,14.416-9.2,56.375,56.375,0,0,0,11.276-13.816,46.172,46.172,0,0,0,6.235-27.881,41.4,41.4,0,0,0-14.115-26.261,38.548,38.548,0,0,0-13.4-7.639A32.424,32.424,0,0,0,219.1,24.814a29.991,29.991,0,0,0-14.122,6.647,22.4,22.4,0,0,0-7.752,13.393,19.3,19.3,0,0,0,1.795,11.382,16.775,16.775,0,0,0,6.7,7.291c5.043,2.618,7.734,1.049,8.171.76.494-.456-.5-.9-1.505-1.282a12.625,12.625,0,0,1-4.608-2.637,15.759,15.759,0,0,1-3.747-5.118,15.929,15.929,0,0,1-1.362-9.041,16.688,16.688,0,0,1,4.483-8.893,23.432,23.432,0,0,1,10.029-6.045c8.039-2.575,18.5-.6,26.562,6.308,8.143,6.692,13.934,17.9,12.748,29.951-.978,12.035-8.075,24.238-18.835,32.247-10.772,8.028-25.277,11.605-39.794,10.841-14.5-.807-29.558-5.25-41.582-13.908-.729-.564-1.5-1.089-2.2-1.689l-1.075-.873-.706-.619-1.07-.964c-.682-.673-1.39-1.327-2.042-2.023a49.979,49.979,0,0,1-3.723-4.347,48.63,48.63,0,0,1-5.793-9.707c-1.519-3.38-2.757-5.777-1.959-5.421.666.28,2.625,1.762,5.7,3.4a35.28,35.28,0,0,0,12.409,3.886c3.29.4,6.513-.423,6.16-1.813-.172-.842-1.491-1.329-3.1-1.83-1.635-.466-3.521-.978-4.843-1.3a37.005,37.005,0,0,1-11.313-4.956,44.662,44.662,0,0,1-6.68-5.445c-3.163-3.22-4.372-4.739-5.174-4.69-.564.014-1.771,1.268-3.389,4.307a49.18,49.18,0,0,0-4.9,15.625,53.473,53.473,0,0,0,.673,20.155c1.094,4.556,2.387,6.979,3.429,8.075,3.213,3.218,3-.56,2.474-5.433A91.533,91.533,0,0,1,128.468,87.724Z" transform="translate(0 0)" fill="#203f50"/>
  </g>
</svg>
